<?xml version="1.0" encoding="UTF-8" standalone="no"?>
<!-- Created with Inkscape (http://www.inkscape.org/) -->

<svg
   xmlns:dc="http://purl.org/dc/elements/1.1/"
   xmlns:cc="http://creativecommons.org/ns#"
   xmlns:rdf="http://www.w3.org/1999/02/22-rdf-syntax-ns#"
   xmlns:svg="http://www.w3.org/2000/svg"
   xmlns="http://www.w3.org/2000/svg"
   xmlns:xlink="http://www.w3.org/1999/xlink"
   xmlns:sodipodi="http://sodipodi.sourceforge.net/DTD/sodipodi-0.dtd"
   xmlns:inkscape="http://www.inkscape.org/namespaces/inkscape"
   width="250"
   height="150"
   viewBox="0 0 250 150"
   id="svg4333"
   version="1.1"
   inkscape:version="0.91 r13725"
   sodipodi:docname="Escape velocity.svg"
   inkscape:export-filename="C:\Users\ZOWEN11\Box Sync\CS\Website\Rocket.png"
   inkscape:export-xdpi="150"
   inkscape:export-ydpi="150">
  <defs
     id="defs4335">
    <linearGradient
       inkscape:collect="always"
       id="linearGradient4732">
      <stop
         style="stop-color:#3264b1;stop-opacity:1;"
         offset="0"
         id="stop4734" />
      <stop
         style="stop-color:#3264b1;stop-opacity:0;"
         offset="1"
         id="stop4736" />
    </linearGradient>
    <linearGradient
       inkscape:collect="always"
       id="linearGradient18263">
      <stop
         style="stop-color:#323232;stop-opacity:1;"
         offset="0"
         id="stop18265" />
      <stop
         style="stop-color:#323232;stop-opacity:0;"
         offset="1"
         id="stop18267" />
    </linearGradient>
    <linearGradient
       inkscape:collect="always"
       id="linearGradient18255">
      <stop
         style="stop-color:#323232;stop-opacity:1;"
         offset="0"
         id="stop18257" />
      <stop
         style="stop-color:#323232;stop-opacity:0;"
         offset="1"
         id="stop18259" />
    </linearGradient>
    <linearGradient
       inkscape:collect="always"
       id="linearGradient18247">
      <stop
         style="stop-color:#323232;stop-opacity:1;"
         offset="0"
         id="stop18249" />
      <stop
         style="stop-color:#323232;stop-opacity:0;"
         offset="1"
         id="stop18251" />
    </linearGradient>
    <linearGradient
       inkscape:collect="always"
       id="linearGradient18153">
      <stop
         style="stop-color:#00a7ff;stop-opacity:1;"
         offset="0"
         id="stop18155" />
      <stop
         style="stop-color:#00a7ff;stop-opacity:0;"
         offset="1"
         id="stop18157" />
    </linearGradient>
    <linearGradient
       inkscape:collect="always"
       id="linearGradient18060">
      <stop
         style="stop-color:#000000;stop-opacity:1;"
         offset="0"
         id="stop18062" />
      <stop
         style="stop-color:#000000;stop-opacity:0;"
         offset="1"
         id="stop18064" />
    </linearGradient>
    <linearGradient
       inkscape:collect="always"
       xlink:href="#linearGradient18060"
       id="linearGradient18066"
       x1="62"
       y1="-952.36218"
       x2="44"
       y2="-952.36218"
       gradientUnits="userSpaceOnUse"
       gradientTransform="translate(-8.7500012,2.9999999e-5)" />
    <linearGradient
       inkscape:collect="always"
       xlink:href="#linearGradient18153"
       id="linearGradient18159"
       x1="229.46429"
       y1="914.9693"
       x2="247.46429"
       y2="905.9693"
       gradientUnits="userSpaceOnUse"
       gradientTransform="translate(2.3387686,-16.071429)" />
    <linearGradient
       inkscape:collect="always"
       xlink:href="#linearGradient18247"
       id="linearGradient18253"
       x1="53.25"
       y1="904.36212"
       x2="255.75"
       y2="952.36212"
       gradientUnits="userSpaceOnUse"
       gradientTransform="matrix(1,0,0,0.74999999,81.650783,243.78896)" />
    <linearGradient
       inkscape:collect="always"
       xlink:href="#linearGradient18255"
       id="linearGradient18261"
       x1="53.25"
       y1="1000.3622"
       x2="255.75"
       y2="952.36212"
       gradientUnits="userSpaceOnUse"
       gradientTransform="matrix(1,0,0,0.74999932,81.650334,253.78962)" />
    <linearGradient
       inkscape:collect="always"
       xlink:href="#linearGradient18263"
       id="linearGradient18269"
       x1="53.25"
       y1="952.36218"
       x2="255.75"
       y2="952.36212"
       gradientUnits="userSpaceOnUse" />
    <linearGradient
       inkscape:collect="always"
       xlink:href="#linearGradient4732"
       id="linearGradient4738"
       x1="-13.753612"
       y1="1062.0605"
       x2="204.4792"
       y2="936.06378"
       gradientUnits="userSpaceOnUse" />
  </defs>
  <sodipodi:namedview
     id="base"
     pagecolor="#ffffff"
     bordercolor="#666666"
     borderopacity="1.0"
     inkscape:pageopacity="0.0"
     inkscape:pageshadow="2"
     inkscape:zoom="1.9442857"
     inkscape:cx="-20.49543"
     inkscape:cy="140.08788"
     inkscape:document-units="px"
     inkscape:current-layer="g4184"
     showgrid="false"
     units="px"
     inkscape:snap-page="true"
     inkscape:snap-text-baseline="true"
     inkscape:snap-object-midpoints="true"
     inkscape:snap-midpoints="true"
     inkscape:snap-smooth-nodes="true"
     inkscape:object-nodes="true"
     inkscape:snap-intersection-paths="true"
     inkscape:object-paths="true"
     inkscape:snap-bbox="true"
     inkscape:bbox-paths="true"
     inkscape:bbox-nodes="true"
     inkscape:snap-bbox-edge-midpoints="true"
     inkscape:snap-bbox-midpoints="true"
     inkscape:window-width="1858"
     inkscape:window-height="1061"
     inkscape:window-x="-4"
     inkscape:window-y="-4"
     inkscape:window-maximized="1"
     inkscape:snap-global="true"
     showguides="false" />
  <metadata
     id="metadata4338">
    <rdf:RDF>
      <cc:Work
         rdf:about="">
        <dc:format>image/svg+xml</dc:format>
        <dc:type
           rdf:resource="http://purl.org/dc/dcmitype/StillImage" />
        <dc:title></dc:title>
      </cc:Work>
    </rdf:RDF>
  </metadata>
  <g
     inkscape:label="Layer 1"
     inkscape:groupmode="layer"
     id="layer1"
     transform="translate(0,-902.36216)">
    <flowRoot
       xml:space="preserve"
       id="flowRoot18076"
       style="font-style:normal;font-weight:normal;font-size:40px;line-height:125%;font-family:sans-serif;letter-spacing:0px;word-spacing:0px;fill:#000000;fill-opacity:1;stroke:none;stroke-width:1px;stroke-linecap:butt;stroke-linejoin:miter;stroke-opacity:1"
       transform="translate(0,852.36216)"><flowRegion
         id="flowRegion18078"><rect
           id="rect18080"
           width="62"
           height="43.357182"
           x="0"
           y="104.64286" /></flowRegion><flowPara
         id="flowPara18082">F = ama</flowPara></flowRoot>    <g
       id="g18201"
       transform="matrix(0.96592583,-0.25881905,0.25881905,0.96592583,-235.88988,46.23305)">
      <g
         id="g18511"
         transform="translate(-30.945828,5.758267)">
        <g
           transform="translate(81.650784,10.698421)"
           id="g18305" />
        <g
           id="g18552"
           transform="translate(-8.8507954,7.6990544)">
          <g
             id="g18578">
            <g
               id="g4184"
               transform="matrix(0.96592583,0.25881905,-0.25881905,0.96592583,259.72667,-12.431759)">
              <g
                 id="g5212"
                 transform="translate(34.178611,-11.89996)">
                <g
                   transform="matrix(0.4191967,-0.24202333,0.24202333,0.4191967,-169.68931,613.80762)"
                   id="g4200">
                  <path
                     transform="translate(81.650783,10.698419)"
                     style="fill:#ffb43c;fill-opacity:1;stroke:none;stroke-width:10;stroke-linejoin:miter;stroke-miterlimit:4;stroke-dasharray:none;stroke-dashoffset:0;stroke-opacity:1"
                     d="m 81.731507,932.36215 119.893933,0 c 42.16608,14.5 42.16608,25.5 0,40 l -119.893933,0 c -40.642011,-15.5 -40.642011,-24.5 0,-40 z"
                     id="rect18023"
                     inkscape:connector-curvature="0"
                     sodipodi:nodetypes="ccccc" />
                  <rect
                     style="fill:url(#linearGradient18269);fill-opacity:1;stroke:none;stroke-width:10;stroke-linejoin:miter;stroke-miterlimit:4;stroke-dasharray:none;stroke-dashoffset:0;stroke-opacity:1"
                     id="rect18025"
                     width="84"
                     height="2.5"
                     x="53.25"
                     y="951.11218"
                     transform="translate(81.650783,10.698419)" />
                  <path
                     style="fill:url(#linearGradient18253);fill-opacity:1;stroke:none;stroke-width:10;stroke-linejoin:miter;stroke-miterlimit:4;stroke-dasharray:none;stroke-dashoffset:0;stroke-opacity:1"
                     d="m 134.90078,922.06057 0,-21 84,42 -56,0 z"
                     id="rect18027"
                     inkscape:connector-curvature="0"
                     sodipodi:nodetypes="ccccc" />
                  <path
                     sodipodi:nodetypes="ccccc"
                     inkscape:connector-curvature="0"
                     id="path18030"
                     d="m 134.90033,1004.0605 0,21 84,-41.99993 -56,0 z"
                     style="fill:url(#linearGradient18261);fill-opacity:1;stroke:none;stroke-width:10;stroke-linejoin:miter;stroke-miterlimit:4;stroke-dasharray:none;stroke-dashoffset:0;stroke-opacity:1" />
                  <rect
                     style="fill:url(#linearGradient18066);fill-opacity:1;stroke:none;stroke-width:10;stroke-linejoin:miter;stroke-miterlimit:4;stroke-dasharray:none;stroke-dashoffset:0;stroke-opacity:1"
                     id="rect18032"
                     width="9"
                     height="9"
                     x="44.25"
                     y="-956.86218"
                     transform="matrix(1,0,0,-1,81.650783,10.698419)" />
                  <rect
                     transform="matrix(1,0,0,-1,81.650783,10.698419)"
                     y="-956.86218"
                     x="231.75"
                     height="9"
                     width="9"
                     id="rect18034"
                     style="fill:#ffb43c;fill-opacity:1;stroke:none;stroke-width:10;stroke-linejoin:miter;stroke-miterlimit:4;stroke-dasharray:none;stroke-dashoffset:0;stroke-opacity:1" />
                  <path
                     sodipodi:type="star"
                     style="fill:#323232;fill-opacity:1;stroke:none;stroke-width:10;stroke-linejoin:miter;stroke-miterlimit:4;stroke-dasharray:none;stroke-dashoffset:0;stroke-opacity:1"
                     id="path18036"
                     sodipodi:sides="3"
                     sodipodi:cx="258.85159"
                     sodipodi:cy="962.45862"
                     sodipodi:r1="18.947092"
                     sodipodi:r2="9.473547"
                     sodipodi:arg1="0"
                     sodipodi:arg2="1.0471976"
                     inkscape:flatsided="true"
                     inkscape:rounded="-3.46945e-018"
                     inkscape:randomized="0"
                     d="m 277.79869,962.45862 -28.42064,16.40866 0,-32.81732 z"
                     inkscape:transform-center-x="-2.5000055"
                     transform="matrix(0.52778548,0,0,0.3351888,190.78267,640.45522)" />
                  <text
                     xml:space="preserve"
                     style="font-style:normal;font-weight:normal;font-size:40px;line-height:125%;font-family:sans-serif;letter-spacing:0px;word-spacing:0px;fill:#000000;fill-opacity:1;stroke:none;stroke-width:1px;stroke-linecap:butt;stroke-linejoin:miter;stroke-opacity:1"
                     x="81.731506"
                     y="949.25232"
                     id="text18084"
                     sodipodi:linespacing="125%"
                     transform="translate(81.650783,10.698419)"><tspan
                       sodipodi:role="line"
                       id="tspan18086"
                       x="81.731506"
                       y="949.25232"
                       style="font-style:italic;font-variant:normal;font-weight:normal;font-stretch:normal;font-size:17.5px;font-family:'Gill Sans MT';-inkscape-font-specification:'Gill Sans MT'">F <tspan
   style="font-style:normal;font-size:17.5px"
   id="tspan4198">=</tspan> ma</tspan></text>
                  <g
                     id="g18173"
                     transform="translate(32.633413,64.162701)">
                    <path
                       inkscape:connector-curvature="0"
                       id="path18096"
                       d="m 240.80309,887.89788 a 11,11 0 0 0 -11,11 11,11 0 0 0 11,11 11,11 0 0 0 11,-11 11,11 0 0 0 -11,-11 z m 0,2 a 9,9 0 0 1 9,9 9,9 0 0 1 -9,9 9,9 0 0 1 -9,-9 9,9 0 0 1 9,-9 z"
                       style="fill:#050700;fill-opacity:1;stroke:none;stroke-width:10;stroke-linejoin:miter;stroke-miterlimit:4;stroke-dasharray:none;stroke-dashoffset:0;stroke-opacity:1" />
                    <circle
                       r="9"
                       cy="898.89789"
                       cx="240.80309"
                       id="path18141"
                       style="fill:url(#linearGradient18159);fill-opacity:1;stroke:none;stroke-width:10;stroke-linejoin:miter;stroke-miterlimit:4;stroke-dasharray:none;stroke-dashoffset:0;stroke-opacity:1" />
                  </g>
                </g>
                <ellipse
                   ry="49.750183"
                   rx="49.750187"
                   cy="1012.0605"
                   cx="73.188332"
                   id="path4730"
                   style="fill:url(#linearGradient4738);fill-opacity:0.39215686;stroke:#0000ff;stroke-width:0.49963266;stroke-miterlimit:4;stroke-dasharray:none;stroke-dashoffset:0;stroke-opacity:1" />
                <path
                   inkscape:connector-curvature="0"
                   d="m 123.44116,987.10578 c 0.10905,0.391 0.0799,0.85106 0.32714,1.17299 1.73836,2.26353 0.26289,-2.09755 1.61898,1.80782 0.1567,0.45127 0.2091,0.93373 0.26874,1.4077 0.0323,0.25661 -0.1097,0.54458 0.006,0.77588 0.17878,0.35727 0.54651,0.58288 0.81976,0.87432 2.17881,2.27752 0.19402,-0.37431 0.69607,3.01209 0.057,0.3844 0.53642,0.56748 0.7523,0.89062 0.30075,0.45017 0.62024,0.90488 0.79056,1.41878 0.12984,0.39175 0.0106,0.82972 0.0889,1.23493 0.10409,0.53839 0.30363,1.05389 0.45544,1.58079 0.0718,0.7496 0.14357,1.4991 0.21535,2.2487 0.21966,0.3732 0.55789,0.6986 0.65899,1.1197 0.11501,0.4791 -0.17489,1.0051 -0.0354,1.4776 0.053,0.1796 0.4586,0.018 0.5282,0.1919 0.19384,0.4844 -0.31233,1.7004 -0.43389,2.0661 -0.3823,0.7921 0.6331,1.2187 0.63673,1.8804 -0.29421,0.5149 -0.58109,0.7918 -0.51967,1.4022 0.23977,2.3831 0.80754,1.0304 -0.59507,2.8626 -1.47655,2.4631 -0.0988,-0.141 -1.11043,3.0208 -0.17825,0.5572 -0.52251,1.0505 -0.71319,1.6035 -0.17372,0.5038 -0.2003,1.0508 -0.37553,1.5541 -0.15307,0.4397 -0.59153,0.794 -0.60395,1.2594 -0.015,0.563 0.35167,1.0702 0.5275,1.6053 -1.54053,1.4167 -1.50118,0.6526 -1.21132,1.9497 -2.48394,9.7008 -16.20295,6.188 -13.71901,-3.5128 l 0,0 c 1.69739,-1.4953 1.43007,-0.5925 1.13009,-2.5889 0.51953,-0.827 1.01092,-1.5003 1.29781,-2.4632 0.004,-0.012 0.31542,-2.4165 0.32907,-2.4832 0.0657,-0.3209 0.22447,-0.6192 0.27932,-0.9421 0.0785,-0.462 0.0791,-0.934 0.11867,-1.4009 -2.91211,-2.795 -0.64696,-0.5557 -0.54761,-0.6086 0.22897,-0.1219 0.35279,-0.513 0.23236,-0.7428 -0.2043,-0.3898 -0.91696,-0.3861 -1.04477,-0.8072 -0.16817,-0.5542 1.4812,-0.6104 1.30424,-1.1477 -0.3843,-0.6905 -0.47783,-0.603 -0.3367,-1.4512 0.0719,-0.4319 0.45796,-0.8549 0.32619,-1.2725 -0.078,-0.2471 -0.84542,0.122 -0.76716,-0.1249 0.15859,-0.5005 1.0413,-0.4435 1.24234,-0.9682 -1.80382,-1.3383 -0.1931,0.2391 -0.72526,-1.8217 -0.0819,-0.317 -0.49375,-0.455 -0.63175,-0.7519 -0.19346,-0.4161 -0.22547,-0.8896 -0.3382,-1.3345 0.0553,-0.3451 0.3114,-0.7175 0.1658,-1.0353 -0.17852,-0.38956 -0.6711,-0.53308 -1.00665,-0.79963 -1.79397,-3.35316 0.90064,1.80053 -1.13446,-2.60212 -0.0884,-0.19122 -0.36009,-0.29586 -0.37909,-0.50566 -0.0289,-0.31904 0.35948,-0.62739 0.24922,-0.92817 -0.18865,-0.51462 -1.78368,-1.86249 -2.16198,-2.20239 -4.18773,-9.42239 9.13754,-15.34474 13.32527,-5.92235 z"
                   id="path5006"
                   style="fill:#ffe2af;fill-opacity:0.78431373;stroke:none;stroke-width:0.5;stroke-miterlimit:4;stroke-dasharray:none;stroke-dashoffset:0;stroke-opacity:1" />
                <path
                   inkscape:connector-curvature="0"
                   d="m 105.13196,986.70953 c -0.0442,-0.28712 0.0935,-0.67898 -0.13259,-0.86137 -0.17279,-0.13938 0.0123,0.47919 -0.12406,0.65435 -0.0624,0.0802 -0.16856,-0.11356 -0.25283,-0.17034 0.20933,0.91135 0.13732,1.93805 0.62798,2.73406 0.63906,1.03674 3.31342,3.54621 2.62429,2.54206 -0.98066,-1.42893 -2.34083,-2.5563 -3.51124,-3.83445 -0.1644,-0.15895 -0.52353,-0.25019 -0.49319,-0.47683 0.0433,-0.32323 0.60438,-0.405 0.65442,-0.72725 0.0275,-0.17725 -0.41208,0.005 -0.51993,-0.1387 -0.0924,-0.12285 -0.0803,-0.46976 0.0728,-0.45547 0.20854,0.0195 0.27366,0.31946 0.38313,0.49802 0.0461,0.0752 -0.12701,-0.12257 -0.19051,-0.18386 -0.13139,-0.23713 -1.05207,-1.49001 0.22362,-0.55096 0.0993,0.0731 0.25572,0.36627 0.13428,0.34476 -0.38023,-0.0673 -0.6698,-0.40379 -1.0423,-0.50554 -0.27384,-0.0748 0.95624,0.60582 0.73927,0.42276 -0.3127,-0.26382 -0.68651,-0.44523 -1.02977,-0.66785 -0.42812,-0.5872 -0.25696,-1.50781 -0.7499,-2.03782 -0.14646,-0.15747 -0.43284,0.13893 -0.5678,0.30637 -0.0574,0.0713 0.19142,0.30632 0.12297,0.24555 -0.89958,-0.79869 -0.64293,-0.73547 -0.87597,-2.04375 0.0429,0.14199 0.25328,0.50633 0.12861,0.42597 -1.2271,-0.79103 0.1953,-0.51072 -0.54464,-1.58219 -0.16203,-0.23464 -0.52699,-0.21843 -0.79471,-0.31657 -1.145051,-0.41975 -0.794465,0.0537 -0.913038,-1.27912 -0.190879,0.0902 -0.37687,0.34977 -0.572638,0.2707 -0.325494,-0.13146 -0.442524,-0.54851 -0.701621,-0.78536 -0.130199,-0.11902 -0.321115,-0.15573 -0.454343,-0.27135 -0.137821,-0.1196 -0.252265,-0.26754 -0.346612,-0.42374 -0.01702,-0.0282 0.06096,-0.0723 0.03485,-0.0924 -0.244666,-0.18795 -0.525157,-0.32397 -0.787735,-0.48595 -2.045228,-1.02589 -1.04423,-0.52631 -3.002733,-1.49927 -8.247993,-8.23581 3.399191,-19.90023 11.64719,-11.66443 l 0,0 c -0.97696,0.39214 -0.95444,0.71292 -0.93168,0.25029 1.02009,0.18598 1.24129,0.112 2.16556,1.06755 0.28771,0.29745 0.27767,0.82381 0.59473,1.08975 0.31885,0.26744 0.85513,0.14377 1.1824,0.40085 2.44149,1.91778 -2.96392,-0.30932 1.82535,1.32079 0.14366,0.24543 0.35172,0.46318 0.43098,0.73629 0.11101,0.38255 -0.20224,0.96469 0.12749,1.18817 0.41959,0.28437 1.02083,-0.16646 1.51889,-0.0724 2.03134,0.38377 -0.34309,2.16356 2.15922,2.50465 0.0481,0.0268 0.0897,0.0727 0.14418,0.0804 0.13886,0.0196 0.33017,-0.10765 0.42071,-5.6e-4 0.28374,0.33557 0.24755,0.89644 0.57989,1.18395 1.64821,1.42594 1.253,-0.0873 0.60295,-0.16107 -0.13239,-0.015 -0.0682,0.25761 -0.10225,0.38642 -0.22261,0.0174 -0.74978,-0.15539 -0.66782,0.0523 0.19632,0.49752 0.75714,0.75564 1.13572,1.13346 0.0664,-0.0867 0.1084,-0.32077 0.19912,-0.26003 0.39498,0.26444 0.59681,0.75139 0.97156,1.0438 0.44335,0.34592 0.9976,0.52616 1.45672,0.85088 0.09,0.0637 -0.21783,-0.0344 -0.32674,-0.0517 0.22025,1.67256 -0.3165,-1.84753 0.85107,1.5964 0.0748,0.22077 -0.2069,0.44517 -0.17756,0.67643 0.0256,0.20192 0.47841,0.60583 0.70532,0.60326 0.0873,-10e-4 0.11346,-0.13272 0.17019,-0.19908 -1.0799,-1.12668 -2.78899,-1.88589 -3.23972,-3.38003 -0.38193,-1.26609 2.2636,1.49651 3.00241,2.59334 0.58851,0.87371 0.5206,2.0417 0.80322,3.05651 0.0387,0.13897 0.15671,0.25789 0.15998,0.40211 0.0633,2.78684 -0.29748,0.84502 0.0133,2.29423 1.57185,11.00294 -13.98865,13.22586 -15.56049,2.22293 z"
                   id="path5008"
                   style="fill:#ffe2af;fill-opacity:0.78431373;stroke:none;stroke-width:0.5;stroke-miterlimit:4;stroke-dasharray:none;stroke-dashoffset:0;stroke-opacity:1" />
                <path
                   inkscape:connector-curvature="0"
                   d="m 97.409317,980.33595 c -0.531597,-0.51052 -0.812497,-1.08405 -1.651314,-1.04281 -0.308308,0.0152 -0.580493,0.24497 -0.888811,0.25994 -0.07353,0.004 0.09229,-0.17504 0.0328,-0.2184 -0.300887,-0.21933 -0.66935,-0.32638 -1.004026,-0.48957 -0.138788,-0.16214 -0.221926,-0.39841 -0.416364,-0.48641 -0.516782,-1.4426 -0.872323,0.19197 -1.26298,0.0346 -0.367897,-0.14818 -0.652766,-0.45085 -0.973092,-0.68472 -0.157027,-0.11464 -0.275875,-0.42715 -0.458522,-0.3605 -0.162693,0.0594 0.01611,0.34599 0.02416,0.51899 -0.759255,0.7628 0.182021,0.0375 -0.838995,-0.25358 -0.601097,-0.17138 -1.271291,0.0759 -1.872791,-0.0941 -3.639436,-1.02836 -0.73105,-0.29835 -1.73904,-1.38539 -0.220808,-0.23812 -0.532312,-0.37213 -0.798469,-0.55819 0.408614,0.40169 0.817227,0.80338 1.225841,1.20507 -10.659368,-5.51596 -2.858617,-20.59058 7.800751,-15.07462 l 0,0 c 0.551416,0.38889 1.102832,0.77777 1.654247,1.16665 -0.0356,-0.16231 -0.146115,-0.32548 -0.106808,-0.48693 0.01731,-0.0711 0.289743,0.0338 0.216588,0.036 -0.412758,0.0122 -0.825879,-0.002 -1.238803,-0.006 -0.327587,-0.003 -0.681464,-0.1414 -0.982711,-0.0127 -0.52188,0.223 3.956346,0.8878 1.643802,-0.44354 2.921045,1.66989 0.163615,-0.36228 1.471713,2.008 0.07676,0.1391 0.303903,-0.12058 0.462658,-0.1145 1.225189,0.0469 2.056296,0.27496 3.097459,0.84523 0.12617,-0.78153 -0.0756,0.21588 0.6843,1.16935 0.18206,0.22845 0.51495,0.27606 0.77526,0.40862 0.31193,0.15886 0.64645,0.27692 0.94131,0.46557 2.11805,1.3551 -0.48677,0.33108 2.96228,1.32896 8.6724,6.19457 -0.088,18.4592 -8.760447,12.26463 z"
                   id="path5010"
                   style="fill:#ffe2af;fill-opacity:0.78431373;stroke:none;stroke-width:0.5;stroke-miterlimit:4;stroke-dasharray:none;stroke-dashoffset:0;stroke-opacity:1" />
                <path
                   inkscape:connector-curvature="0"
                   d="m 119.72218,992.14918 c 1.36454,2.9391 -0.39152,-1.10574 0.54615,1.96869 1.01988,3.34398 1.93119,0.87133 -0.2689,6.83793 -0.216,0.5858 -1.55261,1.8566 -1.39202,1.2532 0.41552,-1.5611 1.47129,-2.87658 2.20694,-4.3149 -0.0349,-0.57621 -0.0699,-1.15242 -0.10477,-1.72863 0.0521,-0.0846 0.25491,-0.24093 0.15637,-0.25387 -0.11452,-0.015 -0.28751,0.13321 -0.24818,0.24181 0.14199,0.39208 0.74664,0.2685 0.62476,0.82466 -0.0316,0.14415 -0.20724,0.21013 -0.31086,0.31519 1.31398,0.35519 0.51153,0.0463 -0.086,0.27846 -0.0839,0.0326 0.27785,0.0285 0.24537,0.11241 -0.0456,0.11772 -0.37863,0.0286 -0.34733,0.15092 0.0388,0.15161 0.30152,0.0969 0.43262,0.18237 0.0704,0.0459 0.10243,0.13324 0.15364,0.19985 0.0675,0.0665 0.27549,0.1393 0.20238,0.19956 -0.1803,0.1486 -0.59822,-0.031 -0.67477,0.18978 -0.0628,0.18122 0.45875,0.011 0.54591,0.18185 0.0612,0.11987 -0.27179,0.0778 -0.36289,0.17689 -0.0409,0.0445 0.0546,0.1197 0.0369,0.17752 -0.0225,0.0738 -0.0973,0.11989 -0.14587,0.17984 0.003,12.55169 -17.74772,12.55599 -17.75079,0.004 l 0,0 c -0.78388,-0.45761 -0.12678,0.0134 1.00403,-0.36994 0.0918,-0.0311 -0.13605,-0.14414 -0.22355,-0.18572 -0.17438,-0.0829 -0.3809,-0.0885 -0.54991,-0.18185 -0.35366,-0.19526 0.24908,-0.33124 0.26365,-0.33801 -0.0224,-0.0554 -0.0284,-0.12072 -0.0671,-0.16627 -0.0633,-0.0746 -0.27168,-0.0947 -0.22955,-0.18303 0.068,-0.14261 0.44691,-0.0623 0.42084,-0.21809 -0.0308,-0.18419 -0.36446,-0.12456 -0.49971,-0.25334 -0.16239,-0.15464 0.1315,-0.89639 0.52898,-0.41563 -0.227,-0.0124 -0.45416,-0.0522 -0.681,-0.0371 -0.0839,0.006 0.15961,0.0604 0.24353,0.0662 0.17732,0.0123 0.37156,0.0619 0.5331,-0.0122 0.0643,-0.0295 -0.0673,-0.13016 -0.0687,-0.20093 -0.0464,-2.25542 0.57527,2.37022 -0.31351,-2.77529 0.8645,-1.43957 1.95183,-2.76694 2.5935,-4.31871 0.21662,-0.52388 -1.05946,0.60211 -1.2737,1.12697 -0.63711,1.56084 -1.16347,3.22938 -1.19253,4.91499 -0.0148,0.8588 2.22996,1.61685 0.42876,0.83419 -3.15657,-11.04798 12.46764,-15.51204 15.6242,-4.46406 z"
                   id="path5012"
                   style="fill:#ffe2af;fill-opacity:0.78431373;stroke:none;stroke-width:0.5;stroke-miterlimit:4;stroke-dasharray:none;stroke-dashoffset:0;stroke-opacity:1" />
                <path
                   inkscape:connector-curvature="0"
                   d="m 103.15624,995.11574 c 0.0296,-0.43389 0.42159,-1.02165 0.0888,-1.30165 -0.27715,-0.23321 -0.70147,0.31998 -0.8829,0.63349 -0.0837,0.14454 0.42469,0.4904 0.27328,0.41992 -0.25947,-0.12078 -0.39901,-0.41392 -0.62832,-0.58519 -1.37443,-1.0266 -0.35165,0.12588 -1.42031,-1.29131 -1.149445,-0.21823 -1.193554,-1.46505 -2.109521,-2.01486 -0.382033,-0.22932 -0.884846,-0.13126 -1.310759,-0.26215 -0.679231,-0.20874 -1.204197,-0.52092 -1.80826,-0.84995 -0.300714,0.0633 -0.601429,0.12656 -0.902143,0.18984 -9.882121,-4.27392 -3.837895,-18.24935 6.044223,-13.97543 l 0,0 c 0.17695,0.1902 0.3539,0.38041 0.53085,0.57061 0.38172,0.54881 0.58882,1.27577 1.14516,1.64642 0.29425,0.19605 2.25473,-0.0468 2.627,0.0285 0.25549,0.0517 0.44314,0.2747 0.66771,0.40704 0.38023,0.22408 0.74989,0.46869 1.14658,0.66213 0.26504,0.12924 0.55422,0.20158 0.83134,0.30237 0.27545,-0.0309 0.54973,-0.11042 0.82636,-0.0928 0.12256,0.008 0.22097,0.22513 0.32875,0.16628 0.26508,-0.14474 0.35098,-0.84064 0.60386,-0.67551 0.54376,0.35507 0.61891,1.14264 0.95886,1.69597 0.85902,1.39819 0.44275,0.97522 2.23737,0.45438 9.80893,6.53929 0.56098,20.41116 -9.24796,13.87193 z"
                   id="path5014"
                   style="fill:#ffe2af;fill-opacity:0.78431373;stroke:none;stroke-width:0.5;stroke-miterlimit:4;stroke-dasharray:none;stroke-dashoffset:0;stroke-opacity:1" />
                <path
                   inkscape:connector-curvature="0"
                   d="m 109.48485,986.30777 c 0.63598,-0.19235 -0.58038,-0.7878 -0.63758,-0.51966 -0.075,0.35142 0.48296,0.53216 0.72444,0.79823 -0.91239,-2.21483 -1.0986,-4.89722 -2.73718,-6.64451 -1.03312,-1.10166 0.27689,3.02715 0.70353,4.47593 0.11795,0.40057 0.58517,0.59587 0.87775,0.8938 -0.27131,-0.26538 -0.87688,-1.17039 -0.81394,-0.79613 0.097,0.57658 1.48641,1.307 0.93016,1.4871 -0.59943,0.19409 -1.88801,-1.61012 -1.30763,-1.36488 1.00606,0.42512 3.68967,2.25661 2.64717,1.93092 -1.18035,-0.36875 -2.08659,-1.33137 -3.08099,-2.06645 -0.73682,-0.54466 1.53807,0.99626 2.3071,1.49438 -0.63507,-0.64888 -1.26821,-1.29967 -1.90522,-1.94666 -0.0281,-0.0285 -0.12877,-0.089 -0.0898,-0.0797 0.15051,0.036 0.34468,0.0366 0.43499,0.16222 0.0759,0.10562 -0.0753,0.26318 -0.0394,0.38821 0.0134,0.0466 0.1258,0.0154 0.14209,-0.0302 0.0458,-0.12826 0.01,-0.27223 0.0146,-0.40834 -1.36293,-0.17152 0.22809,0.37559 0.16933,0.28276 -0.23299,-0.36805 -0.59814,-0.80629 -1.03369,-0.7995 -0.27186,0.004 -0.12518,0.59126 0.0291,0.81515 0.0831,0.1206 0.19973,-0.27079 0.34618,-0.27052 0.22322,4.2e-4 0.40787,0.18155 0.6118,0.27233 -0.14312,-0.14072 -0.30708,-0.26301 -0.42936,-0.42217 -0.0314,-0.0409 -0.2242,-0.80076 -0.50651,-0.22247 -0.0349,0.0716 0.13017,0.0975 0.20649,0.12041 0.29986,0.09 0.60966,0.14281 0.91407,0.216 0.35722,0.0859 0.71386,0.17416 1.07078,0.26124 -8.52783,0.54833 -9.303293,-11.51185 -0.77546,-12.06019 l 0,0 c 0.89657,0.11537 2.35601,0.23246 3.20794,0.6167 0.1026,0.0463 0.89072,0.84391 1.22707,0.8945 0.76105,0.11446 0.47685,-0.31694 0.66834,0.0378 0.3452,0.11742 0.68499,0.25216 1.03561,0.35226 0.29078,0.083 1.42134,0.0228 0.93137,0.9278 -0.13486,0.24911 -1.06424,-0.38895 -0.79856,-0.29067 1.34975,0.49931 1.31554,0.0255 1.09069,0.88714 0.12447,0.0115 0.26995,-0.0356 0.37341,0.0346 0.13647,0.0925 0.17271,0.2825 0.27947,0.40815 0.14706,0.17309 0.32398,0.31859 0.47903,0.48456 0.17651,0.18895 0.31277,0.41908 0.5153,0.57982 0.0693,0.055 0.17514,0.0251 0.26272,0.0377 -0.67643,-0.52699 -1.35286,-1.05399 -2.02929,-1.58098 5.43315,4.85024 -0.54874,-0.4538 -0.45827,-0.54554 0.80992,-0.82124 1.95376,1.24537 2.81379,2.01397 0.43801,0.39144 -1.93927,-1.29357 -1.53296,-0.86932 0.5423,0.56624 3.00781,1.68327 0.92526,0.70606 0.33454,0.44194 0.84752,0.79398 1.00364,1.32583 0.44626,1.52021 1.90378,5.79065 0.76273,4.69147 -1.69724,-1.63495 -1.82217,-4.34722 -2.68279,-6.54107 -0.1692,-0.4313 0.36857,0.85315 0.60725,1.25025 0.0459,0.0763 -0.0107,-0.17774 -0.016,-0.26661 0.25241,0.22754 0.50482,0.45509 0.75723,0.68263 5.7952,5.79521 -2.40046,13.99086 -8.19566,8.19566 z"
                   id="path5062"
                   style="fill:#ff6400;fill-opacity:0.78431373;stroke:none;stroke-width:0.5;stroke-miterlimit:4;stroke-dasharray:none;stroke-dashoffset:0;stroke-opacity:1" />
                <path
                   inkscape:connector-curvature="0"
                   d="m 120.84199,985.85795 c 0.34339,0.60324 0.23227,0.62038 1.12727,0.83914 0.16173,0.0395 -0.56002,-0.18181 -0.4195,-0.2711 0.16319,-0.10369 0.3569,0.16179 0.54828,0.18927 0.16239,0.0233 0.38012,-0.16141 0.49053,-0.0401 0.32609,0.35834 0.43609,0.86532 0.65413,1.29798 0.008,-0.0488 0.001,-0.19011 0.0246,-0.14649 0.0733,0.13651 0.0718,0.30341 0.13548,0.44465 0.0728,0.16137 0.28267,0.28008 0.27101,0.45671 -0.007,0.10611 -0.2197,-0.0494 -0.29279,-0.12662 -0.32934,-0.34801 -0.55617,-0.93121 -0.75084,-1.34918 0.56129,0.91776 1.12259,1.83551 1.68389,2.75326 -0.0105,-0.29666 -0.22485,-1.11523 -0.0315,-0.88998 0.29267,0.34097 2.4e-4,1.53692 0.37821,1.29391 0.45702,-0.29385 0.34102,-1.12129 0.13575,-1.62437 -0.15122,-0.3706 -1.02581,-0.99666 -1.04203,-0.59673 -0.0338,0.83453 0.6484,1.53945 0.9726,2.30918 -0.0281,0.0357 -0.0519,0.13905 -0.0842,0.10714 -0.20128,-0.19862 -0.38309,-0.42758 -0.50098,-0.6846 -0.13898,-0.30299 -0.38329,-1.27485 -0.25641,-0.9666 0.24211,0.58822 0.17209,1.34302 0.60368,1.8103 0.24924,0.26986 0.83574,-0.21776 1.10146,0.0359 0.18649,0.17803 -0.2214,0.46569 -0.33211,0.69854 0.11964,0.38631 0.26217,0.76625 0.35892,1.15892 -0.14164,1.17755 -0.38794,-1.6812 -0.24568,-1.27309 0.11161,0.32021 0.10181,0.6706 0.16152,1.00441 0.0271,0.15156 0.0436,0.59494 0.0988,0.45121 0.0818,-0.21291 -0.006,-0.45612 -0.009,-0.68418 -0.0879,0.48372 -0.0513,0.0923 0.77419,0.88981 4.0253,7.74736 -6.93104,13.43996 -10.95635,5.69264 l 0,0 c 0.66885,0.69659 0.42082,0.71078 0.6586,-0.34895 -0.19192,-0.38115 -0.33119,-0.79374 -0.57574,-1.14345 -0.48115,-0.68805 -0.30092,0.28335 -0.5743,0.26958 -0.55318,-0.0279 -1.549,-1.06425 -1.1268,-1.69737 0.1767,-0.26498 0.4153,0.48299 0.62296,0.72448 -0.0134,0.006 -0.0438,0.003 -0.0403,0.0177 0.008,0.0322 0.043,0.0504 0.0632,0.0765 0.2651,0.34189 0.82828,1.45876 0.79287,1.02758 -0.0139,-0.1697 -1.41492,-2.05078 -1.55018,-2.26178 -0.0679,-0.1059 -0.0971,-0.23212 -0.14559,-0.34818 0.36697,0.5456 1.1309,0.97994 1.10092,1.63679 -0.0214,0.46868 -0.84271,-0.4638 -1.13782,-0.82853 -0.34085,-0.42127 -0.4325,-0.99748 -0.71419,-1.4604 -0.20607,-0.33866 0.0961,1.15693 0.48602,1.08541 0.38196,-0.0701 -0.0406,-0.77559 -0.0609,-1.16339 0.50192,0.8414 1.00384,1.68281 1.50575,2.52421 -1.66636,-3.30006 0.7955,1.17478 -1.52449,-1.75539 -0.16932,-0.21385 -0.11856,-0.53292 -0.19565,-0.79457 -0.006,-0.0206 -0.049,-0.0189 -0.0503,-0.0403 -0.002,-0.0318 0.0283,-0.0572 0.0424,-0.0858 -0.0983,-0.13755 -0.19654,-0.27511 -0.29481,-0.41267 0.11883,0.35568 0.22508,0.71581 0.35648,1.06704 0.005,0.0129 0.0199,-0.0239 0.0337,-0.0241 0.0471,-7.6e-4 0.15075,0.0671 0.13968,0.0213 -0.0977,-0.40404 -0.27909,-0.78314 -0.41863,-1.17471 0.0247,-0.0691 0.0863,-0.13489 0.074,-0.2072 -0.0402,-0.23662 -0.15034,-0.45587 -0.22551,-0.6838 -4.80828,-5.76994 3.35165,-12.56989 8.15993,-6.79994 z"
                   id="path5064"
                   style="fill:#ff6400;fill-opacity:0.78431373;stroke:none;stroke-width:0.5;stroke-miterlimit:4;stroke-dasharray:none;stroke-dashoffset:0;stroke-opacity:1" />
                <path
                   inkscape:connector-curvature="0"
                   d="m 112.08071,983.08613 c 0.0326,-0.28046 0.16097,-0.56618 0.0979,-0.84139 -0.06,-0.26151 -0.29232,-0.45007 -0.44468,-0.67091 -0.11545,-0.16734 -0.24229,-0.3266 -0.35858,-0.49336 -0.096,-0.13762 -0.1652,-0.29541 -0.27807,-0.41956 -0.0959,-0.10545 -0.22956,-0.1692 -0.33957,-0.2598 -0.20533,-0.16909 -0.4041,-0.34601 -0.60614,-0.51901 -0.27801,-0.68516 -0.29785,-1.07376 -0.94942,-1.48405 -0.31978,-0.20137 -0.77702,-0.17606 -1.04288,-0.44463 -0.22582,-0.22812 -0.0996,-0.66536 -0.30231,-0.91429 -0.19303,-0.23712 -0.53532,-0.29561 -0.80298,-0.44341 -0.19848,-0.28907 -0.39697,-0.57815 -0.59546,-0.86722 -1.0729,-1.51643 -0.15569,-0.47326 -1.55606,-1.50592 -0.282,-0.20796 -0.52275,-0.46761 -0.79993,-0.68194 -0.28823,-0.22289 -0.60732,-0.40402 -0.89446,-0.62831 -0.26783,-0.2092 -0.4411,-0.57803 -0.76816,-0.67039 -0.35164,-0.0993 -0.72421,0.0978 -1.08631,0.14674 -3.442334,-1.84849 -0.82818,-6.71667 2.61415,-4.86819 l 0,0 c 0.32556,0.20694 0.65571,0.40681 0.97667,0.6208 0.3903,0.2602 0.74813,0.57104 1.1567,0.8015 0.34658,0.19549 0.74507,0.2849 1.09735,0.46993 0.38063,0.19991 0.75187,0.42255 1.09503,0.68156 0.48885,0.36897 1.23922,1.18669 1.66344,1.6295 0.35122,0.16867 0.70078,0.34085 1.05368,0.506 0.34307,0.16054 0.73637,0.23687 1.03411,0.471 0.25656,0.20175 0.34973,0.55608 0.5738,0.79339 0.19429,0.20576 0.48185,0.31045 0.66896,0.52277 1.23361,1.39985 -0.18253,0.5009 1.41493,1.31431 2.00481,1.32574 -0.73701,-0.66649 1.07488,1.38377 0.23872,0.27013 0.69555,0.28242 0.92488,0.56057 0.20968,0.25433 0.17989,0.63627 0.31115,0.93862 0.50215,1.15677 0.35874,0.81596 1.62973,1.2262 2.57791,4.64025 -3.98439,8.28597 -6.56231,3.64572 z"
                   id="path5106"
                   style="fill:#ff6400;fill-opacity:0.78431373;stroke:none;stroke-width:0.5;stroke-miterlimit:4;stroke-dasharray:none;stroke-dashoffset:0;stroke-opacity:1" />
                <path
                   inkscape:connector-curvature="0"
                   d="m 113.48888,987.67123 c -0.13075,-0.36162 -0.0498,-0.49977 -0.49229,-0.46239 -0.12225,0.0103 -0.22556,0.13125 -0.34777,0.12047 -0.0541,-0.005 -0.0731,-0.20425 -0.0491,-0.15549 0.3568,0.72493 0.4145,1.06345 0.17209,0.15236 0.11363,0.021 0.42098,0.14635 0.34091,0.063 -0.13527,-0.14074 -0.36944,-0.14042 -0.52658,-0.25622 -0.25751,-0.18977 -0.47068,-0.4333 -0.70483,-0.65123 -0.0923,-0.086 -0.17118,-0.18819 -0.27463,-0.26039 -0.14712,-0.10269 -0.4135,-0.0903 -0.4712,-0.26016 -0.0558,-0.16441 0.14866,-0.31383 0.22298,-0.47074 -0.0381,0.17863 -0.006,0.3889 -0.11433,0.53588 -0.0478,0.0647 -0.085,-0.13668 -0.13198,-0.20199 -0.10545,-0.14666 -0.17299,-0.33607 -0.32502,-0.43361 -0.13778,-0.0884 -0.38107,0.0423 -0.48365,-0.0852 -0.0872,-0.10844 0.38271,-0.78726 -0.0595,-0.0984 -5.21242,-1.38773 -3.24987,-8.75921 1.96254,-7.37148 l 0,0 c 0.43785,0.39359 0.87499,0.85679 1.45325,1.05651 0.19693,0.068 0.41856,-0.0266 0.62503,10e-4 0.12841,0.0173 0.23605,0.12719 0.36552,0.13229 0.2869,0.0113 0.59428,-0.19941 0.85725,-0.0841 0.31506,0.1381 0.4625,0.50933 0.69375,0.764 0.0337,0.25119 -0.0664,0.5634 0.10112,0.75356 0.10399,0.11802 0.29881,-0.12481 0.45606,-0.12116 0.12367,0.003 0.23332,0.19534 0.3438,0.1397 0.0841,-0.0424 -0.10853,-0.15391 -0.1628,-0.23086 -0.002,-10e-6 -0.004,-10e-6 -0.006,-10e-6 0.22138,0.19186 0.44276,0.38371 0.66414,0.57557 0.65138,-0.89682 -0.1154,-0.10822 0.88494,0.46903 0.1551,0.0895 0.38217,-0.42065 0.46812,-0.26355 0.10043,0.18355 -0.27527,0.33735 -0.3154,0.5427 -0.0475,0.24285 0.5907,0.3588 0.25899,0.69569 3.82192,3.82192 -1.58309,9.22693 -5.40502,5.40501 z"
                   id="path5108"
                   style="fill:#ff6400;fill-opacity:0.78431373;stroke:none;stroke-width:0.5;stroke-miterlimit:4;stroke-dasharray:none;stroke-dashoffset:0;stroke-opacity:1" />
                <path
                   inkscape:connector-curvature="0"
                   d="m 121.40513,985.41762 c -0.13364,1.09664 -0.14366,0.36429 0.14274,1.47188 0.0377,0.14586 -0.0134,0.32584 0.0787,0.44508 0.10148,0.13142 0.36328,0.0833 0.44217,0.22938 0.37478,0.69407 0.22149,0.80707 -0.0227,1.31406 0.0266,0.22127 0.008,0.45269 0.0797,0.6638 0.0726,0.21464 0.27313,0.37126 0.34325,0.58673 0.1744,0.53594 0.0344,1.17819 0.10259,1.7141 0.033,0.25921 0.13879,0.50383 0.20819,0.75575 0.0344,0.31155 0.0688,0.62311 0.10319,0.93466 -0.20657,1.23591 -0.31815,1.36372 -0.17592,2.60746 0.0474,0.41482 0.16586,0.81845 0.2426,1.22887 0.0714,0.38208 0.12983,0.76652 0.20191,1.14848 0.077,0.4078 0.21911,0.80643 0.24521,1.22061 0.0289,0.45802 -0.0545,0.91612 -0.0817,1.37422 -0.15596,0.748 0.61095,1.3172 0.61166,2.0211 4e-4,0.3947 -0.22275,0.7573 -0.33412,1.1359 0.0989,3.7185 -5.15982,3.8584 -5.25873,0.1399 l 0,0 c -0.0589,-0.3316 -0.14378,-0.6596 -0.17655,-0.9947 -0.081,-0.8284 -0.003,-1.1696 0.0846,-1.9849 -1.4e-4,-0.3377 -0.0382,-0.6776 -4e-4,-1.0132 0.0479,-0.42528 0.33487,-0.83727 0.25646,-1.25795 -0.0897,-0.48104 -0.62627,-0.79594 -0.72851,-1.27447 -0.0787,-0.36855 0.24834,-0.73342 0.21921,-1.10916 -0.0386,-0.49756 -0.57581,-1.40962 -0.81713,-1.85987 -0.16882,-0.28346 -0.33763,-0.56692 -0.50644,-0.85038 -0.0251,-0.24325 0.0303,-0.50925 -0.0755,-0.72974 -0.0979,-0.20409 -0.36966,-0.27572 -0.4967,-0.46307 -0.94946,-1.40018 0.59832,0.36777 -0.22707,-1.22424 -0.11247,-0.21694 -0.37278,-0.31605 -0.55918,-0.47407 0.035,-0.27431 0.2177,-0.57037 0.10506,-0.82292 -0.34409,-0.77145 -0.68449,1.30968 -0.70469,-0.38036 -0.003,-0.25206 0.26312,-0.45905 0.25747,-0.71107 -0.005,-0.21002 -0.73344,-0.70372 -0.78659,-0.74452 -2.19016,-5.11039 5.03702,-8.20775 7.22718,-3.09736 z"
                   id="path5130"
                   style="fill:#ff6400;fill-opacity:0.78431373;stroke:none;stroke-width:0.5;stroke-miterlimit:4;stroke-dasharray:none;stroke-dashoffset:0;stroke-opacity:1" />
                <path
                   inkscape:connector-curvature="0"
                   d="m 112.62373,989.81967 c -0.18437,-0.36742 -0.20123,-0.88974 -0.55312,-1.10226 -0.19035,-0.11497 -0.5853,0.33952 -0.43635,0.50466 0.51621,0.57234 1.21133,1.10065 1.97543,1.20175 1.4186,0.18771 5.68649,-0.13017 4.27654,-0.37452 -7.5933,-1.31595 -3.59553,1.26962 -5.43857,0.0431 0.22409,0.0375 0.4522,0.0561 0.67226,0.11259 1.50769,0.38727 4.31202,1.72309 -2.84073,-0.94775 -0.0807,-0.0301 -0.21837,-0.24391 -0.13576,-0.2197 0.89902,0.26355 1.76175,0.63799 2.6434,0.95481 0.48221,0.17327 0.96546,0.34364 1.44819,0.51546 -8.80877,0.14208 -9.0097,-12.3154 -0.20093,-12.45748 l 0,0 c 0.5559,0.0941 1.12364,0.1343 1.66771,0.28217 0.95423,0.25934 1.9271,0.50081 2.81497,0.93615 0.13206,0.0648 -0.20908,0.33062 -0.34516,0.27484 -1.17013,-0.47969 -2.25515,-1.14848 -3.34613,-1.78805 -0.39871,-0.23374 0.82426,0.42834 1.26485,0.56793 0.32279,0.10227 0.66968,0.1007 1.00452,0.15105 -0.27767,1.68389 -0.5907,3.97061 -5.01315,-0.0342 -1.1281,-1.02158 3.06228,-0.40946 4.56308,-0.15682 0.84527,0.14229 1.60866,0.69725 2.21953,1.29855 0.22114,0.21767 -0.0495,0.63403 0.0443,0.92983 0.0368,0.11603 0.096,-0.2237 0.14405,-0.33554 6.81891,4.54593 0.38998,14.18932 -6.42892,9.64339 z"
                   id="path5134"
                   style="fill:#ff6400;fill-opacity:0.78431373;stroke:none;stroke-width:0.5;stroke-miterlimit:4;stroke-dasharray:none;stroke-dashoffset:0;stroke-opacity:1" />
                <path
                   inkscape:connector-curvature="0"
                   d="m 115.79971,987.51486 c -0.0391,-0.0968 -0.0275,-0.23702 -0.11719,-0.29035 -0.39407,-0.23426 -0.16722,0.1402 -0.2488,0.1864 -0.0848,0.0481 -0.18851,0.0793 -0.28503,0.0656 -0.0644,-0.009 -0.15917,-0.063 -0.14812,-0.12707 0.0216,-0.12558 0.14898,-0.20679 0.22347,-0.31018 -0.32075,-0.5617 -0.59186,0.0765 -1.05767,-0.23424 -0.11958,-0.0798 -0.13116,-0.28364 -0.26244,-0.34217 -0.79282,-0.35345 -0.3183,0.5063 -0.66744,-0.458 -0.1396,-0.15528 -0.23136,-0.37384 -0.41881,-0.46583 -0.16792,-0.0824 -0.38238,0.0406 -0.56096,-0.015 -0.0829,-0.0258 -1.33979,-0.77649 -1.35295,-0.783 -0.78086,-0.38639 -0.66,-0.28994 -1.51918,-0.30049 -0.7296,-0.15477 -1.31439,-0.7224 -2.03582,-0.88971 -0.4011,-0.093 -0.82304,-0.0276 -1.23468,-0.0366 -0.38768,-0.009 -0.78895,-0.11721 -1.16322,-0.0158 -0.31198,0.0846 -0.53338,0.36529 -0.80008,0.54794 -2.47438,-0.10427 -2.32692,-3.60358 0.14746,-3.49931 l 0,0 c 0.27727,0.23878 0.48403,0.60258 0.83181,0.71634 0.38308,0.12531 0.80533,-0.0621 1.20817,-0.0491 0.40963,0.0133 0.81352,0.10789 1.22288,0.12788 1.41795,0.0693 1.07457,0.0462 2.40901,-0.42274 0.44997,0.15152 1.25782,0.44964 1.73583,0.50641 1.60964,0.19116 -0.03,-0.21909 1.61922,-0.0961 2.40502,0.17929 -0.9245,0.27533 1.42062,0.15656 1.67313,0.72637 -0.31748,0.0474 1.15734,0.0296 0.12599,-0.002 0.18885,0.16944 0.29763,0.23303 0.12376,0.0724 0.48916,0.197 0.64089,0.20366 0.10657,0.005 0.21131,-0.0294 0.31696,-0.0442 0.18511,0.0801 0.36922,0.16259 0.55533,0.24037 0.0699,0.0292 0.13892,0.063 0.21264,0.0806 0.0327,0.008 0.0743,-0.0265 0.10073,-0.006 1.3436,1.06062 -0.84681,-0.52582 0.50261,0.72968 0.1079,0.10039 0.27356,0.10978 0.41034,0.16467 3.109,2.22071 -0.0316,6.61749 -3.14055,4.39678 z"
                   id="path5142"
                   style="fill:#ff6400;fill-opacity:0.78431373;stroke:none;stroke-width:0.5;stroke-miterlimit:4;stroke-dasharray:none;stroke-dashoffset:0;stroke-opacity:1" />
                <path
                   inkscape:connector-curvature="0"
                   d="m 116.4396,990.17053 c -0.99033,-0.48076 0.0628,-0.0783 -0.97134,-0.1534 -0.95263,-0.0691 0.098,-0.0846 -0.36538,-0.29774 -0.57628,-0.26506 -0.45305,0.0807 -0.52578,-0.1575 -0.0693,0.015 -0.137,0.0418 -0.2078,0.0451 -0.19363,0.009 -0.52772,-0.0447 -0.68622,-0.14055 -0.25108,-0.15189 -0.44252,-0.52986 -0.80599,-0.49853 -0.12468,0.0108 -0.21665,0.12534 -0.32497,0.18801 -0.32946,0.0934 -0.62332,-0.17015 -0.94048,-0.15314 -0.15769,0.009 -0.29743,0.10674 -0.44881,0.15171 -0.19243,0.0572 -0.47227,0.12481 -0.68187,0.14253 -0.0984,0.008 -0.19755,0.004 -0.29632,0.005 -0.21545,-0.0642 -0.88402,-0.26373 -0.90554,-0.26588 -0.17923,-0.0179 -0.35507,0.0967 -0.5344,0.0799 -0.21901,-0.0205 -0.42148,-0.12607 -0.63222,-0.1891 -2.94732,0.28718 -3.35345,-3.88096 -0.40613,-4.16814 l 0,0 c 0.0962,-0.0124 1.22476,-0.15007 1.33476,-0.19416 0.18893,-0.0757 0.31102,-0.27272 0.49781,-0.35355 0.1794,-0.0776 0.38388,-0.074 0.57582,-0.11107 1.08705,0.53069 -0.63499,-0.20666 0.64108,-0.0745 0.18658,0.0193 0.29054,0.26428 0.47403,0.30326 0.4238,0.09 0.93692,-0.39269 1.37249,-0.16821 0.19352,0.0816 0.37144,0.22531 0.58055,0.24482 0.25114,0.0234 0.49638,-0.0923 0.74699,-0.12094 0.15831,-0.0181 0.32221,0.0161 0.47764,-0.0189 0.15827,-0.0357 0.28619,-0.19894 0.44818,-0.18987 0.26506,0.0148 0.37077,0.47537 0.68628,0.40412 0.21323,-0.008 0.43091,0.0206 0.63968,-0.0234 0.0733,-0.0155 0.0969,-0.16509 0.16965,-0.14733 0.18223,0.0445 0.30067,0.2311 0.4734,0.30425 0.0719,0.0304 0.17745,-0.0583 0.23413,-0.005 0.0643,0.0609 -0.007,0.18702 0.0387,0.26298 0.0183,0.0304 0.0686,-0.0182 0.10283,-0.0272 3.76581,0.53798 3.005,5.86363 -0.76081,5.32566 z"
                   id="path5146"
                   style="fill:#ff6400;fill-opacity:0.78431373;stroke:none;stroke-width:0.5;stroke-miterlimit:4;stroke-dasharray:none;stroke-dashoffset:0;stroke-opacity:1" />
                <path
                   inkscape:connector-curvature="0"
                   d="m 116.0371,989.22071 c -0.0524,0.0607 -0.14166,0.10346 -0.15732,0.18214 -0.0101,0.0508 0.0452,0.12524 0.0969,0.12147 0.0428,-0.003 0.004,-0.0858 9.7e-4,-0.12861 -0.008,-0.11887 -0.057,-0.23882 -0.0343,-0.35578 0.011,-0.0566 0.0442,0.10674 0.0729,0.15668 0.0477,0.0829 0.1038,0.16055 0.1557,0.24082 -0.25777,0.64893 -0.0519,-0.033 -0.0509,0.44522 -0.0245,0.0527 -0.0733,0.13418 -0.0717,0.20042 0.01,0.39989 0.21215,0.8341 0.0484,1.19906 -0.0804,0.17928 -0.25785,-0.29657 -0.38678,-0.44486 0.0115,0.16899 0.0614,0.33972 0.0346,0.50699 -0.009,0.0535 -0.1025,0.0501 -0.13109,0.0962 -0.0879,0.14151 -0.0978,0.3456 -0.16108,0.49721 -0.0461,0.11044 -0.23891,0.48898 -0.3198,0.64896 -0.0836,0.12538 -0.20828,0.23158 -0.25089,0.37614 -0.0535,0.18166 0.0351,0.38868 -0.0272,0.5675 -0.0743,0.21293 -0.25184,0.37438 -0.36861,0.56732 -0.2946,0.48676 0.0345,0.10072 -0.4102,0.5507 -1.87061,3.17003 -6.35372,0.52459 -4.48311,-2.64544 l 0,0 c 0.4037,-0.28167 0.0854,0.0302 0.15653,-0.60198 0.004,-0.0348 0.062,0.0388 0.097,0.0401 0.0971,0.004 0.25064,0.0633 0.29044,-0.0254 0.049,-0.1092 -0.0857,-0.22353 -0.12856,-0.3353 0.0498,-0.1383 0.0996,-0.27659 0.14936,-0.41489 -0.0746,-0.0782 -0.22508,-0.12669 -0.22366,-0.23476 10e-4,-0.11582 0.16217,-0.16657 0.23018,-0.26034 0.12875,-0.17755 0.19974,-0.36895 0.0589,-0.59228 -0.0318,-0.0503 -0.053,0.10657 -0.0796,0.15985 0.0473,-0.20608 0.12586,-0.82908 0.1418,-0.61825 0.0231,0.3049 0.0316,0.64382 -0.11978,0.90947 -0.0575,0.10079 -0.29023,-0.0288 -0.31801,-0.14141 -0.0221,-0.0896 0.18529,-0.0421 0.25907,-0.0975 0.0208,-0.0156 -0.0334,-0.19192 -0.072,-0.0297 0.002,0.0333 0.032,0.078 0.007,0.1 -0.0458,0.04 -0.19008,0.10693 -0.17614,0.0477 0.0448,-0.19033 0.21168,-0.33135 0.28548,-0.5124 0.0402,-0.0987 0.0113,-0.21698 0.052,-0.31548 0.23833,-0.57679 0.25457,0.0347 0.12653,-0.67482 0.5765,-4.0355 6.28357,-3.22021 5.70707,0.8153 z"
                   id="path5148"
                   style="fill:#ff6400;fill-opacity:0.78431373;stroke:none;stroke-width:0.5;stroke-miterlimit:4;stroke-dasharray:none;stroke-dashoffset:0;stroke-opacity:1" />
                <path
                   inkscape:connector-curvature="0"
                   d="m 121.25108,988.74312 c -0.19247,0.14068 -0.43315,0.23223 -0.57742,0.42203 -0.10499,0.13812 -0.0842,0.33661 -0.12704,0.50474 -0.0414,0.16291 -0.0709,0.32946 -0.12567,0.48839 -0.0715,0.20757 -0.21472,0.39211 -0.25233,0.60843 -0.0306,0.17606 0.0988,0.36047 0.0538,0.53341 -0.0519,0.19934 -0.21922,0.34879 -0.32883,0.52319 -0.069,0.20509 -0.15428,0.40541 -0.20708,0.61526 -0.0633,0.25159 -0.074,0.51471 -0.14029,0.76553 -0.20721,0.78435 -0.31261,0.77026 -0.66737,1.54144 -0.65619,1.42649 0.12394,0.0121 -0.75665,1.51101 -0.17153,0.24403 -0.3929,0.45975 -0.51459,0.73207 -0.11137,0.24923 -0.10905,0.53502 -0.17047,0.801 -0.0594,0.25706 -0.0843,0.52695 -0.19179,0.76789 -0.19655,0.44058 -0.68188,0.99222 -0.95316,1.40012 -0.12728,0.19137 -0.23482,0.39517 -0.35223,0.59277 -1.68641,2.3949 -5.07325,0.01 -3.38684,-2.38495 l 0,0 c 1.18374,-0.56805 -0.0258,0.16376 0.76857,-0.86309 0.13382,-0.173 0.39946,-0.20953 0.53287,-0.38285 0.15424,-0.20036 0.1775,-0.47534 0.29859,-0.6973 0.24957,-0.45743 0.62486,-0.83949 0.82872,-1.32549 0.13092,-2.15551 -0.13491,0.48916 0.38569,-1.46199 0.0617,-0.23119 0.009,-0.47898 0.0321,-0.71711 0.0568,-0.57862 0.24529,-1.13556 0.30638,-1.71362 6.9e-4,-0.37102 -0.0218,-0.71322 0.0657,-1.07788 0.0371,-0.15459 0.14403,-0.28968 0.16585,-0.44715 0.0952,-0.68681 -0.0659,-0.46857 -0.22545,-1.07714 -0.0299,-0.11423 -0.0137,-0.23577 -0.0206,-0.35366 0.49141,-3.93122 6.051,-3.23627 5.5596,0.69495 z"
                   id="path5156"
                   style="fill:#ff6400;fill-opacity:0.78431373;stroke:none;stroke-width:0.5;stroke-miterlimit:4;stroke-dasharray:none;stroke-dashoffset:0;stroke-opacity:1" />
                <path
                   inkscape:connector-curvature="0"
                   d="m 114.84663,983.07747 c 0.006,-0.12669 0.1206,-0.3074 0.0167,-0.38009 -0.0881,-0.0616 -0.13952,0.1746 -0.15949,0.2802 -0.0336,0.17784 -0.11816,0.40927 0.004,0.54298 0.60226,0.6601 1.59047,0.95605 2.0584,1.71729 0.39015,0.6347 -1.25149,-0.81835 -1.80936,-1.31215 -0.24979,-0.22109 -0.39198,-0.53987 -0.58796,-0.80981 0.15249,0.0289 0.40972,0.14522 0.37741,-0.29786 -0.0344,-0.47097 -0.39636,0.0727 -0.21462,-0.14424 0.0193,-0.023 0.036,-0.0481 0.054,-0.0722 -0.09,9.6e-4 -0.21934,0.0773 -0.27006,0.003 -0.0603,-0.0884 0.0856,-0.21308 0.0565,-0.31607 -0.0341,-0.12053 -0.28913,-0.17612 -0.37258,-0.23209 -0.62716,-0.42059 -0.19574,-0.32881 -0.84974,-0.34625 -0.061,-0.16523 -0.0613,-0.3683 -0.18294,-0.49568 -0.0591,-0.0619 -0.16871,0.045 -0.25405,0.038 -0.10706,-0.009 -0.20738,-0.0561 -0.31107,-0.0841 -3.22615,-2.22678 -0.077,-6.78925 3.14915,-4.56246 l 0,0 c -0.0153,0.12712 -0.0994,0.26503 -0.0459,0.38135 0.16678,0.36261 0.44319,0.35562 0.75423,0.42161 0.67386,1.11063 -0.24299,-0.11124 0.60787,0.18837 0.18455,0.065 0.22133,0.32746 0.36702,0.45806 0.11665,0.10458 0.28031,0.14299 0.4067,0.23554 0.80322,0.58813 -0.0477,0.12151 0.70617,0.50155 0.18835,0.13019 0.63923,0.41285 0.7499,0.61736 0.052,0.0961 -0.0366,0.22354 -0.004,0.32781 0.0361,0.11511 0.1258,0.20661 0.20099,0.30094 0.21025,0.26379 0.47404,0.48203 0.67168,0.75694 -0.087,-0.18739 -0.10572,-0.426 -0.2611,-0.5622 -0.51712,-0.45325 -2.21757,-1.61964 -1.70508,-1.16116 0.6999,0.62614 1.6373,0.97422 2.27091,1.66737 0.16707,0.18276 -0.0688,0.49187 -0.0708,0.73948 -0.002,0.2073 0.0355,0.41317 0.0602,0.61901 0.008,0.0677 0.0254,0.13396 0.0382,0.20095 0.55064,3.85447 -4.90041,4.63319 -5.45105,0.77872 z"
                   id="path5164"
                   style="fill:#ff0000;fill-opacity:0.78431373;stroke:none;stroke-width:0.5;stroke-miterlimit:4;stroke-dasharray:none;stroke-dashoffset:0;stroke-opacity:1" />
                <path
                   inkscape:connector-curvature="0"
                   d="m 115.69915,985.01366 c -0.10698,-0.16345 -0.13933,-0.41843 -0.32096,-0.49036 -0.11052,-0.0438 -0.11233,0.2626 -0.23085,0.27182 -0.0975,0.008 -0.24585,-0.29905 -0.16731,-0.24085 0.17276,0.12803 0.62543,0.58895 0.45687,0.45544 -0.42606,-0.33748 -0.73371,-0.85032 -1.23134,-1.06889 -0.48507,-0.21305 0.79454,0.70101 1.1918,1.05152 -1.13816,-1.16334 0.29665,0.45457 -0.49803,-0.54559 -0.0488,-0.0613 -0.0898,-0.14276 -0.16382,-0.16859 -0.0414,-0.0144 -0.0727,0.0489 -0.10907,0.0733 -0.11768,-0.0813 -0.23535,-0.16256 -0.35303,-0.24383 0.0528,-0.0931 0.18371,-0.30708 0.14267,-0.38588 -0.0472,-0.0906 -0.19407,-0.0643 -0.28904,-0.10191 -0.37825,-0.14986 0.18314,-0.0602 -0.69264,-0.0791 -3.48104,-2.01009 -0.63834,-6.93302 2.8427,-4.92293 l 0,0 c -0.17979,0.45829 -0.0248,-0.10076 0.48011,0.15468 0.11113,0.0562 -0.006,0.2955 0.10115,0.35966 0.15901,0.0956 0.37032,0.0233 0.55549,0.035 0.11737,0.0946 0.23475,0.18918 0.35212,0.28377 0.0592,-0.24002 -0.0245,-0.0397 0.31168,0.0875 0.0598,0.0226 0.12789,-0.0157 0.19156,-0.01 0.0381,0.004 -0.13413,-0.0152 -0.11347,0.017 0.0644,0.10043 0.24171,0.34676 0.27297,0.2316 0.0392,-0.14439 -0.15429,-0.25639 -0.23144,-0.38458 1.8084,1.27366 1.86335,1.27649 -0.003,0.10214 -0.21911,-0.13788 0.46391,0.24144 0.65763,0.41317 0.0321,0.0285 -0.10306,0.0383 -0.10008,0.0811 0.0274,0.39446 0.26305,0.28237 0.0593,0.35662 3.30084,2.20056 0.18878,6.86865 -3.11206,4.66809 z"
                   id="path5166"
                   style="fill:#ff0000;fill-opacity:0.78431373;stroke:none;stroke-width:0.5;stroke-miterlimit:4;stroke-dasharray:none;stroke-dashoffset:0;stroke-opacity:1" />
                <path
                   inkscape:connector-curvature="0"
                   d="m 121.05985,983.78632 c 0.13182,0.0713 -0.12908,0.33881 -0.0199,0.43397 0.0766,0.0668 0.19693,0.0506 0.29412,0.0804 0.0574,0.0176 0.0317,0.0217 0.0742,0.0402 0.0306,0.0133 0.0622,0.0241 0.0933,0.0362 -4.03043,5.31533 -1.22114,2.63156 -0.93026,1.96712 0.15111,-0.34516 0.21616,-0.7224 0.34613,-1.07607 0.0865,-0.23548 0.25643,-0.44254 0.30258,-0.68914 0.0176,-0.0939 -0.11262,-0.35241 -0.12538,-0.25773 -0.0641,0.47605 -0.0227,0.96044 -0.034,1.44066 -0.4413,0.0341 -0.55839,0.83064 -1.00049,0.98213 -0.15152,0.0519 -0.36759,-0.0606 -0.47723,0.0562 -0.0875,0.0932 0.047,0.25127 0.0705,0.3769 -2.22963,3.05225 -6.54615,-0.10092 -4.31653,-3.15316 l 0,0 c 0.0701,-0.10305 0.19254,-0.18579 0.21029,-0.30915 0.0224,-0.15586 -0.0854,-0.30498 -0.0994,-0.46182 -0.005,-0.0549 0.0692,-0.20857 0.0441,-0.15946 -0.10728,0.21005 -0.19457,0.42972 -0.29185,0.64458 -0.0575,0.416 0.0158,0.87261 -0.17249,1.24801 -0.0713,0.14224 -0.23943,-0.24833 -0.24919,-0.40715 -0.0188,-0.30561 0.0455,-0.62265 0.16867,-0.90295 0.17301,-0.39357 0.49256,-0.70638 0.70346,-1.08101 0.32387,-0.57528 1.55433,-4.35454 -0.86424,1.78205 0.0603,-0.012 0.12232,-0.0178 0.18106,-0.0362 0.007,-0.002 -0.021,-0.0148 -0.014,-0.0161 0.0767,-0.0141 0.16009,0.005 0.23256,-0.0241 0.0268,-0.0106 0.012,-0.0592 0.0315,-0.0804 0.30885,-0.33691 0.13801,0.01 0.29573,-0.43397 0,-3.92212 5.54672,-3.92212 5.54672,0 z"
                   id="path5168"
                   style="fill:#ff0000;fill-opacity:0.78431373;stroke:none;stroke-width:0.5;stroke-miterlimit:4;stroke-dasharray:none;stroke-dashoffset:0;stroke-opacity:1" />
                <path
                   inkscape:connector-curvature="0"
                   d="m 120.10064,983.02943 c 0.0587,0.16846 0.0946,0.34666 0.17607,0.50537 0.26797,0.52213 0.33986,-0.0189 0.88957,0.52196 0.99838,0.98227 -0.19618,0.38148 0.43485,1.31015 0.0491,0.0723 0.10038,-0.14305 0.15058,-0.21457 -0.3765,-0.12334 -0.4366,-0.12947 -0.14364,0.62295 0.0918,0.23568 0.36087,0.38964 0.41154,0.63742 0.003,0.0164 -0.29417,1.17475 -0.30354,1.21145 0.0725,-0.11846 0.30259,-0.47542 0.33463,-0.60858 0.009,-0.0393 -0.0158,-0.11033 -0.0561,-0.10741 -0.0927,0.007 -0.24141,0.0367 -0.24683,0.12941 0.28065,0.21969 0.25607,0.0862 0.17313,0.36868 -0.10755,0.4871 -0.15138,0.99451 -0.45644,1.41326 -0.0269,0.0369 -0.12778,-0.0471 -0.13699,-0.002 -0.0302,0.14643 0.0304,0.29746 0.0456,0.44619 -1.45864,3.71884 -6.71788,1.656 -5.25923,-2.06284 l 0,0 c -0.36247,-0.32023 0.50348,0.48529 -0.099,-0.60354 -0.13779,-0.24904 -0.39187,1.53469 -0.17406,0.83593 -0.22473,-0.27491 0.0767,0.15502 0.29249,-0.21161 0.0444,-0.0754 -0.17451,-0.0618 -0.22692,-0.13185 -0.0623,-0.0833 -0.0739,-0.19549 -0.0944,-0.29749 -0.10218,-0.50901 -0.0678,-0.43913 0.0179,-0.93886 -0.0392,0.3037 -0.11411,0.62 -0.0369,0.92805 0.0309,0.12351 0.13315,0.22195 0.16184,0.346 0.0267,0.11528 -0.0756,0.44569 3.1e-4,0.35496 0.15226,-0.18193 0.0785,-0.62233 0.0598,-0.83321 -0.13843,-0.0939 -0.26539,-0.35598 -0.41529,-0.28174 -0.13465,0.0667 -0.004,0.32685 0.0941,0.44083 0.13159,0.15319 0.34613,0.21127 0.53263,0.28875 0.063,0.0262 0.18619,0.0831 0.20387,0.0172 0.0378,-0.14069 0.01,-0.32468 -0.0939,-0.42679 -0.10049,-0.0988 -0.27738,-0.0497 -0.41608,-0.0745 -2.53375,-2.95605 1.64673,-6.53932 4.18048,-3.58327 z"
                   id="path5170"
                   style="fill:#ff0000;fill-opacity:0.78431373;stroke:none;stroke-width:0.5;stroke-miterlimit:4;stroke-dasharray:none;stroke-dashoffset:0;stroke-opacity:1" />
                <path
                   inkscape:connector-curvature="0"
                   d="m 123.1116,986.22938 c -0.4027,0.33089 -0.45546,0.17822 -0.18334,0.5304 0.0437,0.0565 0.0837,0.11902 0.14172,0.16073 0.0676,0.0486 0.16972,0.044 0.22697,0.10447 0.0227,0.024 -0.043,0.0554 -0.0444,0.0884 -0.001,0.026 0.0251,0.0455 0.0376,0.0683 -0.0442,0.0295 -0.11357,0.0388 -0.13261,0.0884 -0.0155,0.0404 0.0477,0.0756 0.0532,0.11854 0.006,0.0463 -0.008,0.0935 -0.0202,0.13862 -0.0131,0.0495 -0.0642,0.0934 -0.0543,0.14365 0.0499,0.2525 0.19868,-0.0293 0.0346,0.20543 -0.0781,0.31229 -0.15629,0.62457 -0.23444,0.93686 0.0137,-0.0481 0.0176,-0.10017 0.041,-0.14435 0.013,-0.0245 0.0808,-0.0313 0.064,-0.0534 -0.0356,-0.0468 -0.14439,-0.13009 -0.16051,-0.0735 -0.0157,0.0552 -0.007,0.444 -0.003,0.66089 -0.039,0.14687 -0.0779,0.29375 -0.11692,0.44062 -0.14412,0.1193 -0.36687,0.18266 -0.43236,0.35792 -0.05,0.13384 0.19128,0.26592 0.1483,0.40219 -0.0635,0.20129 -0.33135,0.2808 -0.42362,0.47063 -0.087,0.1789 -0.0455,0.39619 -0.0918,0.58965 -0.0404,0.16896 -0.11149,0.32907 -0.16724,0.49361 -0.88227,0.89864 0.0315,-0.23936 -0.21264,0.87817 -0.0395,0.18097 -0.26081,0.26967 -0.34862,0.43277 -0.38839,0.25861 -0.11134,0.69303 -0.25201,1.01036 -0.0779,0.17574 -0.22908,0.30876 -0.34362,0.46314 0.0264,0.17552 0.0529,0.35103 0.0793,0.52655 -1.01516,3.17796 -5.50947,1.74231 -4.49431,-1.43565 l 0,0 c 0.0331,-0.15574 0.0662,-0.31148 0.0992,-0.46722 0.0459,-0.12355 0.0849,-0.2499 0.13779,-0.37064 0.0398,-0.0909 0.3524,-0.69531 0.39309,-0.8439 0.0463,-0.16918 0.0378,-0.35017 0.0832,-0.51961 0.43136,-1.61021 0.0244,0.43807 0.31058,-1.12784 0.0309,-0.24275 0.0527,-0.52913 0.13171,-0.76666 0.0382,-0.11476 0.15943,-0.21264 0.1448,-0.33271 -0.0203,-0.16689 -0.21776,-0.27719 -0.23944,-0.44392 -0.0588,-0.45217 0.44719,0.0583 -0.002,-0.31497 -0.50404,-1.26196 -0.0875,-0.10958 0.0766,-0.10338 0.13513,0.005 -0.0689,-0.26175 -0.0942,-0.39459 -0.0291,-0.15279 -0.0581,-0.30634 -0.0688,-0.46152 -0.0126,-0.18317 0.13347,-0.67607 -7.7e-4,-0.55081 -0.18732,0.17481 -0.13555,0.49419 -0.20333,0.74128 -0.002,-0.033 -0.01,-0.0663 -0.005,-0.099 0.006,-0.0371 0.0285,-0.0698 0.0364,-0.10648 0.0102,-0.0472 -0.002,-0.0996 0.0176,-0.14365 0.0239,-0.0536 0.0981,-0.0809 0.10853,-0.13863 0.014,-0.0779 -0.12856,-0.17388 -0.16822,-0.20694 0.0328,-0.0228 0.0781,-0.034 0.0985,-0.0683 0.0889,-0.14925 -0.15617,-0.0361 0.0615,-0.19287 0.0924,-0.0666 0.2668,-0.0523 0.30148,-0.16073 0.0563,-0.17602 -0.45561,-0.28226 -0.16133,-0.5304 0,-4.12327 5.83118,-4.12327 5.83118,0 z"
                   id="path5174"
                   style="fill:#ff0000;fill-opacity:0.78431373;stroke:none;stroke-width:0.5;stroke-miterlimit:4;stroke-dasharray:none;stroke-dashoffset:0;stroke-opacity:1" />
                <path
                   inkscape:connector-curvature="0"
                   d="m 114.91295,984.61784 c 0.0194,-0.0779 0.0338,-0.31012 0.0581,-0.23365 0.17928,0.56314 -0.4964,1.0116 1.03736,0.80386 0.78829,-0.10677 2.99883,-0.51393 2.25234,-0.78881 -1.32244,-0.48694 -2.85138,-0.24319 -4.22726,0.0616 -0.42796,0.0948 0.77396,0.41178 1.16093,0.61767 0.25993,0.75462 0.56158,-0.13121 0.80338,-0.016 0.0555,0.0265 0.0436,0.15013 -0.007,0.1843 -0.0621,0.0415 -0.14752,-0.0251 -0.22201,-0.0309 -0.3645,-0.0281 -0.15214,0.044 -0.42311,-0.0812 -0.0206,0.0305 -0.0328,0.11447 -0.0617,0.0916 -0.0429,-0.0339 -0.0182,-0.10793 -0.0272,-0.1619 -0.0223,0.0849 0.0199,0.2684 -0.0668,0.25459 -0.0983,-0.0157 -0.003,-0.2622 -0.10043,-0.28124 -0.10892,0.28427 -0.018,0.28698 -0.2067,0.17802 -0.0426,-0.0143 -0.091,-0.017 -0.12777,-0.0427 -0.0433,-0.0303 -0.0549,-0.0999 -0.10393,-0.1196 -0.0796,-0.0321 -0.1422,0.0956 -0.18932,0.11528 -0.0778,0.0325 -0.16104,-0.0423 -0.21509,-0.0743 -1.23654,-0.10526 -0.85824,0.19771 -0.74859,-0.30775 0.007,-0.0311 -0.0399,0.0498 -0.0606,0.0739 -0.0703,0.0817 -0.0785,0.0598 -0.17637,0.002 -0.35346,0.10795 -0.19307,0.0386 -0.48547,0.19783 -4.21028,6e-5 -4.21036,-5.95417 -8e-5,-5.95423 l 0,0 c 0.10096,0.19276 0.0542,0.19627 0.14053,10e-4 0.14168,0.0722 0.32052,0.17881 0.48388,0.17423 0.13188,-0.004 0.25056,-0.0998 0.38248,-0.10186 0.11226,-0.002 1.09095,0.33072 1.05582,-0.17711 -0.0143,-0.20655 -0.3954,0.12297 -0.5931,0.18445 0.016,-0.0128 0.16013,-0.15374 0.22108,-0.12413 0.0445,0.0216 0.0457,0.0934 0.0877,0.11953 0.0296,0.0184 0.0717,-0.0119 0.10452,-8e-5 0.18635,0.0669 0.0218,0.2031 0.20952,-0.12516 0.0319,-0.0118 0.0667,-0.0175 0.0957,-0.0353 0.0368,-0.0225 0.0557,-0.0866 0.0988,-0.0837 0.0537,0.004 0.0791,0.0754 0.12742,0.099 0.22499,0.1103 0.27651,-0.16901 0.35318,0.17433 -0.0118,-0.12547 0.0734,-0.31304 -0.0355,-0.37641 -0.0889,-0.0517 -0.0362,0.2426 -0.13251,0.27867 -0.0678,0.0254 -0.17163,-0.15683 -0.10681,-0.18903 0.0659,-0.0328 0.0624,0.19352 0.13379,0.17563 1.08721,-0.27254 -0.60136,-0.69234 1.12306,-0.008 0.44196,0.19903 1.79012,0.45778 1.32587,0.59711 -1.30218,0.39081 -2.77028,0.61835 -4.07234,0.22715 -0.75432,-0.22663 1.45174,-0.66086 2.23021,-0.7806 1.61591,-0.24855 0.76026,0.24508 1.55299,0.71499 0.14019,0.0831 0.32278,0.0452 0.48417,0.0678 3.32265,2.2151 0.19003,6.91403 -3.13262,4.69893 z"
                   id="path5176"
                   style="fill:#ff0000;fill-opacity:0.78431373;stroke:none;stroke-width:0.5;stroke-miterlimit:4;stroke-dasharray:none;stroke-dashoffset:0;stroke-opacity:1" />
                <path
                   inkscape:connector-curvature="0"
                   d="m 115.00038,988.39392 c -0.052,-0.11838 -0.0667,-0.26172 -0.15612,-0.35516 -0.0312,-0.0326 -0.0445,0.0801 -0.0769,0.11167 -0.0509,0.0497 -0.10687,0.0962 -0.16997,0.12911 -0.0722,0.0376 -0.2765,0.0123 -0.23088,0.0798 0.0721,0.10661 0.37393,0.24949 0.36668,0.12098 -0.008,-0.14243 -0.24787,-0.1413 -0.37181,-0.21195 0.0674,0.49966 0.0612,0.0204 -0.56841,-0.0929 -0.29036,0.18643 0.462,0.3079 0.33909,0.2429 -1.10177,-0.58267 -0.65279,-0.25903 -0.46371,-0.11326 -0.92352,-1.24635 -0.51687,-0.19606 -0.39769,-0.12466 0.0711,0.0426 0.46845,-0.0592 0.51546,-0.0693 -3.97624,0.20733 -4.26945,-5.41592 -0.29321,-5.62325 l 0,0 c 0.16377,-0.11704 0.2945,-0.30884 0.4913,-0.35112 0.15912,-0.0342 0.30682,0.11199 0.4661,0.1454 0.16937,0.0355 0.35177,0.005 0.51563,0.0605 0.11606,0.0394 -0.24506,-0.007 -0.36759,-0.0102 0.12215,0.12674 0.25644,0.24281 0.36646,0.38022 0.0991,0.1238 -0.38883,-0.19054 -0.33363,-0.33922 0.0534,-0.14387 0.30863,-0.025 0.46039,-0.002 0.14263,0.0215 0.32958,0.25195 0.41165,0.13334 0.0573,-0.0829 -1.27413,-0.64757 -0.0488,0.29838 -0.0162,-0.12527 -0.17438,-0.36325 -0.0487,-0.3758 0.22886,-0.0228 0.39912,0.23132 0.61149,0.31961 0.0306,0.0127 0.0678,-0.0427 0.096,-0.0255 0.0791,0.0483 0.11955,0.14315 0.1917,0.20128 0.51929,0.41837 0.32709,0.33523 0.92362,0.27211 3.67641,1.5756 1.44817,6.77483 -2.22824,5.19923 z"
                   id="path5178"
                   style="fill:#ff0000;fill-opacity:0.78431373;stroke:none;stroke-width:0.5;stroke-miterlimit:4;stroke-dasharray:none;stroke-dashoffset:0;stroke-opacity:1" />
                <path
                   inkscape:connector-curvature="0"
                   d="m 118.93623,990.22229 c 0.16188,0.0793 -0.15184,0.3152 -0.0396,0.35299 0.15048,0.0507 0.30995,-0.07 0.46253,-0.114 0.0305,-0.009 0.11076,-0.0616 0.0846,-0.0436 -1.32657,0.90979 -0.64291,0.62248 -2.28907,0.85581 1.19899,-0.38849 0.68804,-0.26919 1.51395,-0.43086 -3.76382,2.03246 -6.63815,-3.29038 -2.87434,-5.32284 l 0,0 c 0.90995,-0.6749 0.34076,-0.42285 1.80546,-0.4773 -0.369,0.0683 -0.75949,0.0632 -1.10699,0.20487 -0.32317,0.13176 -0.51665,0.53484 -0.86006,0.59706 -0.14253,0.0258 -0.18821,-0.36487 -0.0591,-0.43051 0.23127,-0.11757 0.51638,0.0796 0.77548,0.0663 0.25504,-0.0131 0.24263,-0.8554 0.74972,-0.15777 3.46471,-1.29927 5.30215,3.60057 1.83744,4.89984 z"
                   id="path5180"
                   style="fill:#ff0000;fill-opacity:0.78431373;stroke:none;stroke-width:0.5;stroke-miterlimit:4;stroke-dasharray:none;stroke-dashoffset:0;stroke-opacity:1" />
                <path
                   inkscape:connector-curvature="0"
                   d="m 109.52784,993.37996 c -0.074,0.028 -0.50727,0.16363 -0.5505,0.28218 -0.002,0.006 0.79428,0.31629 -0.20199,0.17742 -0.73376,-0.10229 -0.0744,-0.35388 -0.5941,-0.0954 -0.0472,-0.0129 -0.1012,-0.0112 -0.14165,-0.0388 -0.0517,-0.0352 -0.068,-0.11198 -0.12303,-0.14165 -0.16807,-0.0906 -0.36391,0.0781 -0.53302,0.10495 -0.0675,0.0107 -0.13663,0.004 -0.20495,0.005 -1.32814,-0.49443 0.61545,0.29813 -0.83032,-0.57688 -0.36826,-0.22288 -0.47746,-0.0914 -0.79177,0.0514 -2.23751,-0.0675 -2.14208,-3.23179 0.0954,-3.16431 l 0,0 c 0.13809,0.13136 0.22493,0.37223 0.41427,0.3941 0.2218,0.0256 0.40825,-0.181 0.61043,-0.27574 0.14026,-0.0657 0.30437,-0.099 0.41673,-0.20558 0.0644,-0.0611 0.0471,-0.17128 0.0707,-0.25692 0.7226,0.42972 -0.32228,-0.11769 0.36778,0.01 0.0887,0.0164 0.11846,0.15936 0.20753,0.17375 0.17556,0.0284 0.2908,-0.20966 0.45746,-0.20503 0.0623,0.002 0.0988,0.076 0.1482,0.11395 0.0315,-0.0151 0.4084,-0.17172 -0.0777,-0.21164 -0.0726,-0.006 -0.21691,0.134 -0.14885,0.15983 0.10274,0.039 0.2062,-0.0825 0.31518,-0.0967 0.0309,-0.004 0.0546,0.0301 0.0819,0.0452 0.0537,-0.0267 0.10734,-0.0534 0.16101,-0.0801 2.70872,-0.60193 3.55999,3.22878 0.85127,3.83071 z"
                   id="path5184"
                   style="fill:#ff0000;fill-opacity:0.78431373;stroke:none;stroke-width:0.5;stroke-miterlimit:4;stroke-dasharray:none;stroke-dashoffset:0;stroke-opacity:1" />
                <path
                   inkscape:connector-curvature="0"
                   d="m 105.32202,979.12631 c -0.70313,-0.13956 0.0571,-0.0525 -0.27213,0.0376 -0.0726,0.0198 -0.15158,0.0134 -0.22564,2.9e-4 -0.0558,-0.01 -0.20963,-0.0852 -0.15574,-0.0678 0.28132,0.0907 0.4259,0.19138 0.1825,0.0401 -0.21843,-0.38166 0.0648,0.0276 -0.27479,-0.21566 -0.0836,-0.0599 -0.10793,-0.21146 -0.20969,-0.22628 -0.0908,-0.0132 -0.12985,0.1646 -0.22163,0.16344 -0.057,-7.3e-4 -0.0252,-0.11116 -0.0379,-0.16674 -0.0821,0.0305 -0.16416,0.0611 -0.24624,0.0916 -1.86079,-0.73962 -0.81481,-3.37117 1.04598,-2.63155 l 0,0 c -0.0176,0.0188 -0.0749,0.0431 -0.0529,0.0565 0.058,0.0354 0.14598,-0.006 0.20107,0.0338 0.0585,0.0422 0.0379,0.16589 0.10644,0.18835 0.0489,0.016 0.0448,-0.10575 0.0932,-0.12291 0.0298,-0.0105 0.0456,0.0438 0.0684,0.0657 0.0569,-0.0697 0.11389,-0.1394 0.17083,-0.2091 0.0483,0.18746 -0.005,0.0254 0.44772,0.17458 0.0387,0.0127 -0.4814,-0.11779 -0.16733,0.10958 0.0849,0.0615 0.22433,-0.0993 0.31435,-0.004 1.89702,0.54201 1.13051,3.2248 -0.76651,2.68279 z"
                   id="path5202"
                   style="fill:#ff0000;fill-opacity:0.78431373;stroke:none;stroke-width:0.5;stroke-miterlimit:4;stroke-dasharray:none;stroke-dashoffset:0;stroke-opacity:1" />
                <path
                   inkscape:connector-curvature="0"
                   d="m 107.82465,982.19357 c -0.0954,10e-4 -0.19489,-0.0243 -0.28622,0.003 -0.0283,0.009 0.0144,0.0814 -0.0146,0.0876 -0.089,0.019 -0.18066,-0.0248 -0.27162,-0.0266 -0.10172,-0.002 -0.20471,-0.003 -0.30484,0.0153 -0.4691,0.0847 -0.095,0.0864 -0.30805,0.0807 0.021,-0.20667 -0.0245,-0.14251 0.23579,-0.0127 -2.00161,0.33017 -2.46853,-2.50053 -0.46692,-2.83069 l 0,0 c 0.4521,-0.12762 0.2653,-0.12053 0.55023,-0.10834 0.0264,10e-4 0.091,-0.0194 0.0791,0.004 -0.0137,0.0274 -0.0616,0.007 -0.0902,0.0179 -0.0426,0.0165 -0.0823,0.0401 -0.12126,0.0639 -0.0147,0.009 -0.0552,0.0395 -0.0389,0.0339 0.24983,-0.0847 0.12103,-0.11457 0.25439,-0.0691 1.93785,-0.55367 2.72086,2.18686 0.78301,2.74053 z"
                   id="path5204"
                   style="fill:#ff0000;fill-opacity:0.78431373;stroke:none;stroke-width:0.5;stroke-miterlimit:4;stroke-dasharray:none;stroke-dashoffset:0;stroke-opacity:1" />
                <path
                   inkscape:connector-curvature="0"
                   d="m 124.43766,998.81916 c -0.0613,0.43557 -0.16305,0.41446 0.20054,0.72219 0.10053,0.0851 0.24233,0.11233 0.34101,0.19956 0.0266,0.0235 -0.11163,-0.0269 -0.1061,0.008 0.17649,1.11769 0.22795,-0.25375 0.13974,0.81479 -0.008,-0.039 -0.14757,-0.92549 -0.26108,-1.06371 -0.0612,-0.0745 0.0432,0.19008 0.0406,0.2865 -0.001,0.0524 -0.0645,-0.1991 -0.0442,-0.15081 0.2087,0.49662 0.28746,0.74182 0.46076,1.23462 -0.0334,0.1386 -0.0577,0.5521 -0.10012,0.416 -0.0931,-0.2987 -0.0962,-0.6255 -0.062,-0.9365 0.007,-0.06 0.17756,0.1538 0.15414,0.098 -0.0514,-0.1233 -0.13831,-0.3962 -0.24545,-0.3166 -0.0839,0.062 0.0882,0.8646 0.10099,0.9331 -0.28292,0.3933 0.28328,0.4084 0.31277,0.6457 0.006,0.045 -0.0932,0 -0.13496,-0.022 -0.0485,-0.021 -0.13611,-0.041 -0.12852,-0.093 0.009,-0.06 0.10355,-0.061 0.15533,-0.092 -0.1111,-0.3399 -0.22221,-0.6798 -0.33331,-1.0198 0.0482,0.2198 0.0964,0.4396 0.14466,0.6594 0.76953,2.7662 -3.14244,3.8544 -3.91197,1.0883 l 0,0 c 0.0207,0.1673 0.0414,0.3347 0.0621,0.502 -0.1079,-0.3723 -0.2158,-0.7446 -0.3237,-1.1169 0.007,-0.061 0.031,-0.1213 0.0219,-0.1816 -0.0168,-0.1115 -0.14791,-0.2662 -0.0859,-0.3253 0.1046,-0.1 0.46663,0.766 0.069,0.4278 0.0132,0.1202 -0.0209,0.2559 0.0397,0.3604 0.0599,0.1031 0.27611,0.3272 0.29057,0.2088 0.0206,-0.1685 -0.17519,-0.2908 -0.26279,-0.4363 -0.0462,0.017 -0.13186,0.099 -0.13866,0.051 -0.0491,-0.3519 -0.01,-0.7106 -0.003,-1.0658 0.002,-0.1044 0.012,0.2085 0.018,0.3127 0.0573,0.4857 0.0145,0.5405 0.30807,0.9987 0.0518,0.081 -0.0481,-0.1867 -0.085,-0.2754 -0.0176,-0.042 0.0178,0.09 0.0266,0.1349 -0.12244,-0.1531 -0.24488,-0.3063 -0.36732,-0.4595 -0.0984,-0.2521 -0.0836,-0.5348 -0.12532,-0.8022 0.0679,0.094 0.30631,0.3617 0.25975,0.5214 -0.0165,0.057 -0.10416,-0.078 -0.11365,-0.1362 -0.008,-0.049 0.0676,0.075 0.1084,0.1039 0.18604,0.1323 0.16794,0.1508 0.17294,0.036 -1.60531,-2.40794 1.80007,-4.67819 3.40538,-2.27023 z"
                   id="path5210"
                   style="fill:#ff0000;fill-opacity:0.78431373;stroke:none;stroke-width:0.5;stroke-miterlimit:4;stroke-dasharray:none;stroke-dashoffset:0;stroke-opacity:1" />
              </g>
            </g>
          </g>
        </g>
      </g>
    </g>
  </g>
</svg>
