<?xml version="1.0" encoding="UTF-8" standalone="no"?>
<!-- Created with Inkscape (http://www.inkscape.org/) -->

<svg
   xmlns:dc="http://purl.org/dc/elements/1.1/"
   xmlns:cc="http://creativecommons.org/ns#"
   xmlns:rdf="http://www.w3.org/1999/02/22-rdf-syntax-ns#"
   xmlns:svg="http://www.w3.org/2000/svg"
   xmlns="http://www.w3.org/2000/svg"
   xmlns:sodipodi="http://sodipodi.sourceforge.net/DTD/sodipodi-0.dtd"
   xmlns:inkscape="http://www.inkscape.org/namespaces/inkscape"
   width="225"
   height="159.99994"
   viewBox="0 0 225 159.99994"
   id="svg4333"
   version="1.1"
   inkscape:version="0.91 r13725"
   sodipodi:docname="Springs.svg">
  <defs
     id="defs4335" />
  <sodipodi:namedview
     id="base"
     pagecolor="#ffffff"
     bordercolor="#666666"
     borderopacity="1.0"
     inkscape:pageopacity="0.0"
     inkscape:pageshadow="2"
     inkscape:zoom="1.979899"
     inkscape:cx="3.2654228"
     inkscape:cy="133.18985"
     inkscape:document-units="px"
     inkscape:current-layer="g8806"
     showgrid="false"
     units="px"
     inkscape:snap-page="true"
     inkscape:snap-text-baseline="true"
     inkscape:snap-object-midpoints="true"
     inkscape:snap-midpoints="true"
     inkscape:snap-smooth-nodes="true"
     inkscape:object-nodes="true"
     inkscape:snap-intersection-paths="true"
     inkscape:object-paths="true"
     inkscape:snap-bbox="true"
     inkscape:bbox-paths="true"
     inkscape:bbox-nodes="true"
     inkscape:snap-bbox-edge-midpoints="true"
     inkscape:snap-bbox-midpoints="true"
     inkscape:window-width="1858"
     inkscape:window-height="1061"
     inkscape:window-x="-4"
     inkscape:window-y="-4"
     inkscape:window-maximized="1"
     fit-margin-top="0"
     fit-margin-left="0"
     fit-margin-right="0"
     fit-margin-bottom="0">
    <inkscape:grid
       type="xygrid"
       id="grid4681"
       originx="-50"
       originy="-7.5000273" />
  </sodipodi:namedview>
  <metadata
     id="metadata4338">
    <rdf:RDF>
      <cc:Work
         rdf:about="">
        <dc:format>image/svg+xml</dc:format>
        <dc:type
           rdf:resource="http://purl.org/dc/dcmitype/StillImage" />
        <dc:title></dc:title>
      </cc:Work>
    </rdf:RDF>
  </metadata>
  <g
     inkscape:label="Layer 1"
     inkscape:groupmode="layer"
     id="layer1"
     transform="translate(-50,-884.86219)">
    <g
       id="g8806"
       transform="translate(32.5,1.3636204)">
      <g
         transform="translate(-0.01323,0.03032262)"
         id="g8800" />
      <g
         id="g8830"
         transform="translate(-12.5,26.136385)">
        <rect
           y="857.36218"
           x="30"
           height="20"
           width="225"
           id="rect4136"
           style="fill:#000000;fill-opacity:1;stroke:none" />
        <path
           style="fill:none;fill-rule:evenodd;stroke:#000000;stroke-width:0.5;stroke-linecap:butt;stroke-linejoin:miter;stroke-miterlimit:4;stroke-dasharray:none;stroke-opacity:1"
           d="m 207.50047,877.33186 0,4.7619 c 0,0 25.74321,0.823 24.73726,3.1746 -1.8549,4.3371 -49.4745,7.5377 -49.4745,3.1746 0,-4.7619 49.4745,-1.1884 49.4745,3.1746 0,4.3631 -49.4745,7.5377 -49.4745,3.1746 0,-4.7619 49.4745,-1.1884 49.4745,3.1746 0,4.3631 -49.4745,7.5377 -49.4745,3.1746 0,-4.7619 49.4745,-1.1884 49.4745,3.1746 0,4.3631 -49.4745,7.5377 -49.4745,3.1746 0,-4.7619 49.4745,-1.1884 49.4745,3.1746 0,4.3631 -49.4745,7.5378 -49.4745,3.1747 0,-4.762 49.4745,-1.1885 49.4745,3.1746 0,4.363 -49.4745,7.5376 -49.4745,3.1746 0,-4.7619 49.4745,-1.1885 49.4745,3.1746 0,2.1815 -24.73726,1.5873 -24.73726,1.5873 l 0,4.7619"
           id="path4689"
           inkscape:connector-curvature="0"
           sodipodi:nodetypes="ccssssssssssssscc"
           transform="translate(-0.01323,0.0303196)" />
        <path
           sodipodi:nodetypes="ccssssssssssssscc"
           inkscape:connector-curvature="0"
           id="path5289"
           d="m 207.52599,924.95096 0,4.7619 c 0,0 -25.74321,0.823 -24.73726,3.175 1.8549,4.337 49.4745,7.537 49.4745,3.174 0,-4.762 -49.4745,-1.188 -49.4745,3.175 0,4.363 49.4745,7.538 49.4745,3.174 0,-4.761 -49.4745,-1.188 -49.4745,3.175 0,4.363 49.4745,7.538 49.4745,3.175 0,-4.762 -49.4745,-1.189 -49.4745,3.174 0,4.363 49.4745,7.538 49.4745,3.175 0,-4.762 -49.4745,-1.189 -49.4745,3.174 0,4.363 49.4745,7.538 49.4745,3.175 0,-4.762 -49.4745,-1.189 -49.4745,3.175 0,4.363 49.4745,7.537 49.4745,3.174 0,-4.762 -49.4745,-1.188 -49.4745,3.175 0,2.181 24.73726,1.587 24.73726,1.587 l 0,4.762"
           style="fill:none;fill-rule:evenodd;stroke:#000000;stroke-width:0.5;stroke-linecap:butt;stroke-linejoin:miter;stroke-miterlimit:4;stroke-dasharray:none;stroke-opacity:1"
           transform="translate(-0.01323,0.0303196)" />
        <circle
           r="2.5"
           cy="927.33191"
           cx="207.50047"
           id="path5285"
           style="fill:#000000;fill-opacity:0.39215686;stroke:none;stroke-width:0.5;stroke-miterlimit:4;stroke-dasharray:none;stroke-dashoffset:0;stroke-opacity:1"
           transform="translate(-0.01323,0.0303196)" />
        <path
           inkscape:transform-center-y="-6.6666999"
           d="m 207.51476,977.33181 23.09401,39.99999 -46.18803,0 z"
           inkscape:randomized="0"
           inkscape:rounded="-3.46945e-018"
           inkscape:flatsided="true"
           sodipodi:arg2="-0.52359878"
           sodipodi:arg1="-1.5707963"
           sodipodi:r2="13.333332"
           sodipodi:r1="26.666666"
           sodipodi:cy="1003.9985"
           sodipodi:cx="207.51476"
           sodipodi:sides="3"
           id="path8783"
           style="fill:#3063b0;fill-opacity:0.39215686;stroke:none;stroke-width:0.5;stroke-miterlimit:4;stroke-dasharray:none;stroke-dashoffset:0;stroke-opacity:1"
           sodipodi:type="star"
           transform="translate(-0.01323,0.0303196)" />
        <g
           transform="translate(0,-30)"
           id="g8819">
          <path
             sodipodi:nodetypes="ccssssssssssssscc"
             inkscape:connector-curvature="0"
             id="path4683"
             d="m 60,907.36217 0,4.54545 c 0,0 12.740826,0.78514 12.242962,3.03031 -0.918024,4.13988 -24.485916,7.19505 -24.485916,3.0303 0,-4.54546 24.485916,-1.13445 24.485916,3.0303 0,4.16475 -24.485916,7.19505 -24.485916,3.03031 0,-4.54547 24.485916,-1.13445 24.485916,3.03029 0,4.16476 -24.485916,7.19506 -24.485916,3.0303 0,-4.54545 24.485916,-1.13444 24.485916,3.03031 0,4.16475 -24.485916,7.19505 -24.485916,3.0303 0,-4.54545 24.485916,-1.13445 24.485916,3.0303 0,4.16475 -24.485916,7.19508 -24.485916,3.0303 0,-4.54545 24.485916,-1.13445 24.485916,3.03029 0,4.16476 -24.485916,7.19508 -24.485916,3.03032 0,-4.54544 24.485916,-1.13444 24.485916,3.03032 0,2.08236 -12.242962,1.51512 -12.242962,1.51512 l 0,4.54548"
             style="fill:none;fill-rule:evenodd;stroke:#323232;stroke-width:0.49999997;stroke-linecap:butt;stroke-linejoin:miter;stroke-miterlimit:4;stroke-dasharray:none;stroke-opacity:1" />
          <path
             style="fill:none;fill-rule:evenodd;stroke:#323232;stroke-width:0.49999997;stroke-linecap:butt;stroke-linejoin:miter;stroke-miterlimit:4;stroke-dasharray:none;stroke-opacity:1"
             d="m 125,907.36217 0,4.54545 c 0,0 12.74082,0.78514 12.24296,3.03031 -0.91803,4.13988 -24.48592,7.19505 -24.48592,3.0303 0,-4.54546 24.48592,-1.13445 24.48592,3.0303 0,4.16475 -24.48592,7.19505 -24.48592,3.03031 0,-4.54547 24.48592,-1.13445 24.48592,3.03029 0,4.16476 -24.48592,7.19506 -24.48592,3.0303 0,-4.54545 24.48592,-1.13444 24.48592,3.03031 0,4.16475 -24.48592,7.19505 -24.48592,3.0303 0,-4.54545 24.48592,-1.13445 24.48592,3.0303 0,4.16475 -24.48592,7.19508 -24.48592,3.0303 0,-4.54545 24.48592,-1.13445 24.48592,3.03029 0,4.16476 -24.48592,7.19508 -24.48592,3.03032 0,-4.54544 24.48592,-1.13444 24.48592,3.03032 0,2.08236 -12.24296,1.51512 -12.24296,1.51512 l 0,4.54548"
             id="path5279"
             inkscape:connector-curvature="0"
             sodipodi:nodetypes="ccssssssssssssscc" />
          <rect
             y="957.36218"
             x="55"
             height="2.5"
             width="75"
             id="rect5281"
             style="fill:#000000;fill-opacity:0.39215686;stroke:none" />
          <rect
             y="979.86218"
             x="67.5"
             height="50"
             width="50"
             id="rect5283"
             style="fill:#3264b1;fill-opacity:0.39215686;stroke:none;stroke-width:0.49999994;stroke-miterlimit:4;stroke-dasharray:none;stroke-dashoffset:0;stroke-opacity:1" />
          <rect
             y="959.86218"
             x="91.25"
             height="20"
             width="2.5"
             id="rect4196"
             style="fill:#000000;fill-opacity:0.39215686;stroke:none" />
        </g>
      </g>
    </g>
  </g>
</svg>
