<?xml version="1.0" encoding="UTF-8" standalone="no"?>
<!-- Created with Inkscape (http://www.inkscape.org/) -->

<svg
   xmlns:dc="http://purl.org/dc/elements/1.1/"
   xmlns:cc="http://creativecommons.org/ns#"
   xmlns:rdf="http://www.w3.org/1999/02/22-rdf-syntax-ns#"
   xmlns:svg="http://www.w3.org/2000/svg"
   xmlns="http://www.w3.org/2000/svg"
   xmlns:sodipodi="http://sodipodi.sourceforge.net/DTD/sodipodi-0.dtd"
   xmlns:inkscape="http://www.inkscape.org/namespaces/inkscape"
   width="550"
   height="175"
   viewBox="0 0 550 175"
   id="svg4333"
   version="1.1"
   inkscape:version="0.91 r13725"
   sodipodi:docname="Train 2.svg">
  <defs
     id="defs4335">
    <marker
       inkscape:stockid="TriangleOutL"
       orient="auto"
       refY="0"
       refX="0"
       id="TriangleOutL"
       style="overflow:visible"
       inkscape:isstock="true">
      <path
         id="path5409"
         d="m 5.77,0 -8.65,5 0,-10 8.65,5 z"
         style="fill:#000000;fill-opacity:1;fill-rule:evenodd;stroke:#000000;stroke-width:1pt;stroke-opacity:1"
         transform="scale(0.8,0.8)"
         inkscape:connector-curvature="0" />
    </marker>
  </defs>
  <sodipodi:namedview
     id="base"
     pagecolor="#ffffff"
     bordercolor="#666666"
     borderopacity="1.0"
     inkscape:pageopacity="0.0"
     inkscape:pageshadow="2"
     inkscape:zoom="1.5"
     inkscape:cx="331.99998"
     inkscape:cy="77.83152"
     inkscape:document-units="px"
     inkscape:current-layer="g4777"
     showgrid="false"
     units="px"
     inkscape:snap-page="true"
     inkscape:snap-text-baseline="true"
     inkscape:snap-object-midpoints="true"
     inkscape:snap-midpoints="true"
     inkscape:snap-smooth-nodes="true"
     inkscape:object-nodes="true"
     inkscape:snap-intersection-paths="true"
     inkscape:object-paths="true"
     inkscape:snap-bbox="true"
     inkscape:bbox-paths="true"
     inkscape:bbox-nodes="true"
     inkscape:snap-bbox-edge-midpoints="true"
     inkscape:snap-bbox-midpoints="true"
     inkscape:window-width="1858"
     inkscape:window-height="1061"
     inkscape:window-x="-4"
     inkscape:window-y="-4"
     inkscape:window-maximized="1" />
  <metadata
     id="metadata4338">
    <rdf:RDF>
      <cc:Work
         rdf:about="">
        <dc:format>image/svg+xml</dc:format>
        <dc:type
           rdf:resource="http://purl.org/dc/dcmitype/StillImage" />
        <dc:title />
      </cc:Work>
    </rdf:RDF>
  </metadata>
  <g
     inkscape:label="Layer 1"
     inkscape:groupmode="layer"
     id="layer1"
     transform="translate(0,-877.36216)">
    <g
       transform="translate(73.655197,83.798866)"
       id="g4735" />
    <g
       id="g4803"
       transform="translate(0,-5.0000002)">
      <g
         transform="translate(11.082604,-43.172304)"
         id="g4777">
        <g
           id="g4884"
           transform="translate(-4.790011e-7,-2.469989)" />
        <g
           id="g16290"
           transform="translate(-118.73199,0)">
          <rect
             style="fill:#323232;fill-opacity:1;stroke:#000000;stroke-width:1.25000012;stroke-miterlimit:4;stroke-dasharray:none;stroke-dashoffset:0;stroke-opacity:1"
             id="rect4768"
             width="13.75"
             height="8.75"
             x="241.96127"
             y="1029.5028" />
          <rect
             y="1029.5032"
             x="329.44434"
             height="8.75"
             width="13.75"
             id="rect4770"
             style="fill:#323232;fill-opacity:1;stroke:#000000;stroke-width:1.25000012;stroke-miterlimit:4;stroke-dasharray:none;stroke-dashoffset:0;stroke-opacity:1" />
          <g
             transform="translate(139.73454,1.670923)"
             id="g4859">
            <g
               id="g4844"
               transform="translate(-13.844806,83.798866)">
              <path
                 sodipodi:nodetypes="ccccc"
                 inkscape:connector-curvature="0"
                 id="rect4856"
                 d="m 132.32153,952.7829 68.75,0 -6.00001,10.75 -56.75,0 z"
                 style="fill:#c8c8c8;fill-opacity:1;stroke:#000000;stroke-width:1.25;stroke-miterlimit:4;stroke-dasharray:none;stroke-dashoffset:0;stroke-opacity:1" />
              <rect
                 y="914.0329"
                 x="129.82153"
                 height="38.75"
                 width="73.75"
                 id="rect4846"
                 style="fill:#646464;fill-opacity:1;stroke:#000000;stroke-width:1.25;stroke-miterlimit:4;stroke-dasharray:none;stroke-dashoffset:0;stroke-opacity:1" />
              <circle
                 r="6.875"
                 style="fill:#000000;fill-opacity:1;stroke:#000000;stroke-width:1.25000024;stroke-miterlimit:4;stroke-dasharray:none;stroke-dashoffset:0;stroke-opacity:1"
                 id="circle4848"
                 cx="142.32152"
                 cy="963.5329" />
              <circle
                 cy="963.5329"
                 cx="157.32152"
                 id="circle4850"
                 style="fill:#000000;fill-opacity:1;stroke:#000000;stroke-width:1.25000024;stroke-miterlimit:4;stroke-dasharray:none;stroke-dashoffset:0;stroke-opacity:1"
                 r="6.875" />
              <circle
                 r="6.875"
                 style="fill:#000000;fill-opacity:1;stroke:#000000;stroke-width:1.25000024;stroke-miterlimit:4;stroke-dasharray:none;stroke-dashoffset:0;stroke-opacity:1"
                 id="circle4852"
                 cx="191.07152"
                 cy="963.5329" />
              <circle
                 cy="963.5329"
                 cx="176.07152"
                 id="circle4854"
                 style="fill:#000000;fill-opacity:1;stroke:#000000;stroke-width:1.25000024;stroke-miterlimit:4;stroke-dasharray:none;stroke-dashoffset:0;stroke-opacity:1"
                 r="6.875" />
            </g>
          </g>
          <g
             id="g4868"
             transform="translate(227.21761,1.671313)">
            <g
               transform="translate(-13.844806,83.798866)"
               id="g4870">
              <path
                 style="fill:#c8c8c8;fill-opacity:1;stroke:#000000;stroke-width:1.25;stroke-miterlimit:4;stroke-dasharray:none;stroke-dashoffset:0;stroke-opacity:1"
                 d="m 132.32153,952.7829 68.75,0 -6.00001,10.75 -56.75,0 z"
                 id="path4872"
                 inkscape:connector-curvature="0"
                 sodipodi:nodetypes="ccccc" />
              <rect
                 style="fill:#646464;fill-opacity:1;stroke:#000000;stroke-width:1.25;stroke-miterlimit:4;stroke-dasharray:none;stroke-dashoffset:0;stroke-opacity:1"
                 id="rect4874"
                 width="73.75"
                 height="38.75"
                 x="129.82153"
                 y="914.0329" />
              <circle
                 cy="963.5329"
                 cx="142.32152"
                 id="circle4876"
                 style="fill:#000000;fill-opacity:1;stroke:#000000;stroke-width:1.25000024;stroke-miterlimit:4;stroke-dasharray:none;stroke-dashoffset:0;stroke-opacity:1"
                 r="6.875" />
              <circle
                 r="6.875"
                 style="fill:#000000;fill-opacity:1;stroke:#000000;stroke-width:1.25000024;stroke-miterlimit:4;stroke-dasharray:none;stroke-dashoffset:0;stroke-opacity:1"
                 id="circle4878"
                 cx="157.32152"
                 cy="963.5329" />
              <circle
                 cy="963.5329"
                 cx="191.07152"
                 id="circle4880"
                 style="fill:#000000;fill-opacity:1;stroke:#000000;stroke-width:1.25000024;stroke-miterlimit:4;stroke-dasharray:none;stroke-dashoffset:0;stroke-opacity:1"
                 r="6.875" />
              <circle
                 r="6.875"
                 style="fill:#000000;fill-opacity:1;stroke:#000000;stroke-width:1.25000024;stroke-miterlimit:4;stroke-dasharray:none;stroke-dashoffset:0;stroke-opacity:1"
                 id="circle4882"
                 cx="176.07152"
                 cy="963.5329" />
            </g>
          </g>
          <rect
             y="1029.5032"
             x="416.94434"
             height="8.75"
             width="13.75"
             id="rect15038"
             style="fill:#323232;fill-opacity:1;stroke:#000000;stroke-width:1.25000012;stroke-miterlimit:4;stroke-dasharray:none;stroke-dashoffset:0;stroke-opacity:1" />
          <rect
             style="fill:#323232;fill-opacity:1;stroke:#000000;stroke-width:1.25000012;stroke-miterlimit:4;stroke-dasharray:none;stroke-dashoffset:0;stroke-opacity:1"
             id="rect15040"
             width="13.75"
             height="8.75"
             x="504.4274"
             y="1029.5035" />
          <g
             id="g15042"
             transform="translate(314.71758,1.671283)">
            <g
               transform="translate(-13.844806,83.798866)"
               id="g15044">
              <path
                 style="fill:#c8c8c8;fill-opacity:1;stroke:#000000;stroke-width:1.25;stroke-miterlimit:4;stroke-dasharray:none;stroke-dashoffset:0;stroke-opacity:1"
                 d="m 132.32153,952.7829 68.75,0 -6.00001,10.75 -56.75,0 z"
                 id="path15046"
                 inkscape:connector-curvature="0"
                 sodipodi:nodetypes="ccccc" />
              <rect
                 style="fill:#646464;fill-opacity:1;stroke:#000000;stroke-width:1.25;stroke-miterlimit:4;stroke-dasharray:none;stroke-dashoffset:0;stroke-opacity:1"
                 id="rect15048"
                 width="73.75"
                 height="38.75"
                 x="129.82153"
                 y="914.0329" />
              <circle
                 cy="963.5329"
                 cx="142.32152"
                 id="circle15050"
                 style="fill:#000000;fill-opacity:1;stroke:#000000;stroke-width:1.25000024;stroke-miterlimit:4;stroke-dasharray:none;stroke-dashoffset:0;stroke-opacity:1"
                 r="6.875" />
              <circle
                 r="6.875"
                 style="fill:#000000;fill-opacity:1;stroke:#000000;stroke-width:1.25000024;stroke-miterlimit:4;stroke-dasharray:none;stroke-dashoffset:0;stroke-opacity:1"
                 id="circle15052"
                 cx="157.32152"
                 cy="963.5329" />
              <circle
                 cy="963.5329"
                 cx="191.07152"
                 id="circle15054"
                 style="fill:#000000;fill-opacity:1;stroke:#000000;stroke-width:1.25000024;stroke-miterlimit:4;stroke-dasharray:none;stroke-dashoffset:0;stroke-opacity:1"
                 r="6.875" />
              <circle
                 r="6.875"
                 style="fill:#000000;fill-opacity:1;stroke:#000000;stroke-width:1.25000024;stroke-miterlimit:4;stroke-dasharray:none;stroke-dashoffset:0;stroke-opacity:1"
                 id="circle15056"
                 cx="176.07152"
                 cy="963.5329" />
            </g>
          </g>
          <g
             transform="translate(402.20065,1.671673)"
             id="g15058">
            <g
               id="g15060"
               transform="translate(-13.844806,83.798866)">
              <path
                 sodipodi:nodetypes="ccccc"
                 inkscape:connector-curvature="0"
                 id="path15062"
                 d="m 132.32153,952.7829 68.75,0 -6.00001,10.75 -56.75,0 z"
                 style="fill:#c8c8c8;fill-opacity:1;stroke:#000000;stroke-width:1.25;stroke-miterlimit:4;stroke-dasharray:none;stroke-dashoffset:0;stroke-opacity:1" />
              <rect
                 y="914.0329"
                 x="129.82153"
                 height="38.75"
                 width="73.75"
                 id="rect15064"
                 style="fill:#646464;fill-opacity:1;stroke:#000000;stroke-width:1.25;stroke-miterlimit:4;stroke-dasharray:none;stroke-dashoffset:0;stroke-opacity:1" />
              <circle
                 r="6.875"
                 style="fill:#000000;fill-opacity:1;stroke:#000000;stroke-width:1.25000024;stroke-miterlimit:4;stroke-dasharray:none;stroke-dashoffset:0;stroke-opacity:1"
                 id="circle15066"
                 cx="142.32152"
                 cy="963.5329" />
              <circle
                 cy="963.5329"
                 cx="157.32152"
                 id="circle15068"
                 style="fill:#000000;fill-opacity:1;stroke:#000000;stroke-width:1.25000024;stroke-miterlimit:4;stroke-dasharray:none;stroke-dashoffset:0;stroke-opacity:1"
                 r="6.875" />
              <circle
                 r="6.875"
                 style="fill:#000000;fill-opacity:1;stroke:#000000;stroke-width:1.25000024;stroke-miterlimit:4;stroke-dasharray:none;stroke-dashoffset:0;stroke-opacity:1"
                 id="circle15070"
                 cx="191.07152"
                 cy="963.5329" />
              <circle
                 cy="963.5329"
                 cx="176.07152"
                 id="circle15072"
                 style="fill:#000000;fill-opacity:1;stroke:#000000;stroke-width:1.25000024;stroke-miterlimit:4;stroke-dasharray:none;stroke-dashoffset:0;stroke-opacity:1"
                 r="6.875" />
            </g>
          </g>
          <g
             transform="translate(122.27341,78.78194)"
             id="g4756">
            <path
               sodipodi:type="star"
               style="fill:#323232;fill-opacity:1;stroke:#000000;stroke-width:2.22412086;stroke-miterlimit:4;stroke-dasharray:none;stroke-dashoffset:0;stroke-opacity:1"
               id="path4708"
               sodipodi:sides="3"
               sodipodi:cx="35.562847"
               sodipodi:cy="952.79773"
               sodipodi:r1="32.981117"
               sodipodi:r2="16.490561"
               sodipodi:arg1="2.6179939"
               sodipodi:arg2="3.6651914"
               inkscape:flatsided="true"
               inkscape:rounded="-3.46945e-018"
               inkscape:randomized="0"
               d="M 7.0003614,969.28829 35.562848,919.81661 64.125332,969.28829 Z"
               inkscape:transform-center-y="-3.9501545"
               transform="matrix(0.65931833,0,0,0.47908046,14.11561,504.41589)" />
            <rect
               style="fill:#ffa7c8;fill-opacity:1;stroke:#000000;stroke-width:1.25;stroke-miterlimit:4;stroke-dasharray:none;stroke-dashoffset:0;stroke-opacity:1"
               id="rect4692"
               width="88.75"
               height="28.75"
               x="37.187851"
               y="929.19073"
               ry="19.375"
               rx="6.6666598" />
            <rect
               style="fill:#323232;fill-opacity:1;stroke:#000000;stroke-width:1.25;stroke-miterlimit:4;stroke-dasharray:none;stroke-dashoffset:0;stroke-opacity:1"
               id="rect4694"
               width="31.75"
               height="18.75"
               x="87.854515"
               y="910.44073" />
            <rect
               style="fill:#ff64a7;fill-opacity:1;stroke:#000000;stroke-width:1.25;stroke-miterlimit:4;stroke-dasharray:none;stroke-dashoffset:0;stroke-opacity:1"
               id="rect4696"
               width="34.75"
               height="10.75"
               x="86.354515"
               y="899.69073" />
            <rect
               style="fill:#323232;fill-opacity:1;stroke:#000000;stroke-width:1.25;stroke-miterlimit:4;stroke-dasharray:none;stroke-dashoffset:0;stroke-opacity:1"
               id="rect4698"
               width="18.75"
               height="8.75"
               x="41.854511"
               y="920.44073" />
            <rect
               style="fill:#ff64a7;fill-opacity:1;stroke:#000000;stroke-width:1.24999988;stroke-miterlimit:4;stroke-dasharray:none;stroke-dashoffset:0;stroke-opacity:1"
               id="rect4702"
               width="73.75"
               height="10.75"
               x="36.187847"
               y="957.94073" />
            <circle
               style="fill:#000000;fill-opacity:1;stroke:#000000;stroke-width:1.25;stroke-miterlimit:4;stroke-dasharray:none;stroke-dashoffset:0;stroke-opacity:1"
               id="path4710"
               cx="104.06285"
               cy="961.22113"
               r="15.875" />
            <circle
               style="fill:#000000;fill-opacity:1;stroke:#000000;stroke-width:1.25;stroke-miterlimit:4;stroke-dasharray:none;stroke-dashoffset:0;stroke-opacity:1"
               id="circle4714"
               cx="48.562847"
               cy="968.69073"
               r="8.375" />
            <circle
               r="8.375"
               cy="968.69073"
               cx="69.312851"
               id="circle4752"
               style="fill:#000000;fill-opacity:1;stroke:#000000;stroke-width:1.25;stroke-miterlimit:4;stroke-dasharray:none;stroke-dashoffset:0;stroke-opacity:1" />
            <rect
               y="911.69073"
               x="40.354511"
               height="8.75"
               width="21.75"
               id="rect4754"
               style="fill:#ff64a7;fill-opacity:1;stroke:#000000;stroke-width:1.25;stroke-miterlimit:4;stroke-dasharray:none;stroke-dashoffset:0;stroke-opacity:1" />
          </g>
          <g
             transform="translate(10.666522,-208.17291)"
             id="g15937"
             style="fill:#ffffff;fill-opacity:0.78431373;stroke:#ffffff;stroke-opacity:0.78431373">
            <path
               style="fill:#ffffff;fill-opacity:0.78431373;stroke:#ffffff;stroke-width:1.25000012;stroke-miterlimit:4;stroke-dasharray:none;stroke-dashoffset:0;stroke-opacity:0.78431373"
               d="m 231.2946,1237.675 13.75,0 0,8.75 -13.75,0 z"
               id="rect15849"
               inkscape:connector-curvature="0" />
            <path
               style="fill:#ffffff;fill-opacity:0.78431373;stroke:#ffffff;stroke-width:1.25000012;stroke-miterlimit:4;stroke-dasharray:none;stroke-dashoffset:0;stroke-opacity:0.78431373"
               d="m 318.77768,1237.6754 13.75,0 0,8.75 -13.75,0 z"
               id="rect15851"
               inkscape:connector-curvature="0" />
            <g
               transform="translate(129.06787,209.84322)"
               id="g15853"
               style="fill:#ffffff;fill-opacity:0.78431373;stroke:#ffffff;stroke-opacity:0.78431373">
              <g
                 id="g15855"
                 transform="translate(-13.844806,83.798866)"
                 style="fill:#ffffff;fill-opacity:0.78431373;stroke:#ffffff;stroke-opacity:0.78431373">
                <path
                   sodipodi:nodetypes="ccccc"
                   inkscape:connector-curvature="0"
                   id="path15857"
                   d="m 132.32153,952.7829 68.75,0 -6.00001,10.75 -56.75,0 z"
                   style="fill:#ffffff;fill-opacity:0.78431373;stroke:#ffffff;stroke-width:1.25;stroke-miterlimit:4;stroke-dasharray:none;stroke-dashoffset:0;stroke-opacity:0.78431373" />
                <path
                   style="fill:#ffffff;fill-opacity:0.78431373;stroke:#ffffff;stroke-width:1.25;stroke-miterlimit:4;stroke-dasharray:none;stroke-dashoffset:0;stroke-opacity:0.78431373"
                   d="m 129.82153,914.0329 73.75,0 0,38.75 -73.75,0 z"
                   id="rect15859"
                   inkscape:connector-curvature="0" />
                <path
                   style="fill:#ffffff;fill-opacity:0.78431373;stroke:#ffffff;stroke-width:1.25000024;stroke-miterlimit:4;stroke-dasharray:none;stroke-dashoffset:0;stroke-opacity:0.78431373"
                   d="m 149.19652,963.5329 a 6.875,6.875 0 0 1 -6.875,6.875 6.875,6.875 0 0 1 -6.875,-6.875 6.875,6.875 0 0 1 6.875,-6.875 6.875,6.875 0 0 1 6.875,6.875 z"
                   id="circle15861"
                   inkscape:connector-curvature="0" />
                <path
                   style="fill:#ffffff;fill-opacity:0.78431373;stroke:#ffffff;stroke-width:1.25000024;stroke-miterlimit:4;stroke-dasharray:none;stroke-dashoffset:0;stroke-opacity:0.78431373"
                   d="m 164.19652,963.5329 a 6.875,6.875 0 0 1 -6.875,6.875 6.875,6.875 0 0 1 -6.875,-6.875 6.875,6.875 0 0 1 6.875,-6.875 6.875,6.875 0 0 1 6.875,6.875 z"
                   id="circle15863"
                   inkscape:connector-curvature="0" />
                <path
                   style="fill:#ffffff;fill-opacity:0.78431373;stroke:#ffffff;stroke-width:1.25000024;stroke-miterlimit:4;stroke-dasharray:none;stroke-dashoffset:0;stroke-opacity:0.78431373"
                   d="m 197.94652,963.5329 a 6.875,6.875 0 0 1 -6.875,6.875 6.875,6.875 0 0 1 -6.875,-6.875 6.875,6.875 0 0 1 6.875,-6.875 6.875,6.875 0 0 1 6.875,6.875 z"
                   id="circle15865"
                   inkscape:connector-curvature="0" />
                <path
                   style="fill:#ffffff;fill-opacity:0.78431373;stroke:#ffffff;stroke-width:1.25000024;stroke-miterlimit:4;stroke-dasharray:none;stroke-dashoffset:0;stroke-opacity:0.78431373"
                   d="m 182.94652,963.5329 a 6.875,6.875 0 0 1 -6.875,6.875 6.875,6.875 0 0 1 -6.875,-6.875 6.875,6.875 0 0 1 6.875,-6.875 6.875,6.875 0 0 1 6.875,6.875 z"
                   id="circle15867"
                   inkscape:connector-curvature="0" />
              </g>
            </g>
            <g
               id="g15869"
               transform="translate(216.55094,209.84361)"
               style="fill:#ffffff;fill-opacity:0.78431373;stroke:#ffffff;stroke-opacity:0.78431373">
              <g
                 transform="translate(-13.844806,83.798866)"
                 id="g15871"
                 style="fill:#ffffff;fill-opacity:0.78431373;stroke:#ffffff;stroke-opacity:0.78431373">
                <path
                   style="fill:#ffffff;fill-opacity:0.78431373;stroke:#ffffff;stroke-width:1.25;stroke-miterlimit:4;stroke-dasharray:none;stroke-dashoffset:0;stroke-opacity:0.78431373"
                   d="m 132.32153,952.7829 68.75,0 -6.00001,10.75 -56.75,0 z"
                   id="path15873"
                   inkscape:connector-curvature="0"
                   sodipodi:nodetypes="ccccc" />
                <path
                   style="fill:#ffffff;fill-opacity:0.78431373;stroke:#ffffff;stroke-width:1.25;stroke-miterlimit:4;stroke-dasharray:none;stroke-dashoffset:0;stroke-opacity:0.78431373"
                   d="m 129.82153,914.0329 73.75,0 0,38.75 -73.75,0 z"
                   id="rect15875"
                   inkscape:connector-curvature="0" />
                <path
                   style="fill:#ffffff;fill-opacity:0.78431373;stroke:#ffffff;stroke-width:1.25000024;stroke-miterlimit:4;stroke-dasharray:none;stroke-dashoffset:0;stroke-opacity:0.78431373"
                   d="m 149.19652,963.5329 a 6.875,6.875 0 0 1 -6.875,6.875 6.875,6.875 0 0 1 -6.875,-6.875 6.875,6.875 0 0 1 6.875,-6.875 6.875,6.875 0 0 1 6.875,6.875 z"
                   id="circle15877"
                   inkscape:connector-curvature="0" />
                <path
                   style="fill:#ffffff;fill-opacity:0.78431373;stroke:#ffffff;stroke-width:1.25000024;stroke-miterlimit:4;stroke-dasharray:none;stroke-dashoffset:0;stroke-opacity:0.78431373"
                   d="m 164.19652,963.5329 a 6.875,6.875 0 0 1 -6.875,6.875 6.875,6.875 0 0 1 -6.875,-6.875 6.875,6.875 0 0 1 6.875,-6.875 6.875,6.875 0 0 1 6.875,6.875 z"
                   id="circle15879"
                   inkscape:connector-curvature="0" />
                <path
                   style="fill:#ffffff;fill-opacity:0.78431373;stroke:#ffffff;stroke-width:1.25000024;stroke-miterlimit:4;stroke-dasharray:none;stroke-dashoffset:0;stroke-opacity:0.78431373"
                   d="m 197.94652,963.5329 a 6.875,6.875 0 0 1 -6.875,6.875 6.875,6.875 0 0 1 -6.875,-6.875 6.875,6.875 0 0 1 6.875,-6.875 6.875,6.875 0 0 1 6.875,6.875 z"
                   id="circle15881"
                   inkscape:connector-curvature="0" />
                <path
                   style="fill:#ffffff;fill-opacity:0.78431373;stroke:#ffffff;stroke-width:1.25000024;stroke-miterlimit:4;stroke-dasharray:none;stroke-dashoffset:0;stroke-opacity:0.78431373"
                   d="m 182.94652,963.5329 a 6.875,6.875 0 0 1 -6.875,6.875 6.875,6.875 0 0 1 -6.875,-6.875 6.875,6.875 0 0 1 6.875,-6.875 6.875,6.875 0 0 1 6.875,6.875 z"
                   id="circle15883"
                   inkscape:connector-curvature="0" />
              </g>
            </g>
            <path
               style="fill:#ffffff;fill-opacity:0.78431373;stroke:#ffffff;stroke-width:1.25000012;stroke-miterlimit:4;stroke-dasharray:none;stroke-dashoffset:0;stroke-opacity:0.78431373"
               d="m 406.27768,1237.6754 13.75,0 0,8.75 -13.75,0 z"
               id="rect15885"
               inkscape:connector-curvature="0" />
            <g
               id="g15887"
               transform="translate(304.05091,209.84358)"
               style="fill:#ffffff;fill-opacity:0.78431373;stroke:#ffffff;stroke-opacity:0.78431373">
              <g
                 transform="translate(-13.844806,83.798866)"
                 id="g15889"
                 style="fill:#ffffff;fill-opacity:0.78431373;stroke:#ffffff;stroke-opacity:0.78431373">
                <path
                   style="fill:#ffffff;fill-opacity:0.78431373;stroke:#ffffff;stroke-width:1.25;stroke-miterlimit:4;stroke-dasharray:none;stroke-dashoffset:0;stroke-opacity:0.78431373"
                   d="m 132.32153,952.7829 68.75,0 -6.00001,10.75 -56.75,0 z"
                   id="path15891"
                   inkscape:connector-curvature="0"
                   sodipodi:nodetypes="ccccc" />
                <path
                   style="fill:#ffffff;fill-opacity:0.78431373;stroke:#ffffff;stroke-width:1.25;stroke-miterlimit:4;stroke-dasharray:none;stroke-dashoffset:0;stroke-opacity:0.78431373"
                   d="m 129.82153,914.0329 73.75,0 0,38.75 -73.75,0 z"
                   id="rect15893"
                   inkscape:connector-curvature="0" />
                <path
                   style="fill:#ffffff;fill-opacity:0.78431373;stroke:#ffffff;stroke-width:1.25000024;stroke-miterlimit:4;stroke-dasharray:none;stroke-dashoffset:0;stroke-opacity:0.78431373"
                   d="m 149.19652,963.5329 a 6.875,6.875 0 0 1 -6.875,6.875 6.875,6.875 0 0 1 -6.875,-6.875 6.875,6.875 0 0 1 6.875,-6.875 6.875,6.875 0 0 1 6.875,6.875 z"
                   id="circle15895"
                   inkscape:connector-curvature="0" />
                <path
                   style="fill:#ffffff;fill-opacity:0.78431373;stroke:#ffffff;stroke-width:1.25000024;stroke-miterlimit:4;stroke-dasharray:none;stroke-dashoffset:0;stroke-opacity:0.78431373"
                   d="m 164.19652,963.5329 a 6.875,6.875 0 0 1 -6.875,6.875 6.875,6.875 0 0 1 -6.875,-6.875 6.875,6.875 0 0 1 6.875,-6.875 6.875,6.875 0 0 1 6.875,6.875 z"
                   id="circle15897"
                   inkscape:connector-curvature="0" />
                <path
                   style="fill:#ffffff;fill-opacity:0.78431373;stroke:#ffffff;stroke-width:1.25000024;stroke-miterlimit:4;stroke-dasharray:none;stroke-dashoffset:0;stroke-opacity:0.78431373"
                   d="m 197.94652,963.5329 a 6.875,6.875 0 0 1 -6.875,6.875 6.875,6.875 0 0 1 -6.875,-6.875 6.875,6.875 0 0 1 6.875,-6.875 6.875,6.875 0 0 1 6.875,6.875 z"
                   id="circle15899"
                   inkscape:connector-curvature="0" />
                <path
                   style="fill:#ffffff;fill-opacity:0.78431373;stroke:#ffffff;stroke-width:1.25000024;stroke-miterlimit:4;stroke-dasharray:none;stroke-dashoffset:0;stroke-opacity:0.78431373"
                   d="m 182.94652,963.5329 a 6.875,6.875 0 0 1 -6.875,6.875 6.875,6.875 0 0 1 -6.875,-6.875 6.875,6.875 0 0 1 6.875,-6.875 6.875,6.875 0 0 1 6.875,6.875 z"
                   id="circle15901"
                   inkscape:connector-curvature="0" />
              </g>
            </g>
            <g
               transform="translate(111.60674,286.95424)"
               id="g15903"
               style="fill:#ffffff;fill-opacity:0.78431373;stroke:#ffffff;stroke-opacity:0.78431373">
              <path
                 transform="matrix(0.65931833,0,0,0.47908046,14.11561,504.41589)"
                 style="fill:#ffffff;fill-opacity:0.78431373;stroke:#ffffff;stroke-width:2.22412086;stroke-miterlimit:4;stroke-dasharray:none;stroke-dashoffset:0;stroke-opacity:0.78431373"
                 inkscape:transform-center-y="-3.9501545"
                 d="M 7.0003614,969.28829 35.562848,919.81661 64.125332,969.28829 Z"
                 id="path15905"
                 inkscape:connector-curvature="0" />
              <path
                 style="fill:#ffffff;fill-opacity:0.78431373;stroke:#ffffff;stroke-width:1.25;stroke-miterlimit:4;stroke-dasharray:none;stroke-dashoffset:0;stroke-opacity:0.78431373"
                 d="m 43.854511,929.19073 75.416679,0 c 3.69333,0 6.66666,6.41125 6.66666,14.375 0,7.96375 -2.97333,14.375 -6.66666,14.375 l -75.416679,0 c -3.69333,0 -6.66666,-6.41125 -6.66666,-14.375 0,-7.96375 2.97333,-14.375 6.66666,-14.375 z"
                 id="rect15907"
                 inkscape:connector-curvature="0" />
              <path
                 style="fill:#ffffff;fill-opacity:0.78431373;stroke:#ffffff;stroke-width:1.25;stroke-miterlimit:4;stroke-dasharray:none;stroke-dashoffset:0;stroke-opacity:0.78431373"
                 d="m 87.854515,910.44073 31.750005,0 0,18.75 -31.750005,0 z"
                 id="rect15909"
                 inkscape:connector-curvature="0" />
              <path
                 style="fill:#ffffff;fill-opacity:0.78431373;stroke:#ffffff;stroke-width:1.25;stroke-miterlimit:4;stroke-dasharray:none;stroke-dashoffset:0;stroke-opacity:0.78431373"
                 d="m 86.354515,899.69073 34.750005,0 0,10.75 -34.750005,0 z"
                 id="rect15911"
                 inkscape:connector-curvature="0" />
              <path
                 style="fill:#ffffff;fill-opacity:0.78431373;stroke:#ffffff;stroke-width:1.25;stroke-miterlimit:4;stroke-dasharray:none;stroke-dashoffset:0;stroke-opacity:0.78431373"
                 d="m 41.854511,920.44073 18.75,0 0,8.75 -18.75,0 z"
                 id="rect15913"
                 inkscape:connector-curvature="0" />
              <path
                 style="fill:#ffffff;fill-opacity:0.78431373;stroke:#ffffff;stroke-width:1.24999988;stroke-miterlimit:4;stroke-dasharray:none;stroke-dashoffset:0;stroke-opacity:0.78431373"
                 d="m 36.187847,957.94073 73.750003,0 0,10.75 -73.750003,0 z"
                 id="rect15915"
                 inkscape:connector-curvature="0" />
              <path
                 style="fill:#ffffff;fill-opacity:0.78431373;stroke:#ffffff;stroke-width:1.25;stroke-miterlimit:4;stroke-dasharray:none;stroke-dashoffset:0;stroke-opacity:0.78431373"
                 d="m 119.93785,961.22113 a 15.875,15.875 0 0 1 -15.875,15.875 15.875,15.875 0 0 1 -15.874999,-15.875 15.875,15.875 0 0 1 15.874999,-15.875 15.875,15.875 0 0 1 15.875,15.875 z"
                 id="circle15917"
                 inkscape:connector-curvature="0" />
              <path
                 style="fill:#ffffff;fill-opacity:0.78431373;stroke:#ffffff;stroke-width:1.25;stroke-miterlimit:4;stroke-dasharray:none;stroke-dashoffset:0;stroke-opacity:0.78431373"
                 d="m 56.937847,968.69073 a 8.375,8.375 0 0 1 -8.375,8.375 8.375,8.375 0 0 1 -8.375,-8.375 8.375,8.375 0 0 1 8.375,-8.375 8.375,8.375 0 0 1 8.375,8.375 z"
                 id="circle15919"
                 inkscape:connector-curvature="0" />
              <path
                 style="fill:#ffffff;fill-opacity:0.78431373;stroke:#ffffff;stroke-width:1.25;stroke-miterlimit:4;stroke-dasharray:none;stroke-dashoffset:0;stroke-opacity:0.78431373"
                 d="m 77.687851,968.69073 a 8.375,8.375 0 0 1 -8.375,8.375 8.375,8.375 0 0 1 -8.375,-8.375 8.375,8.375 0 0 1 8.375,-8.375 8.375,8.375 0 0 1 8.375,8.375 z"
                 id="circle15921"
                 inkscape:connector-curvature="0" />
              <path
                 style="fill:#ffffff;fill-opacity:0.78431373;stroke:#ffffff;stroke-width:1.25;stroke-miterlimit:4;stroke-dasharray:none;stroke-dashoffset:0;stroke-opacity:0.78431373"
                 d="m 40.354511,911.69073 21.75,0 0,8.75 -21.75,0 z"
                 id="rect15923"
                 inkscape:connector-curvature="0" />
            </g>
          </g>
          <g
             id="g15675"
             transform="translate(373.64845,-27.276158)">
            <path
               inkscape:connector-curvature="0"
               id="path15191"
               d="m 104.52896,1061.1546 -100,0"
               style="fill:none;fill-rule:evenodd;stroke:#000000;stroke-width:2;stroke-linecap:butt;stroke-linejoin:miter;stroke-miterlimit:4;stroke-dasharray:none;stroke-opacity:1;marker-end:url(#TriangleOutL)" />
            <g
               id="g15607">
              <text
                 xml:space="preserve"
                 style="font-style:normal;font-weight:normal;font-size:40px;line-height:125%;font-family:sans-serif;letter-spacing:0px;word-spacing:0px;fill:#000000;fill-opacity:1;stroke:none;stroke-width:1px;stroke-linecap:butt;stroke-linejoin:miter;stroke-opacity:1"
                 x="26.482204"
                 y="1043.028"
                 id="text15589"
                 sodipodi:linespacing="125%"><tspan
                   sodipodi:role="line"
                   id="tspan15591"
                   x="26.482204"
                   y="1043.028"
                   style="font-style:italic;font-variant:normal;font-weight:normal;font-stretch:normal;font-family:'Times New Roman';-inkscape-font-specification:'Times New Roman, '">T<tspan
   style="font-size:64.99999762%;baseline-shift:sub"
   id="tspan15605">N</tspan></tspan></text>
            </g>
          </g>
          <path
             style="fill:#00e1ff;fill-opacity:1;stroke:none;stroke-width:2;stroke-miterlimit:4;stroke-dasharray:none;stroke-dashoffset:0;stroke-opacity:0.39215686"
             id="path15603"
             d="m 487.23122,1038.9919 c -0.48436,-1.0624 -0.96872,-2.1249 -1.45308,-3.1874 -0.0124,-0.1014 0.0511,-0.2528 -0.0371,-0.3044 -0.42867,-0.2507 -1.37761,-0.035 -1.39182,-0.5313 -0.15197,-5.3116 4.00269,-11.5855 0.92127,-15.9146 -2.45056,-3.4428 -3.28226,7.9426 -3.59606,12.1568 -0.11636,1.5628 1.59292,2.6992 2.38938,4.0487 -1.06637,-1.731 -3.30367,-5.2288 -3.61666,-6.7228 -0.27757,-1.3249 -0.0939,-5.2363 0.51651,-4.028 1.09281,2.1631 0.52627,4.8306 1.08082,7.1898 0.0453,0.1927 0.64476,0.083 0.58439,-0.1053 -0.48688,-1.5205 -1.34014,-2.8982 -2.01021,-4.3472 -0.16498,-1.2315 -0.73564,-4.9135 -0.49493,-3.6945 0.46011,2.33 0.3253,4.8051 1.15378,7.0309 0.19646,0.5278 1.10037,-0.8632 0.94091,-1.4033 -0.45748,-1.5497 -1.93741,-2.6234 -2.56873,-4.1107 -1.28609,-3.0299 -0.92796,-3.2485 -0.28629,-5.6794 3.07538,-2.6076 0.0186,-0.4135 3.20611,7.8227 0.10809,0.2793 1.08311,0.3687 0.88705,0.1423 -1.27638,-1.4735 -3.34725,-2.2916 -4.24679,-4.0212 -1.57715,-3.0324 -0.5108,-4.762 0.46041,-7.2358 0.26694,2.412 0.53389,4.824 0.80083,7.236 0.0974,0.2965 0.47213,1.1445 0.29212,0.8895 -0.94319,-1.3358 -2.25195,-2.5619 -2.60095,-4.1595 -0.31557,-1.4446 0.86554,-2.9014 0.73672,-4.3744 -0.31857,-3.6429 -2.51091,-1.1204 -0.41722,-3.0203 -0.0434,-0.074 -0.18617,-0.157 -0.13011,-0.2218 0.0768,-0.089 0.30678,-0.1427 0.35098,-0.034 1.22259,3.0121 2.08936,6.1625 3.35248,9.1578 0.10323,0.2448 0.31508,-0.5459 0.18218,-0.776 -4.86358,-8.4185 -3.16057,-1.7654 -4.37265,-10.0631 0.26704,-0.7019 0.85427,-1.3566 0.80113,-2.1057 -0.036,-0.5075 -0.69984,-0.9635 -1.2077,-0.9333 -0.39783,0.024 -1.57805,0.2118 -1.18905,0.1251 1.84518,-0.411 1.54871,0.3847 1.68274,-0.8645 0.0921,-1.058 -0.21875,-2.1294 -0.0315,-3.1861 0.0379,-0.2136 0.32183,-0.4377 0.20219,-0.6188 -0.21891,-0.3312 -0.67926,-0.4113 -1.01889,-0.6169 1.41934,-3.1852 2.83867,-6.3704 4.25801,-9.5556 0.24784,0.026 0.87487,-0.1323 0.74351,0.08 -0.94885,1.5301 -2.57925,2.5953 -3.39697,4.1994 -0.52737,1.0344 -0.66464,2.2975 -0.5012,3.4471 0.0563,0.3962 0.93925,0.925 1.06899,0.5464 0.88036,-2.5687 0.99242,-5.3394 1.48863,-8.0091 2.73731,-5.2039 -1.39109,1.8517 -0.97337,1.4474 13.33339,-12.908 2.64237,-4.5282 2.20082,-3.811 -0.84952,1.3798 -2.84821,5.775 -1.85915,4.4915 1.33587,-1.7335 1.95125,-3.918 2.92688,-5.877 -0.86003,3.4793 -0.54603,1.4539 4.32974,-4.2226 0.85851,-0.9996 -3.73334,3.6179 -2.56618,3.0065 1.37608,-0.7208 4.69263,-2.823 3.2335,-3.3561 -1.71397,-0.6262 -3.171,1.8124 -4.68957,2.8242 -0.14041,0.093 0.33661,-0.024 0.50491,-0.036 1.33794,-1.3757 2.25865,-3.3512 4.01381,-4.1271 0.83565,-0.3694 -0.22837,1.862 -0.68282,2.6546 -1.02244,1.7833 -1.65293,5.3069 -3.67742,4.9505 -1.85955,-0.3274 0.92096,-3.8501 2.23689,-5.2041 5.37399,-5.5297 14.85053,-8.7277 4.8191,-4.895 5.5988,-3.0729 -2.03783,3.0547 -3.61713,3.8129 -1.22938,0.5902 2.15628,-4.4892 2.56421,-3.1879 0.44089,1.4065 -3.86422,3.5528 -2.39916,3.7144 3.98799,0.4398 4.64634,-2.7959 5.38182,-5.113 1.19324,-0.5451 4.84441,-1.2867 3.57972,-1.6353 -1.43823,-0.3964 -2.82903,0.9491 -4.23233,1.4555 -0.78234,0.2823 1.66778,-0.336 2.36907,-0.7831 0.21435,-0.1367 -0.96121,-0.2238 -0.71191,-0.2736 1.40034,-0.2793 3.58462,-1.6918 4.26169,-0.4346 0.63022,1.1702 -2.17128,1.5335 -3.25692,2.3003 4.99573,-7.0753 -2.86386,0.415 -2.59266,1.3511 0.53159,1.8347 2.43249,-3.042 4.05634,-4.048 2.01966,-1.2512 5.33407,-0.5986 6.64379,-2.5808 0.36566,-0.5535 -9.60422,1.7466 -3.54293,0.3788 -1.80261,1.3754 -3.17322,3.742 -5.40784,4.1264 -1.56218,0.2687 1.61342,-2.9 2.977,-3.7083 2.18002,-1.2921 4.7693,-1.7475 7.23247,-2.3433 1.2674,-0.3066 5.18944,-0.5159 3.89628,-0.3485 -6.88622,0.8911 -5.93538,-1.4336 -6.80572,1.4107 1.28898,-0.5416 2.70153,-0.8526 3.86696,-1.625 0.60343,-0.4 -1.9996,1.1814 -2.12087,0.4677 -0.13946,-0.8207 1.11319,-1.4294 1.93129,-1.5835 1.28143,-0.2413 2.58008,0.5744 3.88122,0.4887 1.06851,-0.07 4.08489,-1.2876 3.06991,-0.9463 -2.60696,0.8766 -5.23096,1.7017 -7.84644,2.5525 -0.39114,2.9402 6.4925,-2.5716 4.70734,-2.5544 -2.09622,0.02 -3.70267,1.9962 -5.39005,3.2401 -0.93651,0.6904 2.09005,-1.0237 3.11936,-1.5661 6.2692,-3.3037 2.99904,-2.6018 8.57321,-2.9449 3.26059,-0.8424 8.33933,-2.1786 -6.69537,2.1007 -0.43855,0.1248 -1.71969,0.4962 -1.34811,0.232 1.50033,-1.0671 3.06068,-2.1521 4.81833,-2.7 1.8228,-0.5683 5.01387,-0.2803 7.11882,-0.1529 -2.40529,0.7645 -4.74636,1.7727 -7.21588,2.2937 -0.44685,0.094 -1.68181,-0.2958 -1.27459,-0.5025 2.84519,-1.4443 5.95018,-1.2637 8.95184,-1.9407 3.07648,-0.6939 1.24121,-1.1394 3.05657,-0.4984 -3.24021,-13.5157 -7.27021,1.0097 -5.4269,1.0885 0.98977,0.042 1.79723,-0.8675 2.75908,-1.1047 1.21433,-0.2995 2.469,-0.5095 3.71961,-0.4931 3.78819,0.05 1.20444,1.2138 3.25113,0.087 -0.14257,4.4294 -0.18445,0.5906 -0.15037,0.4395 0.0217,-0.096 0.20013,0.2369 0.2526,0.1535 0.28152,-0.4474 0.0552,-1.4096 0.5796,-1.4761 0.51588,-0.065 0.50396,0.9272 0.8748,1.2917 0.22585,0.222 0.57122,0.2737 0.85683,0.4106 0.25735,-0.1844 0.51471,-0.3688 0.77207,-0.5531 0.22547,0.032 0.47271,0.1992 0.6764,0.097 0.2915,-0.1459 0.89943,-0.9298 0.62758,-0.75 -2.4963,1.6517 -4.58116,4.0037 -7.33121,5.1856 -0.57833,0.2485 -1.43617,-1.1749 -0.98343,-1.6122 1.49083,-1.4401 3.70128,-1.8673 5.55192,-2.801 2.53114,2.2074 4.47976,-2.0107 6.75707,-1.5977 1.13087,0.2051 0.32227,2.8874 0.89664,0.6817 0.21385,-0.033 0.43709,-0.028 0.64157,-0.099 0.30091,-0.1041 0.54303,-0.3725 0.85786,-0.4201 1.41628,-0.2141 0.34169,0.4524 1.64709,0.392 0.24597,-0.011 0.48647,-0.4596 0.67468,-0.3008 0.38654,0.3261 0.40901,0.925 0.61352,1.3876 0.55965,-1.4708 1.86985,-0.1144 1.92846,-0.1754 0.45658,-0.4756 0.0701,-1.5984 0.67577,-1.8589 2.44827,-1.0531 -1.02209,4.2635 1.35377,0.093 0.84028,0.1296 0.74332,1.2085 1.33015,1.5574 0.20388,0.1212 0.4361,-0.3233 0.66372,-0.2566 0.2966,0.087 0.3606,0.5933 0.66515,0.646 0.25798,0.045 0.43575,-0.2918 0.66653,-0.4155 0.21488,-0.1151 0.44489,-0.1994 0.66734,-0.2991 1.07961,1.4821 0.96067,-0.7086 2.0012,-0.5877 0.29436,0.034 0.37211,0.6227 0.66647,0.5884 3.21194,-0.3733 -1.29623,-1.1858 1.33304,-0.593 0.72002,-0.4873 0.83471,0.7749 1.33338,0.7076 0.34309,-0.046 0.34363,-0.9207 0.66671,-0.7963 3.17902,1.2238 6.18098,2.8836 9.13983,4.5715 0.18862,0.1076 0.18774,0.7834 0.0154,0.6512 -1.40763,-1.0793 -2.59657,-2.4172 -3.89486,-3.6259 0.84951,2.352 -4.38293,0.8647 -4.08496,-0.4733 0.0633,-0.2843 0.53357,0.475 0.79863,0.3544 0.55178,-0.2512 0.66914,-1.2582 1.27409,-1.298 0.61176,-0.04 0.93489,0.8022 1.46019,1.1183 0.31464,0.1894 0.68883,0.2548 1.03325,0.3822 1.45141,-1.9959 -0.005,-0.5544 1.10479,0.063 0.19902,0.1109 0.2592,-0.4216 0.47654,-0.4899 0.19018,-0.06 0.39001,0.089 0.5765,0.1591 1.2304,0.4646 0.47859,0.7413 1.38386,-1.238 0.23978,0.2931 0.47955,0.5862 0.71933,0.8793 0.23009,-0.026 0.49805,-0.2065 0.69028,-0.077 0.32897,0.2209 0.29917,0.8305 0.66344,0.9864 0.21844,0.093 1.26964,-1.0321 1.30969,-1.0479 0.20744,-0.082 0.44053,0.071 0.6608,0.1057 0.79797,-0.3605 0.80001,0.8655 1.33714,0.9084 0.17145,-0.1643 0.95037,-1.0283 1.33768,-0.9949 1.47391,0.127 -0.15577,1.2222 1.33244,-0.1423 0.22196,0.5081 0.14496,1.3344 0.66588,1.5242 0.55249,0.2014 0.80776,-2.4335 1.33297,-1.8484 0.53223,0.593 -0.0955,2.064 0.66692,2.2955 2.4779,0.7526 -0.81369,-4.6523 1.33358,-0.6466 0.59714,-0.2376 1.27432,-1.1746 1.9999,-1.0709 0.25615,0.037 0.41336,0.3448 0.66665,0.3976 0.44148,0.092 0.88841,-0.156 1.33335,-0.2298 3.933,-0.046 3.25784,-0.1137 10.43037,3.4004 0.37042,0.1815 -0.0739,1.2358 -0.47572,1.1424 -1.61837,-0.3762 -2.93008,-1.5703 -4.431,-2.283 -4.04419,-1.9202 -6.73274,-2.0571 4.02642,0.2653 2.07851,-0.9014 0.18513,0.073 -2.85775,-0.7777 -0.78589,-0.2199 -1.37025,-0.9312 -2.15065,-1.1698 -0.17468,-0.053 -0.54154,0.3149 -0.37817,0.3966 5.69066,2.8465 4.10286,2.9721 7.62936,1.7209 -1.69936,-0.3994 -1.42923,-0.4265 -3.48057,-0.4074 -0.30644,0 -1.20953,0.041 -0.91213,0.115 3.23684,0.8047 6.66454,0.9136 9.7852,2.0909 0.50348,0.19 0.45572,1.9495 0.0349,1.614 -1.33438,-1.0636 -2.07384,-2.7105 -3.11076,-4.0658 -1.08939,-0.085 -4.13703,-0.9181 -3.26815,-0.2554 2.01715,1.5383 4.70348,1.9185 6.96247,3.0728 0.1557,0.08 0.22361,0.6016 0.069,0.52 -1.08839,-0.5742 -1.87024,-1.7184 -3.04358,-2.0893 -0.76151,-0.2407 -3.14511,0.2053 -2.36569,0.3795 2.71441,0.6066 5.52697,0.6297 8.29046,0.9445 1.33033,2.3172 -4.42859,-1.164 -3.82257,-0.043 1.10357,2.0413 3.64423,2.9394 5.73486,3.9463 0.61839,0.2978 -0.57493,-1.3133 -1.1238,-1.7254 -3.77038,-2.831 -3.09283,-2.4928 -6.26296,-1.6764 2.72704,0.1532 5.45408,0.3065 8.18111,0.4597 0.0533,0.6131 0.77548,1.8409 0.16002,1.8394 -1.19293,0 -4.05841,-2.508 -3.06569,-1.8464 2.07255,1.3156 4.14509,2.6311 6.21764,3.9467 -0.68838,-0.2837 -2.34583,-1.5409 -2.06515,-0.8513 0.76318,1.8752 2.45595,3.2192 3.68392,4.8287 5.0506,1.9574 -6.11226,-7.1125 -4.04194,-5.9498 1.59497,0.8958 3.29478,1.8651 4.32716,3.3752 4.05144,5.9263 4.10722,13.0524 3.56817,4.9277 -0.011,2.4413 0.36088,11.0154 -4.89337,-4.1724 -0.45559,-1.3169 2.14559,2.112 3.53378,2.2337 1.34164,0.1176 -4.59014,-2.8024 -3.37589,-2.2198 1.88632,0.905 3.73656,1.9289 5.40386,3.1928 1.02482,0.7769 -2.30363,-1.1439 -3.45544,-1.7158 4.98352,0 1.80848,9.5943 5.62279,10.0661 1.85096,0.229 -1.0986,-3.6037 -1.19373,-5.4663 -0.0259,-0.5063 0.64946,0.7785 0.97419,1.1678 -1.71369,-1.5959 -4.18444,-2.6503 -5.14106,-4.7877 -0.66728,-1.491 2.77234,1.7282 4.15851,2.5923 6.91485,14.8121 2.52733,5.6921 1.37052,2.3886 -0.26054,-0.744 1.77228,2.4318 1.04831,2.1199 -2.01217,-0.8669 -3.43901,-2.7238 -5.26404,-3.9361 -1.61959,-1.0758 3.03432,2.4349 4.61215,3.571 1.09545,1.0762 1.75316,3.3152 3.28635,3.2286 1.43816,-0.081 -1.75964,-2.3055 -2.84411,-3.2536 -0.68456,-0.5984 1.28406,1.3474 1.62699,2.1895 0.77521,1.9038 2.2504,7.9081 1.68061,5.9332 -2.18147,-7.5614 -2.05826,-9.2337 -1.79425,-4.036 0.85676,1.4685 2.81351,6.0882 2.57029,4.4055 -0.29943,-2.0715 -1.68582,-3.8426 -2.7495,-5.6453 -0.40971,-0.6943 0.49931,1.5334 0.77111,2.2924 0.57277,1.5995 3.14104,5.7753 1.76239,4.7825 -1.55019,-1.1164 -2.19266,-3.3166 -2.36828,-5.2188 -0.0762,-0.8259 1.34701,0.968 2.02051,1.452 -3.40073,-5.1633 3.22616,11.3124 2.25157,8.5359 -0.7735,-2.2036 -1.74351,-4.3359 -2.49335,-6.5477 -0.0281,-0.083 0.19541,-0.2032 0.23167,-0.1236 0.63917,1.4043 1.29191,2.8204 1.67595,4.3147 0.31002,1.2064 0.25865,2.4777 0.38798,3.7165 -0.11619,0.6334 -0.18755,2.5235 -0.34857,1.9 -0.64235,-2.4871 -0.30702,-5.1895 -1.12952,-7.623 -0.14871,-0.44 -1.63276,-0.1864 -1.37859,0.2023 0.95002,1.4529 3.13156,1.9441 3.82315,3.5364 0.59436,1.3684 0.78189,5.4351 -0.34907,4.4621 -1.60515,-1.381 -1.07174,-4.097 -1.60761,-6.1455 -0.99274,3.3968 0.30557,-2.1976 2.83947,4.8481 0.41986,1.1675 -0.44918,2.4491 -0.49603,3.6888 -0.023,0.6087 0.37826,1.2019 0.28846,1.8043 -0.0452,0.3035 -0.54167,0.9335 -0.65398,0.6479 -1.06434,-2.7061 -1.59394,-5.5931 -2.39091,-8.3897 -0.0584,-0.2695 -0.36336,-1.0102 -0.17506,-0.8087 1.35645,1.4519 2.97714,2.8034 3.7491,4.6343 0.65142,1.545 0.30124,3.3432 0.3214,5.0198 0.001,0.087 -0.48316,2.5585 -0.061,3.2277 0.0906,0.1437 0.32538,0.098 0.48807,0.1466 -1.14825,-0.6041 -0.57562,1.1934 -0.524,1.5424 0.0424,0.2868 -0.0628,0.5976 0.0399,0.8687 0.11565,0.3053 0.39088,0.523 0.58632,0.7845 -0.43079,2.1397 0.28068,-0.8665 -0.62442,1.3021 -0.0793,0.1901 0.0286,0.8149 -0.0296,0.6173 -0.8636,-3.1716 -1.7272,-6.3433 -2.59079,-9.5149 0.0589,0.1612 0.10275,0.3288 0.17681,0.4836 0.96589,2.0193 1.96131,4.0243 2.94196,6.0364 1.17347,7.2617 1.37898,2.5591 -0.2816,6.9293 -0.49908,1.3135 0.85546,0.4516 -0.67904,1.0363 0.65481,0.4065 1.36018,0.5027 1.13752,1.4752 -0.0763,0.3333 -0.58266,0.5297 -0.54433,0.8695 0.0397,0.3519 0.59398,0.4452 0.72959,0.7724 0.0873,0.2105 -0.12543,0.4431 -0.13136,0.671 -0.005,0.2091 0.0652,0.4134 0.0978,0.6201 -1.90131,0.9678 -0.0978,1.3256 -0.3728,1.9224 -0.16788,0.3644 -1.28764,0.4066 -0.99341,0.6793 1.83416,1.6999 3.40065,-0.2747 1.79135,1.3515 -3.41569,2.3051 -2.57144,1.5127 -5.53271,9.1053 -0.18841,0.4831 0.29819,1.6901 0.7149,1.3816 1.49273,-1.1055 5.23979,-4.5997 3.39082,-4.4221 -2.14588,0.2062 -3.26832,2.8491 -4.60698,4.5389 -0.5496,0.6938 1.46328,-0.9961 2.19492,-1.4942 0.5768,-1.3781 1.16995,-2.7496 1.7304,-4.1345 0.25265,-0.6243 1.09134,-1.3381 0.70851,-1.8922 -0.35098,-0.508 -1.64325,-0.3235 -1.83348,0.2639 -0.92248,2.8487 -0.5063,5.9836 -1.13752,8.9106 -0.14492,0.672 -1.47829,2.3155 -1.15285,1.71 0.68356,-1.2719 1.48649,-2.4758 2.22973,-3.7137 6.21141,1.1974 -0.0941,-5.435 -0.38708,-4.0954 -0.63046,2.8826 0.38186,5.9416 -0.1074,8.8515 -0.1066,0.634 -1.73603,1.7421 -1.56938,1.1211 0.35423,-1.3199 3.38607,-4.1354 2.1974,-3.4611 -2.12017,1.2027 -3.45694,3.4374 -5.18541,5.1561 0.34568,-0.7297 1.66034,-2.7025 1.03705,-2.1892 -11.94971,9.8419 6.64572,1.6117 2.49092,-3.4794 -6.13162,-7.5135 -0.85314,10.6699 -2.52327,4.62 0.77824,-0.9269 2.67325,-3.9428 2.3347,-2.7808 -0.72991,2.5052 -2.2745,4.7009 -3.55633,6.9737 -0.22858,0.4053 0.25383,-0.8953 0.38075,-1.343 -1.84362,1.3252 -4.44553,1.9813 -5.53084,3.9755 -0.73547,1.3515 3.36997,-0.4669 4.29184,-1.6988 1.30915,-1.7494 1.14281,-4.2179 1.71422,-6.3269 -4.81247,14.9464 3.21253,-6.0579 -6.46642,10.134 -0.6239,1.0438 4.05898,-2.6425 2.9475,-2.1493 -1.50568,0.6681 -5.77429,2.4087 -4.15002,2.6829 1.81803,0.3069 3.2704,-1.7036 4.9056,-2.5554 -10.1938,9.1855 -0.50417,-0.4981 -0.58785,-0.2954 -0.73061,1.7697 -1.97234,3.6989 -3.78259,4.3222 -1.40343,0.4832 3.51689,-4.6637 2.30118,-3.8122 -10.50881,7.3609 5.36284,3.0439 -9.95634,5.7013 1.70227,-0.4984 3.40455,-0.9968 5.10682,-1.4952 -0.36654,0.4465 -1.46545,1.7863 -1.09963,1.3393 1.43547,-1.7541 2.35865,-4.105 4.30857,-5.2605 1.35928,-0.8055 -1.4627,2.8108 -2.36429,4.1084 -0.99689,1.4346 -4.47269,2.9135 -5.31571,3.3712 1.00474,-0.8915 1.67489,-2.7768 3.01421,-2.6745 1.02919,0.079 -0.41627,2.2931 -1.31285,2.8045 -1.86221,1.0623 -4.12292,1.257 -6.25175,1.5107 -1.15124,0.1372 -4.48025,0.1978 -3.46017,-0.3532 7.28468,-3.9349 7.92159,0.8383 7.40431,-2.2752 -1.28415,0.8285 -2.47682,1.8198 -3.85247,2.4854 -1.21075,0.5858 -5.08755,1.7416 -3.84083,1.2369 2.19976,-0.8906 4.49265,-1.5354 6.70425,-2.3962 0.22806,-0.089 -0.50234,-0.017 -0.7307,0.071 -6.48949,2.5004 -2.40354,1.9531 -8.40647,2.0503 -0.57481,-0.4246 -1.08206,-0.9607 -1.72441,-1.2739 -0.21506,-0.1049 -0.95128,0.068 -0.71265,0.086 1.77265,0.1278 3.54884,0.2323 5.32603,0.247 0.0776,7e-4 -0.0469,-0.2446 -0.11276,-0.2036 -0.90383,0.5622 -1.52384,1.7596 -2.58148,1.8796 -1.36167,0.1545 -2.63359,-0.7591 -3.95038,-1.1387 -0.24503,0.1341 -2.51178,2.3282 -3.18945,0.7881 -0.12585,-0.286 -0.19458,-0.8329 0.10179,-0.9319 3.02702,-1.0117 6.22224,-1.4273 9.31501,-2.2154 0.0628,-0.016 -0.0981,-0.1523 -0.15375,-0.1191 -1.74787,1.0419 -3.43241,2.1865 -5.14861,3.2798 -2.57793,0.7211 -4.68559,2.1986 -7.17591,0.7159 -0.39705,-0.2364 -0.30134,-0.9818 -0.71507,-1.1876 -0.22822,-0.1135 -0.421,0.8172 -0.17687,0.744 10.17736,-3.0551 5.95069,-4.8781 10.0532,-2.7513 -4.48294,3.288 -5.14532,5.0795 -10.79106,4.7698 -0.87321,-0.048 -1.52933,-0.8544 -2.33067,-1.2046 -1.22251,-0.5343 -0.9776,-0.01 -1.02848,1.3295 -0.0125,0.3288 0.11862,-0.6473 0.17793,-0.9709 -2.98441,2.8186 11.98607,-6.9037 7.93961,-3.4276 -1.76757,1.5184 -3.1449,3.7386 -5.34547,4.505 -1.62285,0.5652 -3.38474,-0.5971 -5.08077,-0.8738 -0.68175,-0.1112 -1.36795,-0.1932 -2.05193,-0.2898 -0.24304,0.01 -0.48608,0.012 -0.72912,0.017 -0.0185,0.032 -0.0588,0.1342 -0.0554,0.097 0.008,-0.085 0.14709,-0.2842 0.0693,-0.248 -0.12559,0.059 -0.16636,0.2215 -0.24989,0.332 -0.20994,0.2778 -0.28544,0.8796 -0.63051,0.8329 -0.45401,-0.061 -0.59932,-0.6931 -0.89899,-1.0397 -0.72199,0.4644 -0.79039,0.7589 -1.6306,0.4833 -0.24591,-0.081 -0.40872,-0.4276 -0.66596,-0.3992 -0.27329,0.03 -0.35562,0.4741 -0.62215,0.5416 -1.59989,0.4052 0.51938,-1.4486 -1.25591,0.4597 2.69902,-1.4154 5.25614,-3.143 8.09706,-4.2463 0.32025,-0.1244 0.55211,0.7672 0.28984,0.9891 -1.64301,1.3902 -3.48779,2.6044 -5.48492,3.4067 -2.8892,1.1607 -5.00375,0.8665 -7.64507,-0.018 -0.18283,-0.03 0.0483,0.2617 0.0106,0.2047 -0.73266,-1.1079 0.48439,0.4005 -0.87547,0.2862 -2.84872,-0.2395 0.84968,-1.58 -1.74107,-0.4201 -0.25307,-0.4086 -0.28743,-1.3171 -0.75922,-1.2257 -0.541,0.1049 -0.30301,1.1067 -0.68344,1.5054 -0.14609,0.1531 -0.40774,-0.1488 -0.61918,-0.1402 -0.21516,0.01 -0.40203,0.1892 -0.61736,0.1902 -0.0882,4e-4 -1.24354,-0.3782 -1.30645,-0.3984 -1.10252,1.078 -1.47912,0.038 -2.03022,0.1546 -0.28644,0.061 -0.41146,0.7137 -0.66726,0.5713 -4.17866,-2.3269 1.39723,-0.822 -1.32706,-1.4701 -1.94574,-0.1225 1.11132,-0.1286 -1.33161,1.0926 -0.24299,0.1215 -0.40482,-0.3982 -0.66744,-0.4677 -0.88211,-0.2334 -0.64007,0.5133 -1.3345,0.7808 -0.21274,0.082 -0.44446,-0.1017 -0.66669,-0.1526 -0.098,-0.1154 -0.93427,-1.2648 -1.33294,-1.1946 -0.30437,0.054 -0.43941,0.4348 -0.66657,0.6444 -0.21738,0.2005 -0.37665,0.6433 -0.66666,0.5854 -1.45976,-0.2915 0.1572,-2.3392 -1.33343,0.3521 -1.55791,-4.6022 0.16506,-1.3316 -1.33336,-1.1346 -0.30992,0.041 -0.35967,-0.7185 -0.66665,-0.6596 -0.37074,0.071 -0.33727,0.7311 -0.66666,0.9156 -0.20002,0.112 -0.44444,-0.1127 -0.66666,-0.169 -0.22222,0.2585 -0.44444,0.5171 -0.66666,0.7756 -2.40652,-2.3199 1.22905,0.7577 -1.33334,0.1827 -0.42521,-0.095 -0.26817,-0.9482 -0.66667,-1.1246 -0.26047,-0.1152 -0.43111,0.3745 -0.66667,0.5346 -0.71639,0.487 -0.53885,0.3779 -1.33333,0.3409 -0.2272,0.1413 -2.57536,-1.0284 -2.66667,-0.949 -1.30908,1.1389 10e-4,2.1011 -1.33333,0.6667 -0.47785,0.4087 -0.89141,-0.2108 -1.33333,-0.1435 -0.25768,0.039 -0.40963,0.4517 -0.66667,0.4086 -0.3021,-0.051 -0.36888,-0.7044 -0.66667,-0.6326 -1.56489,0.3775 0.21248,2.0535 -1.33333,0.1206 -0.22222,-0.2633 -0.35985,-0.9468 -0.66667,-0.79 -0.47949,0.2451 -0.15501,1.3036 -0.66666,1.4715 -0.38965,0.1279 -0.26754,-1.1281 -0.66667,-1.0339 -0.48805,0.1151 -0.17968,1.229 -0.66667,1.3485 -0.39479,0.097 -0.30233,-0.8409 -0.66666,-1.0212 -2.9902,-1.4801 -6.15214,-2.5844 -9.22821,-3.8766 -1.59791,-0.3638 -7.26487,-1.7115 4.06811,2.5854 1.04112,0.3948 2.22932,0.1126 3.32676,0.3007 0.24677,0.042 0.70047,0.1358 0.64757,0.3805 -0.0531,0.2459 -0.53829,-0.047 -0.74926,0.09 -0.50107,0.3254 -0.86399,0.8254 -1.29598,1.2381 -0.44796,-0.3271 -1.63408,-1.5604 -2.52941,-1.2083 -0.32609,0.1283 -0.4325,1.0631 -0.67257,0.8079 -0.45576,-0.4846 0.1747,-1.6286 -0.40547,-1.9541 -7.40782,-4.1559 -6.17156,-4.5538 -9.56442,-2.7774 1.66012,0.5688 3.37161,1.0053 4.98038,1.7063 1.05478,0.4596 4.11685,1.8554 2.97042,1.758 -1.64652,-0.1398 -2.94435,-1.6663 -4.58092,-1.8948 -0.53967,-0.075 -1.44973,0.5887 -1.22331,1.0844 0.21678,0.4745 0.86977,-0.6754 1.38955,-0.7205 0.51586,-0.045 0.98676,0.3143 1.48013,0.4715 -1.74311,-0.6222 -3.48623,-1.2443 -5.22934,-1.8665 -0.20369,-0.1119 -0.74739,-0.5238 -0.61106,-0.3356 0.37565,0.5185 1.93256,1.6377 1.3546,1.3621 -2.30901,-1.1014 -4.28996,-2.8288 -6.62423,-3.8756 -0.36914,-0.1655 0.12015,0.9206 0.47354,1.1175 1.59612,0.8895 3.40455,1.3282 5.10682,1.9923 -1.99815,-1.1899 -3.89349,-2.5725 -5.99446,-3.5697 -0.55519,-0.2635 0.74994,1.0133 1.27639,1.3304 1.14787,0.6913 4.92252,2.1152 3.66709,1.6468 -2.19501,-0.8189 -4.37963,-1.6807 -6.48921,-2.6997 -0.40578,-0.196 0.9115,0.057 1.33546,0.2102 1.25885,0.4536 2.45502,1.0653 3.68253,1.5979 -14.91576,-10.0804 -7.66681,-1.6552 -5.75263,-1.2298 1.46988,0.3266 5.57539,1.5064 4.49386,0.4588 -1.69091,-1.6379 -4.31376,-1.9582 -6.60402,-2.5028 -0.49659,-0.1181 1.27624,1.5908 0.99035,1.1679 -1.34785,-1.9935 -2.78681,-3.924 -4.18021,-5.8859 -1.32503,4.921 8.78608,3.2885 8.02946,6.6888 -0.45317,2.0367 -4.01792,-1.1982 -5.88845,-2.1224 -0.41466,-0.2049 1.68572,0.2468 1.38372,-0.1035 -1.69333,-1.9643 -3.94978,-3.3631 -5.87247,-5.1035 -0.92947,-0.8414 1.92771,1.6034 2.89157,2.4052 -8.96166,-9.5915 0.26129,0.1886 0.0888,0.3874 -1.16539,1.3431 -3.44066,-3.9139 -4.65154,-2.6117 -1.18351,1.2728 3.39444,4.682 4.17188,3.1275 0.16746,-0.3348 -7.93862,-10.3607 -0.66582,-1.2672 -1.34539,-1.3581 -3.61695,-2.2091 -4.03616,-4.0742 -0.32895,-1.4635 2.38929,1.8309 3.69707,2.5656 1.53402,0.8617 6.11374,3.3711 4.79571,2.2055 -1.54676,-1.368 -4.04632,-1.3765 -5.50772,-2.8352 -6.41685,-6.4054 -5.30787,-12.614 -5.74153,-4.2901 0.59213,-2.6322 1.44612,-9.425 4.42054,3.1967 0.29811,1.2649 -4.22908,-2.0272 -3.01014,-2.4781 1.35325,-0.5005 4.60901,3.3512 3.71813,2.2162 -8.71945,-11.1083 -1.70084,5.6847 -7.02956,-10.352 0.58298,1.524 1.43772,2.9703 1.74895,4.5721 0.10539,0.5424 -0.73418,-0.8259 -1.10127,-1.2388 -0.33091,-1.3773 -1.72267,-5.3459 -0.99273,-4.132 1.12511,1.8712 1.50021,4.1012 2.21478,6.1644 0.25153,0.7262 -0.48488,-1.4639 -0.82542,-2.1529 -0.80812,-1.6351 -1.74288,-3.2045 -2.61432,-4.8067 0.70693,1.9474 1.42949,3.8891 2.12079,5.8421 0.48788,1.3783 -4.7793,-13.2443 -3.54992,-7.3494 0.44252,2.1219 1.59256,4.0732 2.82196,5.8583 0.48297,0.7013 -0.22394,-1.7012 -0.51112,-2.5029 -0.58321,-1.6279 -1.39135,-3.1662 -2.08703,-4.7493 6.0313,1.6531 -0.52096,-6.6982 -0.49876,-5.0176 0.0367,2.7838 1.49353,5.3666 2.10029,8.0837 0.0923,0.4133 0.16704,1.6544 -0.0114,1.2704 -0.76183,-1.6395 -3.449,-5.8159 -1.779,-5.1235 1.87297,0.7765 1.75962,3.6535 2.63943,5.4802 1.07078,-2.7256 -5.93223,-6.4725 -3.8643,-8.9982 1.18565,-1.4481 1.99721,3.1842 2.73012,4.9063 0.26652,0.6263 -1.02163,-0.95 -1.30894,-1.567 -0.41705,-0.8955 -2.08888,-6.3092 -2.53713,-7.7386 0.17704,-0.5128 0.34007,-2.0462 0.53112,-1.5384 0.95422,2.5361 1.06632,5.3231 1.86687,7.9119 0.0876,0.2835 0.83843,0.7799 0.73502,0.5019 -0.5841,-1.5705 -1.64063,-2.9372 -2.22484,-4.5076 -0.50701,-1.363 -0.63423,-2.8399 -1.02909,-4.2394 -0.22082,-0.7827 -0.54381,-1.5329 -0.81572,-2.2993 3.755,-2.2394 1.31928,-1.3335 3.01506,7.7798 0.0773,0.4154 0.30383,1.6297 0.0924,1.264 -1.54702,-2.6754 -3.31171,-6.7911 -3.40398,-10.0325 -0.023,-0.8093 0.52303,-1.5326 0.78454,-2.2989 0.21294,2.4985 0.42588,4.9969 0.63882,7.4954 0.31504,0.132 1.0355,0.7254 0.94511,0.396 -3.96137,-14.4347 -0.56357,5.1461 -2.61321,-8.3138 -0.38594,-2.5345 -0.81587,-1.6079 0.3576,-2.9917 -3.24501,-1.8746 1.0126,0.4692 3.23852,8.4902 0.14232,0.5128 -0.43739,1.6431 -0.87272,1.337 -1.92788,-1.3559 -3.93258,-3.0451 -4.71649,-5.2679 -0.63736,-1.8071 0.76103,-3.771 0.85361,-5.6851 0.0395,-0.8164 -0.3081,-1.6054 -0.46215,-2.4081 1.22137,-0.7157 1.97065,-0.821 -0.0421,-0.8784 -0.42094,-0.012 1.14733,0.3525 1.26224,-0.053 0.0665,-0.2343 -0.27132,-0.4047 -0.40698,-0.6071 0.15322,-0.2892 0.30644,-0.5785 0.45966,-0.8677 -0.61136,-0.6419 0.0825,-2.2223 0.0226,-2.322 -0.66372,-1.1068 -1.9501,0.017 -0.82301,-1.8785 -1.86795,-3.7399 -0.31944,-0.1814 4.70377,-9.5949 0.0961,-0.1802 0.21633,-0.7372 0.0567,-0.6099 -1.50313,1.1986 -3.361,2.211 -4.2209,3.9305 -0.56115,1.1221 0.3437,2.4902 0.38285,3.7442 0.008,0.2467 -0.16273,0.466 -0.2441,0.6991 1.94713,-3.4532 -1.3898,2.972 -0.14707,-2.1325 0.1512,-0.6211 1.0194,-0.8471 1.27365,-1.4335 1.40066,-3.2308 2.44382,-6.6051 3.64626,-9.9147 0.064,-0.1761 0.26146,-0.6934 0.15244,-0.541 -1.15334,1.6117 -2.20202,3.2957 -3.30302,4.9435 1.29709,-1.5107 2.81833,-2.8549 3.89126,-4.5323 0.50274,-0.786 -1.7232,0.967 -2.14354,1.8 -0.64439,1.2769 -0.45915,2.8331 -0.88372,4.199 -0.19011,0.6116 -1.11466,2.2913 -0.94204,1.6745 2.07273,-7.4056 0.63539,-5.9308 3.59031,-8.3533 6.87858,-6.0556 8.13256,-5.9908 1.55674,-3.4302 13.00097,-12.1654 30.2054,6.2207 17.20443,18.3861 l 0,0 c -5.61455,4.9632 -5.12482,4.7037 0.84832,-1.43 3.70867,1.1725 -0.72536,0.1761 1.44478,-6.7074 0.32777,-1.0396 1.06083,2.0481 0.94185,3.1317 -0.20223,1.8415 -1.18182,3.5134 -1.86082,5.2371 -0.48498,1.2312 -1.4381,4.93 -1.62833,3.6205 -0.25451,-1.752 0.94028,-3.4137 1.41042,-5.1205 -1.09557,1.8889 -2.16368,3.7939 -3.28672,5.6666 -0.0814,0.1357 -0.37398,0.4991 -0.32136,0.3498 1.06243,-3.0154 2.17957,-6.0124 3.36292,-8.9824 0.0296,-0.074 0.16269,-0.082 0.23512,-0.048 0.0501,0.024 -0.0912,0.063 -0.13676,0.094 0.0592,0.2475 0.11832,0.4951 0.17748,0.7426 0.20794,1.696 0.77943,6.0017 0.55005,6.9385 -0.53448,2.1827 -1.8324,4.1136 -2.96241,6.0561 -0.10112,0.1738 -0.63609,0.2647 -0.59958,0.067 1.83252,-9.924 -0.18978,-10.9877 3.18075,-8.5003 0.0483,1.8737 0.18766,-0.9057 -1.46671,1.4069 -0.46413,0.6487 2.60133,1.3996 0.16937,2.4238 0.18638,0.313 0.4837,0.7705 0.56329,1.1171 0.0811,0.3531 0.0161,0.7312 0.10859,1.0816 0.14699,0.5569 1.0606,2.1105 0.5955,2.8356 -0.24874,0.3878 -0.84623,0.3645 -1.26935,0.5468 0.39841,-1.3922 1.15253,-3.9141 0.83814,-4.7481 -0.6688,-1.7741 -2.25098,-3.1178 -3.75458,-4.2729 -0.41383,-0.3179 0.004,1.0724 0.21153,1.5512 4.62331,10.6671 5.03068,5.8878 4.39839,10.6648 -0.0206,0.1988 0.13069,0.6503 -0.0619,0.5965 -0.25685,-0.072 -0.21639,-0.4897 -0.36016,-0.7143 -1.20308,-1.8794 -3.04087,-3.5192 -2.09838,-6.1966 0.20497,-0.5823 0.85323,0.8923 1.27985,1.3385 0.78938,2.8188 1.57877,5.6376 2.36815,8.4564 0.28288,-2.4447 0.21756,0.024 -2.20137,-4.1438 -0.75318,-1.2978 -1.18518,-2.7618 -1.9009,-4.0807 -0.31824,-0.5864 0.4596,1.253 0.70342,1.874 3.64212,9.278 6.29113,7.2844 2.66653,9.4739 -0.0766,-0.2302 -0.28995,-0.4556 -0.22967,-0.6905 0.31407,-1.2242 1.73077,-2.36 1.31882,-3.5548 -0.50227,-1.4568 -2.61281,-1.7332 -3.56085,-2.948 -0.42819,-0.5487 1.69195,0.1766 1.91304,0.8365 3.06333,9.1438 -1.73971,9.2445 1.91545,9.0385 -0.22382,-2.6518 -0.032,-2.4386 -1.51569,-5.5522 -0.16678,-0.3501 -0.91609,-1.2231 -0.78518,-0.8582 5.40582,15.0709 1.88367,2.8276 1.11074,1.5303 -0.47742,-0.8014 -1.46883,-1.1502 -2.20324,-1.7253 1.45529,1.7518 2.70597,3.6962 4.36587,5.2556 1.02941,0.9671 -1.7321,-2.2407 -2.45081,-3.4565 -0.32312,-0.5467 1.0777,0.8235 1.25486,1.4332 0.83321,2.868 0.74644,5.969 1.71632,8.7936 0.14066,0.4097 1.27375,0.4214 1.29932,-0.011 0.0461,-0.7804 -0.78586,-1.3518 -1.17878,-2.0277 -0.13921,-1.4985 0.2275,-3.1358 -0.41763,-4.4954 -0.2765,-0.5827 -2.11594,-0.989 -1.89686,-0.3824 0.82764,2.2918 2.12969,4.5431 3.97435,6.1351 6.53095,5.6364 -3.76333,-7.5801 -3.26144,-5.0398 0.44196,2.2368 1.76306,4.2056 2.64458,6.3084 -0.53056,-1.3337 -0.97252,-2.7062 -1.59167,-4.0011 -1.18402,-2.4764 -8.71704,-4.5594 3.56357,5.4964 7.16629,5.868 -4.76475,-10.31 -2.96187,-3.0008 0.50309,2.0396 2.43244,3.4258 3.64866,5.1386 -1.07231,-1.845 -1.78037,-3.9569 -3.21692,-5.535 -1.14166,-1.2541 -5.72146,-1.7977 -4.29894,-2.721 1.58312,-1.0276 4.19516,0.5389 5.25924,2.0977 0.7211,1.0564 -4.28556,-1.2122 -3.8371,-0.014 0.78096,2.086 7.60702,7.8924 5.26669,4.1126 5.95062,10.8136 -1.59389,-3.1003 -3.05628,-4.247 -1.49423,-1.1717 -6.36653,-2.0979 -5.68716,-0.3248 0.75875,1.9803 4.21808,0.7305 6.16485,1.5715 1.70483,0.7365 2.91939,2.3791 4.63358,3.0935 1.49059,0.6213 -2.63198,-1.8718 -3.94797,-2.8077 1.24508,1.2123 2.49016,2.4247 3.73523,3.637 -1.2673,-0.7869 -4.64517,-3.5912 -3.80191,-2.3607 1.02025,1.4888 2.63122,2.7188 4.37253,3.1933 0.72413,0.1974 -11.05937,-10.608 1.20283,1.9035 1.24947,0.5626 -1.1967,-2.4656 -1.79505,-3.6984 0.84697,1.3271 3.9741,4.633 2.54092,3.9814 -2.07469,-0.9433 -3.13455,-3.3093 -4.70182,-4.9639 0.53254,0.4816 2.31514,1.4172 1.59762,1.445 -1.65559,0.064 -6.19737,-2.1983 -4.79156,-1.3216 10.09756,6.2977 4.50675,-1.6671 9.24091,6.9916 -1.18379,-1.4721 -2.76808,-2.6972 -3.55137,-4.4162 -0.32327,-0.7094 2.77498,1.4132 2.0511,1.1238 -1.85727,-0.7425 -4.91119,-0.5639 -5.46093,-2.487 -0.49237,-1.7225 3.56414,0.6743 5.16984,1.4687 1.17576,0.5817 6.35688,8.7813 -3.93466,-0.075 1.76345,0.1789 3.58392,0.057 5.29034,0.5367 4.24719,1.1934 -0.31771,5.8671 -3.92695,-0.7885 -0.84435,-1.5571 3.52661,0.6063 5.14645,1.3228 1.09884,0.4861 8.68745,8.2074 -3.59347,-0.2836 2.0168,0.6757 4.07781,1.2316 6.05041,2.0272 0.61738,0.249 2.32206,1.2426 1.67446,1.0884 -2.21921,-0.5284 -4.61486,-0.9029 -6.47016,-2.2303 -1.19852,-0.8575 13.29724,1.4454 -0.46738,-0.7839 5.10228,2.523 0.43718,0.7488 5.41308,1.3173 0.26143,0.03 0.92313,0.4216 0.66023,0.4328 -1.092,0.046 -4.32008,-0.045 -3.26303,-0.3227 4.45889,-1.1725 6.8739,0.8672 10.92674,2.6133 2.57398,2.6875 2.26135,2.1823 -8.83441,-1.7675 -0.36094,-0.1285 0.50364,-0.7795 0.88412,-0.7345 0.84586,0.1 0.29884,1.446 0.86632,0.6768 0.0143,-0.019 -0.0479,0 -0.0719,-0.01 -0.0662,-2.0696 -0.10437,0.9082 0.87402,0.5248 0.98465,-0.3858 1.01988,-2.304 2.07288,-2.4018 3.44612,-0.3199 8.16543,4.3642 10.3844,5.84 -2.85035,-1.1447 -5.66239,-2.3899 -8.55106,-3.4342 -0.27783,-0.1005 0.43048,0.4065 0.66666,0.5839 1.1767,0.8842 1.587,0.081 2.66667,-0.5001 0.22222,0.1344 0.44444,0.2687 0.66667,0.403 0.22222,-0.217 0.36483,-0.7241 0.66666,-0.6509 0.38237,0.093 0.30341,0.8229 0.66667,0.974 0.24238,0.1009 0.40576,-0.3902 0.66667,-0.4193 0.2384,-0.026 0.44444,0.1807 0.66666,0.271 0.22223,-0.053 0.44445,-0.1057 0.66667,-0.1586 0.22222,0.1042 0.4565,0.1857 0.66667,0.3124 0.23643,0.1426 0.45822,0.6726 0.66666,0.4915 0.44776,-0.3888 0.16949,-1.3262 0.66667,-1.6495 0.28726,-0.1868 0.33376,0.7013 0.66667,0.7825 1.81005,0.4413 -0.64213,-2.1807 1.33333,0.4204 0.22222,-0.4051 0.20864,-1.1544 0.66667,-1.2154 0.40756,-0.054 0.30418,0.8438 0.66666,1.0378 0.94842,0.5078 0.55407,-1.5222 1.33334,-1.1298 1.45244,0.7313 -0.11678,3.1721 1.33332,0.035 0.22223,0.3316 0.31352,0.8087 0.66667,0.9948 0.52955,0.279 1.51753,-1.5119 2.00003,-1.0749 0.39068,0.3537 0.14978,1.3307 0.66667,1.4338 0.43959,0.088 0.44443,-0.7786 0.66664,-1.1679 2.11218,2.0251 -1.06459,-0.6039 1.33323,-0.4448 0.72501,0.048 0.50175,2.1884 1.33343,1.622 0.41679,-0.2839 0.2641,-1.0545 0.66686,-1.358 0.20089,-0.1513 0.44458,0.2354 0.66687,0.3531 0.22223,0.049 0.46127,0.2431 0.66668,0.1455 0.30866,-0.1468 0.39322,-0.9849 0.66631,-0.7794 0.50666,0.3813 0.0601,1.5949 0.66596,1.782 0.48531,0.1499 0.23791,-1.0969 0.66575,-1.3707 0.393,-0.2515 0.74894,1.284 1.33474,0.4216 0.22326,-0.074 0.44652,-0.1487 0.66978,-0.223 0.2233,0.036 0.45039,0.1626 0.66989,0.1081 0.25863,-0.064 0.41446,-0.5249 0.66723,-0.4405 0.34891,0.1166 0.31936,0.7467 0.66061,0.8841 0.41156,0.1657 0.7992,-0.9531 1.3083,-0.2447 0.22159,-0.093 0.47023,-0.1377 0.66477,-0.2787 0.26598,-0.1928 0.36217,-0.7212 0.6902,-0.7035 0.35221,0.019 0.37537,0.6873 0.71589,0.7792 0.26402,0.071 0.47771,-0.5154 0.72126,-0.391 0.38095,0.1946 0.24035,1.0363 0.66358,1.0984 0.35746,0.053 0.38634,-0.6106 0.57951,-0.9159 2.13214,1.8106 -1.67256,-1.1563 0.89604,-0.3598 0.41236,0.1279 0.25448,1.0362 0.68124,1.1016 0.43898,0.067 0.5915,-0.818 1.03511,-0.8388 4.03937,-0.1896 -1.34532,2.1905 2.82109,-0.047 0.22962,0.219 0.6604,0.3409 0.68888,0.657 0.0188,0.2083 -0.4183,0.057 -0.6264,0.036 -1.21855,-0.1223 -2.46143,-0.7815 -3.64447,-0.4649 -1.89452,0.507 -3.67225,1.5471 -5.16275,2.8217 -0.3362,0.2875 0.79981,0.3782 1.19971,0.5673 3.13572,-1.1862 6.27144,-2.3724 9.40716,-3.5585 1.27174,-1.4462 0.61382,-0.4844 2.12989,-0.6064 0.23351,-0.019 0.4471,-0.236 0.67673,-0.1897 0.2357,0.048 0.336,0.4948 0.57047,0.4415 0.26303,-0.06 0.29932,-0.4488 0.44897,-0.6732 0.15476,0.4009 0.12257,0.9421 0.46427,1.2027 0.1922,0.1466 0.37912,-0.3608 0.62039,-0.3755 0.36085,-0.022 0.68799,0.269 1.04948,0.2736 0.48014,0.01 0.93988,-0.2479 1.42002,-0.2422 3.52105,0.042 -0.20197,0.5155 2.18341,0.1509 -0.1977,-0.3829 -0.16541,-1.2015 -0.59311,-1.1487 -3.34259,0.4127 -5.08738,3.7532 -7.52368,5.4245 -0.2227,0.1527 -0.76061,-0.4636 -0.53352,-0.6097 2.97787,-1.9166 6.02662,-3.8145 9.3419,-5.0595 0.49562,-0.1862 0.74167,0.7556 1.11251,1.1335 0.48394,-0.2659 0.96789,-0.5318 1.45184,-0.7977 0.42961,0.212 0.82357,0.7504 1.28885,0.6362 0.45514,-0.1118 1.27604,-1.1434 0.80744,-1.151 -0.49268,-0.01 -0.45752,1.0093 -0.93005,1.149 -11.33381,3.3509 5.69287,-4.7844 -8.89834,2.9442 4.08023,-2.7596 1.47365,-1.1778 11.6962,-3.6778 0.43162,-0.1056 0.95836,0.2287 1.33298,-0.01 0.44608,-0.2845 1.19562,-0.9917 0.81679,-1.3611 -1.16208,-1.1331 -1.65111,8.6733 -4.43159,2.0175 -1.37983,0.9524 -2.633,2.1213 -4.13948,2.857 -0.31682,0.1548 0.019,-0.8564 0.34042,-1.0015 3.30051,-1.49 6.711,-2.7649 10.19443,-3.7545 0.45505,-0.1293 0.92428,0.2458 1.33595,0.4788 0.21116,0.1195 0.70986,0.6221 0.47867,0.5484 -0.39211,-0.1249 -0.67038,-0.4775 -1.00556,-0.7163 -1.75574,-0.2573 -3.57699,-1.3695 -3.80449,1.5174 -0.042,0.5326 0.55826,-1.0345 1.06773,-1.1952 2.22482,-0.7018 4.61337,-0.7379 6.87493,-1.3105 0.34099,-0.086 0.69888,-0.9654 0.83744,-0.6421 0.21268,0.4963 -0.29678,1.0383 -0.44517,1.5575 -0.80954,-0.1951 -1.6074,-0.723 -2.42863,-0.5852 -1.29354,0.2171 -2.45396,0.9522 -3.59653,1.5964 -0.14921,0.084 0.32671,0.207 0.4899,0.155 15.63715,-4.9873 4.33458,-1.8833 1.39008,-0.7915 4.22475,1.1803 1.52658,0.7778 9.40012,-2.4866 0.65122,-0.27 -1.35089,0.4058 -2.03502,0.5759 -1.62095,0.4033 -3.45272,0.2742 -4.87874,1.144 -0.6156,0.3755 -1.09079,2.4657 -0.46166,2.1134 1.50647,-0.8437 2.33495,-2.5442 3.50242,-3.8163 -5.33269,2.9634 -1.74765,0.4094 -2.80898,1.7815 -0.79898,1.0329 -3.3916,3.9569 -2.43116,3.0721 1.96715,-1.8123 3.64631,-3.9141 5.46946,-5.8711 -0.14364,0.2005 -0.65748,0.6988 -0.4309,0.6014 2.06924,-0.8895 4.03118,-2.0105 6.04676,-3.0157 -1.68688,0.9015 -3.51299,1.5806 -5.06065,2.7044 -1.27869,0.9285 -4.8957,3.2414 -3.32176,3.3824 1.74019,0.156 2.5519,-2.4324 4.05897,-3.3163 1.31115,-0.769 -4.72675,3.8115 -3.46303,2.9668 1.7246,-1.1528 8.05952,-6.8825 1.53748,-1.0562 14.15408,-10.4654 0.66548,0.3302 0.66956,-2.275 0.002,-1.579 3.87877,-3.9748 4.07905,-2.4085 0.27647,2.1621 -2.03202,3.9872 -3.69735,5.3935 -0.58423,0.4934 0.52706,-2.8724 0.027,-2.2939 -1.11628,1.2915 -1.39106,3.1178 -2.08659,4.6767 0.97864,-2.4561 1.42719,-5.1971 2.93593,-7.3683 1.06204,-1.5283 5.23203,-5.0252 4.49024,-3.3183 -0.83589,1.9234 -2.93973,3.1071 -4.81044,4.0551 -0.71437,0.362 0.70771,-1.4369 1.06156,-2.1553 -0.27065,2.3256 -0.54131,4.6513 -0.81196,6.9769 -0.53608,1.4627 -0.0215,-3.1155 -0.0323,-4.6733 0.61025,-0.3705 1.68009,-1.8092 1.83075,-1.1114 0.34003,1.575 -1.25695,6.316 -1.0521,4.7178 0.30019,-2.342 0.34846,-4.8124 1.33896,-6.9557 0.7933,-1.7166 2.13381,-5.0629 3.81564,-4.1983 1.5549,0.7993 -8.71514,8.2259 -0.76708,2.2148 -5.42092,8.4094 -2.60356,4.8864 -1.5686,0.3211 0.0609,-0.2685 -0.57727,0.2384 -0.65529,0.5024 -0.7401,2.5039 -1.12988,5.0988 -1.74996,7.6351 -0.54548,2.2312 2.68914,-13.0102 1.60723,-6.7007 0.808,-1.4783 1.72309,-2.903 2.42401,-4.435 0.14459,-0.316 -0.66633,0.3997 -0.73379,0.7407 -0.51118,2.5834 0.0594,5.4151 -0.96436,7.8415 -0.28563,0.6769 -1.74298,-0.5143 -1.81888,-1.2452 -0.11851,-1.141 0.9456,-2.0916 1.36128,-3.1608 0.63381,-1.6302 1.19058,-3.2894 1.78586,-4.9341 5.44348,-9.5853 -2.04404,3.7075 -1.06241,1.3825 0.80079,-1.8966 2.16462,-3.5048 3.15583,-5.3092 0.0948,-0.1726 0.14228,-0.7722 0.0818,-0.5849 -2.83674,8.7937 -0.78107,10.9723 -3.2101,7.9516 -0.0561,-0.2202 -0.0209,-0.4877 -0.16823,-0.6608 -0.24918,-0.2928 -1.18878,-0.3517 -0.95042,-0.6533 0.43224,-0.5469 1.47717,-0.1796 1.98558,-0.6565 0.214,-0.2008 -0.46696,-0.3925 -0.57764,-0.6643 -0.17734,-0.4354 0.30208,-0.9932 -0.1319,-1.4042 0.41436,-1.7113 0.12537,0.3236 -0.39718,-1.3921 -0.0586,-0.1924 0.3073,-0.4092 0.19009,-0.5727 -0.19993,-0.2788 -1.11885,-0.1689 -0.92473,-0.4517 0.30959,-0.4511 1.29171,-0.013 1.56794,-0.4855 0.18686,-0.3195 -0.6155,-0.4112 -0.92325,-0.6167 0.2321,-1.5463 0.036,-0.7252 0.66695,-2.4432 0.0785,-0.4437 -0.003,-0.9014 -0.024,-1.3515 -0.0119,-0.2568 -0.22592,-0.5599 -0.0744,-0.7675 0.12801,-0.1755 0.11794,0.418 0.1769,0.627 0.13424,1.1017 0.26847,2.2034 0.4027,3.3051 0.90985,1.5174 1.87199,3.0045 2.72956,4.552 0.0774,0.1396 -0.30936,-0.1537 -0.37322,-0.3 -1.35445,-3.1021 -2.57262,-6.262 -3.85892,-9.3931 0.0299,-0.2384 0.11989,-0.4769 0.0896,-0.7153 -0.0322,-0.2529 -0.26933,-0.4602 -0.27144,-0.7151 -0.002,-0.2367 0.17339,-0.4404 0.26008,-0.6606 -0.0666,-1.2223 0.13859,0.081 -0.54546,-1.0223 -0.20309,-0.3277 -0.0593,-0.7727 -0.15537,-1.1461 -0.45941,-1.7854 -0.53003,-0.4752 0.0189,-2.5425 0.42153,-0.3976 1.11328,-0.6334 1.26458,-1.1927 0.0903,-0.3339 -0.40293,-0.7523 -0.74726,-0.7198 -0.4731,0.044 -1.21501,0.4313 -1.10983,0.8947 0.29914,1.3178 1.38948,2.3183 2.10006,3.4677 0.85047,1.3758 2.08144,2.57 2.58291,4.1077 0.18652,0.5719 -1.03113,-0.6201 -1.54669,-0.9302 -0.73854,-3.2981 -1.50123,-6.5909 -2.21563,-9.8943 -0.055,-0.2545 0.13498,-0.648 -0.0919,-0.7758 -0.23311,-0.1314 -0.75772,0.039 -0.74214,0.3058 0.10565,1.8115 2.31755,3.8921 2.83694,5.2971 0.0884,0.2392 -0.4849,0.1578 -0.72736,0.2367 -0.52413,-2.394 -0.67781,-4.9004 -1.57238,-7.182 -0.36405,-0.9285 -0.31816,2.0249 -0.0708,2.9911 0.33681,1.3156 1.53859,2.3296 1.77535,3.6668 0.10151,0.5734 -1.16501,-0.5765 -1.32721,-1.1357 -2.38716,-8.2304 0.57983,-11.0215 -2.03043,-8.3357 0.12542,4.8646 -0.53619,0.6345 2.53894,5.5928 0.19108,0.3081 -0.82783,-0.1695 -0.96273,-0.506 -1.00039,-2.4955 -1.80664,-5.0841 -2.33502,-7.7202 -0.41759,-2.0833 5.41389,10.9714 1.92249,6.0774 2.43436,2.8328 1.64156,2.0608 -2.53465,-5.1336 -0.7273,-1.2529 1.38838,2.5431 2.08258,3.8146 0.32445,0.3181 1.17695,1.3605 0.97337,0.9543 -0.47454,-0.9468 -6.81073,-12.1125 -1.91525,-2.5352 1.79229,2.3603 4.32597,5.9226 -1.84095,-5.9366 -0.77611,-1.4925 0.88969,3.254 1.53372,4.808 0.22187,0.5354 1.4452,1.8069 1.03708,1.3955 -3.89861,-3.9308 -4.82778,-6.1937 -2.22306,-1.3346 0.18924,-0.1065 0.36345,-0.3931 0.56773,-0.3195 1.20572,0.4347 3.9503,2.924 3.42008,1.7572 -1.02381,-2.2532 -3.18211,-3.8267 -5.08141,-5.4134 -0.35471,-0.2963 0.41722,1.7918 0.23701,1.3662 -0.76726,-1.8122 -3.93566,-5.1505 -2.009,-5.5514 2.04287,-0.425 2.25752,3.5099 3.38628,5.2649 0.84572,0.9167 3.30414,3.7336 2.53715,2.7501 -1.55352,-1.9921 -2.84166,-4.3174 -4.90073,-5.7809 -0.51469,-0.3659 -1.0051,1.909 -1.31812,1.3606 -1.13274,-1.9846 -2.6133,-4.549 -1.69636,-6.642 1.38145,-3.1533 3.80262,11.8666 4.88336,9.1004 -0.96293,-1.2833 -4.05172,-2.7446 -2.8888,-3.8499 1.2216,-1.1611 5.26257,0.8354 4.48644,2.3314 -0.77694,1.4975 -3.01568,-2.7176 -4.59454,-2.123 -1.14841,0.4324 2.5674,4.1822 1.96443,3.1134 -4.94778,-8.7701 -3.77754,-11.132 -5.23429,-7.0144 -0.27768,-1.4809 -2.00746,-5.3865 -0.83305,-4.4426 2.1605,1.7363 2.38183,5.0903 4.22014,7.1647 0.90254,1.0185 4.45047,0.6308 3.68542,1.7563 -2.60347,3.8297 -8.46719,-6.1051 -7.68213,-6.9985 0.99209,1.4131 3.04868,2.5142 2.97627,4.2392 -0.0686,1.6346 -14.05979,-8.8615 3.02258,1.0747 1.33169,0.7746 -2.95113,-0.8857 -4.4267,-1.3286 0.0767,-0.039 0.14467,-0.1277 0.2302,-0.1175 2.21559,0.2653 4.41873,0.6258 6.62809,0.9387 -3.32647,-0.1186 -5.5994,-0.01 -8.99297,-1.2961 -0.95285,-0.3611 -3.40118,-2.1281 -2.41407,-1.8753 2.04709,0.5242 4.92539,0.767 5.72478,2.7232 0.68156,1.6677 -5.77076,0.2515 -5.09849,-1.7941 2.31814,0.349 4.7554,0.2347 6.9544,1.047 1.13003,0.4175 -2.43149,0.4429 -3.60905,0.1888 -1.5189,-0.3277 -2.84036,-1.2611 -4.26246,-1.8873 -0.19959,-0.088 -0.81701,-0.2945 -0.60256,-0.2549 2.02592,0.3746 4.28179,0.2057 6.05051,1.2623 1.208,0.7216 -2.81204,-0.1118 -4.21805,-0.1677 -1.7215,-0.7868 -3.5467,-1.378 -5.1645,-2.3605 -0.20455,-0.1243 0.34815,-0.4867 0.57921,-0.4243 2.92147,0.7886 5.85272,1.6374 8.60159,2.9026 0.69112,0.3181 -1.54142,0.1783 -2.28244,0.01 -1.12026,-0.2607 -2.10664,-0.9359 -3.20342,-1.2824 -0.84181,-0.2659 -1.72741,-0.3653 -2.59112,-0.5479 -1.34941,2.4237 0.37547,-1.1352 4.37428,0.2784 0.72424,0.256 -0.98459,1.4248 -1.74902,1.5005 -1.21142,0.1199 -2.3461,-0.6508 -3.51831,-0.9791 -4.79484,-1.3432 -4.57925,0.2778 -4.32102,-2.375 1.93256,0.7588 4.3792,0.7604 5.79767,2.2764 1.07776,1.152 -3.17467,-0.3905 -4.62147,-1.0192 -1.90376,-0.8273 -3.51333,-2.2121 -5.2888,-3.2875 -0.1449,-0.088 -0.62589,-0.2593 -0.46758,-0.1991 8.88527,3.3832 10.29695,5.7767 7.87786,2.3227 -1.48405,2.8889 0.14544,0.7127 -1.33332,1.2214 -0.26944,0.093 -0.40005,0.6354 -0.6667,0.5349 -0.38462,-0.1448 -0.33505,-0.7944 -0.66671,-1.0372 -0.18009,-0.1318 -0.44447,0.041 -0.66671,0.061 -0.22222,-0.2035 -0.44444,-0.4071 -0.66666,-0.6106 -0.22219,0.068 -0.47848,0.068 -0.66657,0.2048 -0.27328,0.1984 -0.3353,0.6969 -0.66647,0.763 -0.45762,0.091 -1.15059,-1.3317 -1.33322,-1.3568 -0.31358,-0.043 -0.37407,0.556 -0.66703,0.6759 -0.20973,0.086 -0.44492,-0.086 -0.66739,-0.1297 -0.22249,0.3614 -0.26207,0.9587 -0.66748,1.0842 -0.30121,0.093 -0.37181,-0.5591 -0.6665,-0.6713 -0.21345,-0.081 -0.46161,0.2682 -0.66509,0.1645 -0.31837,-0.1622 -0.30737,-0.8661 -0.66384,-0.8416 -0.68987,0.048 -0.51879,1.5982 -1.33021,1.5919 -1.00247,-0.3274 -0.51912,-0.041 -1.35201,-1.006 -0.20354,-0.1035 -0.45187,0.066 -0.67813,0.097 -0.22164,0.03 -0.47601,-0.033 -0.66554,0.085 -1.51341,0.9484 0.14953,0.6691 -1.25666,0.7835 -1.63868,-2.199 -0.67726,0.1338 -2.06419,0.2836 -0.32296,0.035 -0.56217,-0.3385 -0.87282,-0.4335 -0.48848,-0.1493 -1.04312,5e-4 -1.50692,-0.2782 -0.0783,-0.3035 -0.1529,-0.6081 -0.23484,-0.9107 -0.0707,-0.261 0.29598,0.781 0.0272,0.8108 -0.32069,0.036 -0.50186,-0.5887 -0.81695,-0.5192 -0.7766,0.1713 -1.39018,0.7728 -2.08527,1.1591 -1.69376,0.05 -3.38751,0.1004 -5.08127,0.1506 -1.63859,-1.5267 -3.10359,-3.2641 -4.91577,-4.5801 -0.27463,-0.1994 -1.30433,0.2384 -0.9715,0.3049 3.01736,0.6028 6.21208,0.3653 9.1352,1.3262 0.50751,0.1668 -0.32756,1.0446 -0.66662,1.4574 -0.14533,0.177 -0.45836,0.071 -0.66661,0.1659 -0.24276,0.111 -0.44444,0.2957 -0.66666,0.4436 -0.22226,-0.1835 -0.40259,-0.4352 -0.66676,-0.5505 -0.20398,-0.089 -0.45077,0.022 -0.66686,-0.031 -0.23626,-0.058 -0.42359,-0.2997 -0.66686,-0.2967 -0.24548,0 -0.42144,0.3237 -0.6667,0.313 -0.4973,-0.022 -0.80142,-0.7153 -1.33223,-0.6747 -1.88496,2.3989 0.77495,-0.4639 -1.33256,-0.5313 -0.49762,-0.016 -0.19586,1.1779 -0.66799,1.3359 -0.3516,0.1177 -0.30589,-0.9604 -0.66957,-0.8882 -0.43637,0.087 -0.44686,0.7694 -0.67029,1.1541 -0.22233,0.01 -0.44465,0.017 -0.66698,0.026 -0.22019,-0.2237 -0.37996,-0.5304 -0.66057,-0.671 -0.19508,-0.098 -0.44253,0.064 -0.65451,0.012 -0.2376,-0.058 -0.44586,-0.4592 -0.65454,-0.3316 -0.37438,0.2288 -0.29139,0.9041 -0.66325,1.137 -0.40829,0.2557 -1.39733,-1.075 -1.40533,-1.0839 -0.24036,-0.01 -1.14484,-0.063 -1.38813,0.079 -0.39067,0.228 -0.61318,1.0415 -1.0348,0.8778 -0.23552,-0.092 -0.2387,-0.4826 -0.46186,-0.601 -0.19077,-0.1013 -0.43191,0.01 -0.64786,0.012 -2.39841,1.6269 -1.73055,0.6012 -3.79332,-0.1879 -0.23431,-0.09 -0.58552,-0.195 -0.75258,-0.01 -0.14465,0.162 0.42467,0.091 0.637,0.1372 1.10758,-0.2244 2.21516,-0.4488 3.32275,-0.6733 10.90313,-6.2391 -0.4739,0.2933 -5.22519,1.8225 -0.38016,0.1224 -0.39661,-0.7144 -0.70379,-0.9696 -0.43499,-0.3614 -0.8156,-0.1003 -1.22015,0.05 -0.94585,1.1583 0.0188,0.3634 -0.98216,-0.01 -0.57401,-0.2134 -1.17662,0.4352 -1.78881,0.4189 -4.23788,-0.113 1.34851,-0.7605 -2.77374,-0.151 -0.19324,0.1582 -0.78904,0.3383 -0.57973,0.4745 0.53942,0.351 5.02315,-1.2877 5.34416,-0.719 0.26225,0.4645 -0.86193,0.7334 -1.39252,0.7888 -2.33865,0.2442 -4.7023,0.062 -7.05345,0.093 -0.20247,-0.049 -0.67122,-0.3451 -0.6074,-0.1469 0.0733,0.2277 0.41667,0.3175 0.65471,0.2939 3.49657,-0.3472 2.66741,-0.975 6.23815,-2.2624 0.53323,-0.1922 -0.95851,0.6054 -1.43776,0.9081 -2.7373,0.7569 -5.4746,1.5139 -8.2119,2.2708 0.27545,-0.1007 0.53961,-0.2406 0.82637,-0.3022 1.06145,-0.2282 2.28655,0.01 3.20773,-0.5649 1.17369,-0.732 1.43664,-2.6196 2.72105,-3.1332 0.75725,-0.3028 0.0344,2.0447 -0.72732,2.336 -9.29883,3.556 -8.63957,-1.9148 -8.88293,2.3835 2.60502,0.389 4.25697,0.9327 7.01612,-0.9805 0.8186,-0.5677 2.05517,-2.9323 1.06915,-2.7907 -2.30434,0.3311 -4.35167,1.903 -6.04085,3.5049 -0.82342,0.7809 7.15111,-3.0861 3.1098,-1.3853 -2.77544,0.8623 -5.50416,1.8926 -8.32632,2.5869 -0.58338,0.1436 0.94938,-0.9037 1.54994,-0.9198 0.82143,-0.022 1.50618,0.8681 2.32624,0.8159 0.3602,-0.023 0.79453,-0.9609 0.43491,-0.9916 -1.16572,-0.1 -2.48462,1.4219 -3.43201,0.7354 -0.76937,-0.5575 1.64008,-0.9598 2.46011,-1.4397 -2.27839,3.9162 0.74403,-0.4629 -7.88337,2.9032 -0.77759,0.3034 1.70641,0.6109 2.48482,0.3096 1.94744,-0.7537 3.60312,-2.1213 5.30883,-3.3259 0.99429,-0.7023 3.81417,-3.0053 2.76993,-2.3797 -2.13995,1.2819 -4.05356,2.9085 -6.08034,4.3627 4.92857,1.1476 -8.94502,-2.3001 -4.79092,2.6317 1.40986,1.6738 4.61187,-0.4706 6.29286,-1.8719 1.35013,-1.1254 3.32647,-5.9123 1.86807,-4.9311 -1.89423,1.2743 -2.27324,3.96 -3.38693,5.9529 -0.38154,0.6828 0.79354,-1.348 1.19031,-2.0221 -1.47128,1.1799 -3.06896,2.2174 -4.41385,3.5395 -0.63504,0.6243 1.78164,-0.6726 2.26095,-1.4231 0.3217,-0.5037 -1.62881,-0.039 -1.70553,0.5534 -0.0707,0.5463 2.12198,-0.3962 1.6487,-0.1143 -1.59454,0.9499 -3.27142,2.0427 -5.1221,2.1834 -0.81918,0.062 1.03663,-1.2748 1.55495,-1.9122 0.17526,0.2713 0.30552,1.0498 0.52579,0.8137 1.11548,-1.1958 4.17703,-3.7384 2.5975,-4.1619 -1.60225,-0.4295 -2.06704,2.6231 -2.81561,4.1034 -0.42327,0.8371 2.48916,-2.8039 1.82406,-2.1426 -7.25026,7.2097 -7.32821,7.1976 -4.57291,5.0723 -1.66914,0.6288 -6.33448,3.078 -5.00741,1.8863 2.55826,-2.2974 6.45167,-2.8456 8.83524,-5.3237 1.16283,-1.209 1.80568,-6.4113 1.0242,-4.927 -1.19888,2.2771 -1.10628,5.0917 -2.3088,7.3668 -0.57214,1.0825 -3.73139,3.1709 -2.82547,2.3472 1.12026,-1.0186 2.31268,-1.9549 3.46902,-2.9323 -0.39613,0.1945 -0.84966,0.3006 -1.18838,0.5835 -1.63291,1.3637 -2.6755,3.6478 -4.69162,4.3271 -1.26632,0.4266 3.2602,-4.0242 2.05843,-3.4399 -1.49448,0.7265 -4.2513,5.0956 -3.06685,3.9301 1.00174,-0.9857 6.62759,-7.989 2.63593,-3.2906 0.81268,-1.6567 1.23428,-6.3687 2.43805,-4.9701 1.31098,1.5231 -0.88542,3.9552 -1.75021,5.7693 -1.03765,2.1766 -7.27881,7.4898 0.62934,-2.5582 0.75825,-0.9635 -3.12099,7.0309 -1.84507,3.1818 0.81261,-2.4177 1.63392,-4.8324 2.43785,-7.253 0.24393,-0.7345 -0.6388,1.4299 -0.75785,2.1946 -0.23775,1.5273 0.19662,3.1647 -0.30409,4.627 -0.37871,1.106 -10.87802,18.5641 0.5456,-2.7966 0.13181,0.2409 0.53755,0.4878 0.39544,0.7228 -0.37866,0.6262 -2.01141,0.7176 -1.70549,1.3823 0.16212,0.3523 0.87256,0.2117 1.01225,0.5735 0.54429,1.4095 -2.37311,-0.5326 0.12746,0.8768 -0.0922,2.575 0.25133,-2.8704 -1.12817,1.7416 -0.14035,0.4693 0.36373,0.9371 0.35145,1.4267 -0.0222,0.8867 -1.16124,1.6631 0.36261,2.1811 0.28295,0.096 -0.32892,-0.4991 -0.49338,-0.7486 -0.26416,-5.4937 0.56403,-2.9696 -3.69213,-8.3132 -0.12422,-0.1559 0.19328,0.3492 0.27707,0.5301 5.44727,11.7618 3.84213,6.0998 4.68601,12.2197 -0.1638,0.1846 -0.72466,0.6343 -0.49139,0.5538 2.21316,-0.7638 0.19093,-1.8969 -0.5009,-3.5374 -0.49823,-1.1815 -0.59966,-2.5302 -1.23887,-3.6417 -0.34223,-0.5951 0.16285,1.3658 0.31503,2.0352 0.60881,2.6781 1.31104,5.334 1.96656,8.0009 -0.0718,-0.2724 -0.17496,-0.5385 -0.21534,-0.8173 -0.16799,-1.16 0.12357,-2.4482 -0.40879,-3.4924 -0.71023,-1.3931 -1.98132,-2.4364 -3.14586,-3.4799 -0.41287,-0.37 0.58192,0.9441 0.85466,1.4267 5.20649,9.2138 7.45472,6.5665 4.30407,9.6505 -0.34924,-0.1488 -0.88209,-0.1048 -1.04773,-0.4464 -0.33279,-0.6864 -0.12035,-1.5245 -0.27054,-2.2723 -0.24706,-1.2302 -0.71994,-2.4114 -0.91891,-3.6502 -0.0209,-0.1303 0.3239,0.039 0.35935,0.1662 0.69368,2.4875 1.32156,4.9982 1.78907,7.538 0.14081,0.7649 -0.53646,-1.4602 -0.80469,-2.1903 -0.14861,-1.3056 -0.1806,-2.6298 -0.44582,-3.9167 -0.0928,-0.4505 -0.19651,0.9334 -0.0774,1.3776 0.69112,2.5783 1.59525,5.096 2.48711,7.6119 0.29157,0.8225 -0.3836,-1.7078 -0.68456,-2.527 -1.33784,-3.6411 -0.50209,-2.9216 -2.60788,-3.9953 1.00287,1.5844 2.93962,2.8793 3.00861,4.7531 0.1635,4.4408 0.0436,16.8666 -2.35048,13.1228 -2.82653,-4.4201 0.59845,-10.4789 0.6866,-15.7248 0.003,-0.1618 -0.43773,0.071 -0.42626,0.2325 0.0768,1.0808 0.16158,2.2235 0.6688,3.181 0.3266,0.6165 1.11909,0.8334 1.67864,1.2502 8.9508,13.4262 -10.03672,26.0845 -18.98752,12.6583 z"
             inkscape:connector-curvature="0" />
        </g>
        <text
           xml:space="preserve"
           style="font-style:normal;font-weight:normal;font-size:40px;line-height:125%;font-family:sans-serif;letter-spacing:0px;word-spacing:0px;fill:#000000;fill-opacity:1;stroke:none;stroke-width:1px;stroke-linecap:butt;stroke-linejoin:miter;stroke-opacity:1"
           x="425.88336"
           y="1025.3311"
           id="text4239"
           sodipodi:linespacing="125%"><tspan
             sodipodi:role="line"
             id="tspan4241"
             x="425.88336"
             y="1025.3311"
             style="font-style:italic;font-variant:normal;font-weight:normal;font-stretch:normal;font-size:30px;font-family:'Times New Roman';-inkscape-font-specification:'Times New Roman,  Italic'">m</tspan></text>
      </g>
    </g>
  </g>
</svg>
