<?xml version="1.0" encoding="UTF-8" standalone="no"?>
<!-- Created with Inkscape (http://www.inkscape.org/) -->

<svg
   xmlns:dc="http://purl.org/dc/elements/1.1/"
   xmlns:cc="http://creativecommons.org/ns#"
   xmlns:rdf="http://www.w3.org/1999/02/22-rdf-syntax-ns#"
   xmlns:svg="http://www.w3.org/2000/svg"
   xmlns="http://www.w3.org/2000/svg"
   xmlns:xlink="http://www.w3.org/1999/xlink"
   xmlns:sodipodi="http://sodipodi.sourceforge.net/DTD/sodipodi-0.dtd"
   xmlns:inkscape="http://www.inkscape.org/namespaces/inkscape"
   width="325"
   height="175"
   viewBox="0 0 325 175"
   id="svg4333"
   version="1.1"
   inkscape:version="0.91 r13725"
   sodipodi:docname="Water rocket.svg"
   inkscape:export-filename="C:\Users\ZOWEN11\Box Sync\CS\Website\Rocket.png"
   inkscape:export-xdpi="150"
   inkscape:export-ydpi="150">
  <defs
     id="defs4335">
    <linearGradient
       inkscape:collect="always"
       id="linearGradient18263">
      <stop
         style="stop-color:#323232;stop-opacity:1;"
         offset="0"
         id="stop18265" />
      <stop
         style="stop-color:#323232;stop-opacity:0;"
         offset="1"
         id="stop18267" />
    </linearGradient>
    <linearGradient
       inkscape:collect="always"
       id="linearGradient18255">
      <stop
         style="stop-color:#323232;stop-opacity:1;"
         offset="0"
         id="stop18257" />
      <stop
         style="stop-color:#323232;stop-opacity:0;"
         offset="1"
         id="stop18259" />
    </linearGradient>
    <linearGradient
       inkscape:collect="always"
       id="linearGradient18247">
      <stop
         style="stop-color:#323232;stop-opacity:1;"
         offset="0"
         id="stop18249" />
      <stop
         style="stop-color:#323232;stop-opacity:0;"
         offset="1"
         id="stop18251" />
    </linearGradient>
    <linearGradient
       inkscape:collect="always"
       id="linearGradient18153">
      <stop
         style="stop-color:#00a7ff;stop-opacity:1;"
         offset="0"
         id="stop18155" />
      <stop
         style="stop-color:#00a7ff;stop-opacity:0;"
         offset="1"
         id="stop18157" />
    </linearGradient>
    <linearGradient
       inkscape:collect="always"
       id="linearGradient18060">
      <stop
         style="stop-color:#000000;stop-opacity:1;"
         offset="0"
         id="stop18062" />
      <stop
         style="stop-color:#000000;stop-opacity:0;"
         offset="1"
         id="stop18064" />
    </linearGradient>
    <linearGradient
       inkscape:collect="always"
       xlink:href="#linearGradient18060"
       id="linearGradient18066"
       x1="62"
       y1="-952.36218"
       x2="44"
       y2="-952.36218"
       gradientUnits="userSpaceOnUse"
       gradientTransform="translate(-8.7500012,3e-5)" />
    <linearGradient
       inkscape:collect="always"
       xlink:href="#linearGradient18153"
       id="linearGradient18159"
       x1="229.46429"
       y1="914.9693"
       x2="247.46429"
       y2="905.9693"
       gradientUnits="userSpaceOnUse"
       gradientTransform="translate(2.3387686,-16.071429)" />
    <linearGradient
       inkscape:collect="always"
       xlink:href="#linearGradient18247"
       id="linearGradient18253"
       x1="53.25"
       y1="904.36212"
       x2="255.75"
       y2="952.36212"
       gradientUnits="userSpaceOnUse" />
    <linearGradient
       inkscape:collect="always"
       xlink:href="#linearGradient18255"
       id="linearGradient18261"
       x1="53.25"
       y1="1000.3622"
       x2="255.75"
       y2="952.36212"
       gradientUnits="userSpaceOnUse" />
    <linearGradient
       inkscape:collect="always"
       xlink:href="#linearGradient18263"
       id="linearGradient18269"
       x1="53.25"
       y1="952.36218"
       x2="255.75"
       y2="952.36212"
       gradientUnits="userSpaceOnUse" />
  </defs>
  <sodipodi:namedview
     id="base"
     pagecolor="#ffffff"
     bordercolor="#666666"
     borderopacity="1.0"
     inkscape:pageopacity="0.0"
     inkscape:pageshadow="2"
     inkscape:zoom="1.3748176"
     inkscape:cx="105.57554"
     inkscape:cy="124.09898"
     inkscape:document-units="px"
     inkscape:current-layer="g18578"
     showgrid="false"
     units="px"
     inkscape:snap-page="true"
     inkscape:snap-text-baseline="true"
     inkscape:snap-object-midpoints="true"
     inkscape:snap-midpoints="true"
     inkscape:snap-smooth-nodes="true"
     inkscape:object-nodes="true"
     inkscape:snap-intersection-paths="true"
     inkscape:object-paths="true"
     inkscape:snap-bbox="true"
     inkscape:bbox-paths="true"
     inkscape:bbox-nodes="true"
     inkscape:snap-bbox-edge-midpoints="true"
     inkscape:snap-bbox-midpoints="true"
     inkscape:window-width="1858"
     inkscape:window-height="1061"
     inkscape:window-x="-4"
     inkscape:window-y="-4"
     inkscape:window-maximized="1"
     inkscape:snap-global="true" />
  <metadata
     id="metadata4338">
    <rdf:RDF>
      <cc:Work
         rdf:about="">
        <dc:format>image/svg+xml</dc:format>
        <dc:type
           rdf:resource="http://purl.org/dc/dcmitype/StillImage" />
        <dc:title></dc:title>
      </cc:Work>
    </rdf:RDF>
  </metadata>
  <g
     inkscape:label="Layer 1"
     inkscape:groupmode="layer"
     id="layer1"
     transform="translate(0,-877.36216)">
    <flowRoot
       xml:space="preserve"
       id="flowRoot18076"
       style="font-style:normal;font-weight:normal;font-size:40px;line-height:125%;font-family:sans-serif;letter-spacing:0px;word-spacing:0px;fill:#000000;fill-opacity:1;stroke:none;stroke-width:1px;stroke-linecap:butt;stroke-linejoin:miter;stroke-opacity:1"
       transform="translate(0,852.36216)"><flowRegion
         id="flowRegion18078"><rect
           id="rect18080"
           width="62"
           height="43.357182"
           x="0"
           y="104.64286" /></flowRegion><flowPara
         id="flowPara18082">F = ama</flowPara></flowRoot>    <g
       id="g18201"
       transform="matrix(0.96592583,-0.25881905,0.25881905,0.96592583,-235.88988,46.23305)">
      <g
         id="g18511"
         transform="translate(-30.945828,5.758267)">
        <g
           transform="translate(81.650784,10.698421)"
           id="g18305" />
        <g
           id="g18552"
           transform="translate(-8.8507954,7.6990544)">
          <g
             id="g18578">
            <path
               sodipodi:nodetypes="ccccc"
               inkscape:connector-curvature="0"
               id="rect18023"
               d="m 81.731507,932.36215 119.893933,0 c 42.16608,14.5 42.16608,25.5 0,40 l -119.893933,0 c -40.642011,-15.5 -40.642011,-24.5 0,-40 z"
               style="fill:#00d7ff;fill-opacity:1;stroke:none;stroke-width:10;stroke-linejoin:miter;stroke-miterlimit:4;stroke-dasharray:none;stroke-dashoffset:0;stroke-opacity:1"
               transform="translate(81.650783,10.698419)" />
            <rect
               transform="translate(81.650783,10.698419)"
               y="951.11218"
               x="53.25"
               height="2.5"
               width="84"
               id="rect18025"
               style="fill:url(#linearGradient18269);fill-opacity:1;stroke:none;stroke-width:10;stroke-linejoin:miter;stroke-miterlimit:4;stroke-dasharray:none;stroke-dashoffset:0;stroke-opacity:1" />
            <path
               transform="translate(81.650783,10.698419)"
               sodipodi:nodetypes="ccccc"
               inkscape:connector-curvature="0"
               id="rect18027"
               d="m 53.249999,904.36215 0,-28 84.000001,56 -56.000001,0 z"
               style="fill:url(#linearGradient18253);fill-opacity:1;stroke:none;stroke-width:10;stroke-linejoin:miter;stroke-miterlimit:4;stroke-dasharray:none;stroke-dashoffset:0;stroke-opacity:1" />
            <path
               transform="translate(81.650783,10.698419)"
               style="fill:url(#linearGradient18261);fill-opacity:1;stroke:none;stroke-width:10;stroke-linejoin:miter;stroke-miterlimit:4;stroke-dasharray:none;stroke-dashoffset:0;stroke-opacity:1"
               d="m 53.249999,1000.3622 0,28 84.000001,-56.00005 -56.000001,0 z"
               id="path18030"
               inkscape:connector-curvature="0"
               sodipodi:nodetypes="ccccc" />
            <rect
               transform="matrix(1,0,0,-1,81.650783,10.698419)"
               y="-956.86218"
               x="44.25"
               height="9"
               width="9"
               id="rect18032"
               style="fill:url(#linearGradient18066);fill-opacity:1;stroke:none;stroke-width:10;stroke-linejoin:miter;stroke-miterlimit:4;stroke-dasharray:none;stroke-dashoffset:0;stroke-opacity:1" />
            <rect
               style="fill:#ffb43c;fill-opacity:1;stroke:none;stroke-width:10;stroke-linejoin:miter;stroke-miterlimit:4;stroke-dasharray:none;stroke-dashoffset:0;stroke-opacity:1"
               id="rect18034"
               width="9"
               height="9"
               x="231.75"
               y="-956.86218"
               transform="matrix(1,0,0,-1,81.650783,10.698419)" />
            <path
               transform="matrix(0.52778548,0,0,0.3351888,190.78267,640.45522)"
               inkscape:transform-center-x="-2.5000055"
               d="m 277.79869,962.45862 -28.42064,16.40866 0,-32.81732 z"
               inkscape:randomized="0"
               inkscape:rounded="-3.46945e-018"
               inkscape:flatsided="true"
               sodipodi:arg2="1.0471976"
               sodipodi:arg1="0"
               sodipodi:r2="9.473547"
               sodipodi:r1="18.947092"
               sodipodi:cy="962.45862"
               sodipodi:cx="258.85159"
               sodipodi:sides="3"
               id="path18036"
               style="fill:#323232;fill-opacity:1;stroke:none;stroke-width:10;stroke-linejoin:miter;stroke-miterlimit:4;stroke-dasharray:none;stroke-dashoffset:0;stroke-opacity:1"
               sodipodi:type="star" />
            <text
               transform="translate(81.650783,10.698419)"
               sodipodi:linespacing="125%"
               id="text18084"
               y="949.25232"
               x="81.731506"
               style="font-style:normal;font-weight:normal;font-size:40px;line-height:125%;font-family:sans-serif;letter-spacing:0px;word-spacing:0px;fill:#000000;fill-opacity:1;stroke:none;stroke-width:1px;stroke-linecap:butt;stroke-linejoin:miter;stroke-opacity:1"
               xml:space="preserve"><tspan
                 style="font-style:normal;font-variant:normal;font-weight:normal;font-stretch:normal;font-size:12.5px;font-family:'Gill Sans MT';-inkscape-font-specification:'Gill Sans MT'"
                 y="949.25232"
                 x="81.731506"
                 id="tspan18086"
                 sodipodi:role="line">H2O</tspan></text>
            <g
               transform="translate(32.633413,64.162701)"
               id="g18173">
              <path
                 style="fill:#050700;fill-opacity:1;stroke:none;stroke-width:10;stroke-linejoin:miter;stroke-miterlimit:4;stroke-dasharray:none;stroke-dashoffset:0;stroke-opacity:1"
                 d="m 240.80309,887.89788 a 11,11 0 0 0 -11,11 11,11 0 0 0 11,11 11,11 0 0 0 11,-11 11,11 0 0 0 -11,-11 z m 0,2 a 9,9 0 0 1 9,9 9,9 0 0 1 -9,9 9,9 0 0 1 -9,-9 9,9 0 0 1 9,-9 z"
                 id="path18096"
                 inkscape:connector-curvature="0" />
              <circle
                 style="fill:url(#linearGradient18159);fill-opacity:1;stroke:none;stroke-width:10;stroke-linejoin:miter;stroke-miterlimit:4;stroke-dasharray:none;stroke-dashoffset:0;stroke-opacity:1"
                 id="path18141"
                 cx="240.80309"
                 cy="898.89789"
                 r="9" />
            </g>
            <path
               inkscape:connector-curvature="0"
               d="m 133.34787,970.10616 c -1.72269,1.05411 -3.03297,1.92128 -4.93393,2.75483 -0.7279,0.31917 -1.4672,0.72054 -2.26119,0.75659 -0.61853,0.0281 -1.14825,-0.60409 -1.76669,-0.5737 -1.88313,0.0924 0.12458,2.29895 -1.71697,-0.60454 -1.16921,-0.23844 -2.70789,-0.61527 -3.8267,-0.36096 -0.43918,0.0998 -0.53358,0.81977 -0.9664,0.94431 -0.22038,0.0634 -0.19186,-0.57714 -0.41901,-0.54565 -3.56186,0.49375 4.21848,2.24647 -2.80948,0.0802 -3.08043,0.94055 1.02819,-0.15432 -4.08499,0.25223 -0.92848,0.0738 -0.3968,0.68169 -0.90949,1.10706 -0.29006,0.24066 -0.71717,0.24381 -1.04808,0.42422 -0.31004,0.16904 0.65672,-0.25991 0.98507,-0.38987 -0.61545,0.10826 -1.2215,0.3181 -1.84637,0.32478 -0.21047,0.002 -0.34604,-0.3128 -0.55607,-0.2991 -0.43326,0.0283 -0.84242,0.22907 -1.23438,0.41584 -1.7934,0.85455 -2.61937,1.84906 -4.60775,1.79959 -0.32545,-0.008 0.60031,-0.25211 0.90047,-0.37817 -1.09198,-0.79705 0.16394,-0.0973 -1.9244,0.29507 -1.898891,0.35681 -1.835306,-0.57863 -3.677634,0.39036 -0.894897,0.47069 -1.472515,1.49162 -2.430581,1.8149 -0.306319,0.10336 -0.05652,-0.6441 -0.08478,-0.96614 -1.101246,0.25702 -2.854556,1.5272 -3.950952,1.59592 -7.713427,0.48344 -0.964825,-0.95379 -5.782389,0.2172 -0.467736,0.30316 -2.306864,1.51633 -2.57277,1.56029 -0.817762,0.13516 -1.654387,-0.41213 -2.471522,-0.27322 -0.489337,0.0832 -0.728304,0.71244 -1.189625,0.89561 -0.501457,0.19912 -1.068378,0.1526 -1.604434,0.21382 -0.939287,0.10726 -1.880764,0.19436 -2.821143,0.29154 -5.537397,2.24644 -1.002169,1.46564 -4.504476,-0.20266 -0.595985,-0.2839 -1.308592,-0.18067 -1.966608,-0.23369 -3.073536,-0.24771 -2.088325,-0.70024 -3.71982,0.73459 -0.63417,0.12432 -1.261136,0.45213 -1.902513,0.37298 -0.76708,-0.0947 -1.394309,-0.70223 -2.148145,-0.87283 -0.706444,-0.15989 -1.447425,-0.0609 -2.170425,-0.10448 -0.874324,-0.0527 -1.746358,-0.22611 -2.621264,-0.18417 -1.329488,0.0637 -0.297034,0.98661 -1.284465,-0.35245 -0.34105,0.48963 -0.682099,0.97926 -1.023151,1.46889 -14.464359,-0.19663 -14.186278,-20.65232 0.278081,-20.45569 l 0,0 c 0.219896,-0.0707 0.439792,-0.14133 0.659685,-0.21198 0.649593,0.0636 1.311106,0.0517 1.94878,0.19097 1.524282,0.33285 2.817552,1.52561 4.487776,1.29494 0.673079,-0.093 1.180786,-0.72686 1.846292,-0.8639 0.430281,-0.0886 0.86675,0.14394 1.300107,0.21597 0.986951,-0.1501 2.384044,-0.62706 3.396016,-0.0126 0.209513,0.12726 0.06001,0.62521 0.300815,0.67103 1.607361,0.30584 3.46082,-1.58387 4.788794,0.24753 2.085618,0.29526 0.320006,0.25051 3.214648,-0.83475 0.768289,-0.28805 1.620855,-0.33869 2.363658,-0.68724 0.443651,-0.20816 0.633776,-0.92076 1.123037,-0.94881 0.525878,-0.0302 0.838698,0.88906 1.358922,0.80649 0.837511,-0.13294 1.431966,-0.90876 2.14795,-1.36314 0.523062,0.0625 1.042739,0.20672 1.569159,0.18763 0.150553,-0.006 -0.535947,-0.26228 -0.388689,-0.23055 0.61681,0.13297 1.219116,0.74565 1.814923,0.53787 0.692076,-0.24133 0.813113,-1.27507 1.430772,-1.66966 4.79846,-3.06553 1.103999,0.67617 3.263162,-1.66288 0.870822,0.0368 1.761218,-0.0768 2.612465,0.11041 0.596513,0.13122 -1.942659,1.44672 0.617417,0.82413 0.388091,-0.0944 0.579777,-0.55073 0.890487,-0.80169 0.275129,-0.22222 0.576119,-0.41036 0.864179,-0.61554 0.662363,-0.54224 1.324726,-1.08449 1.987098,-1.62673 1.039304,-0.25528 2.067296,-0.56207 3.117914,-0.76584 0.0854,-0.0166 0.250725,0.0303 0.234086,0.11572 -0.06427,0.32988 -0.666023,0.66702 -0.433938,0.9101 0.245668,0.2573 0.677382,-0.22545 1.027501,-0.28843 2.80083,-0.50388 1.90399,0.44558 2.9088,-1.42207 1.11813,-0.13628 2.22868,-0.44822 3.3544,-0.40885 0.40863,0.0143 0.71083,0.71932 1.08915,0.56423 0.62606,-0.25664 0.63692,-1.59025 1.31226,-1.54866 0.78362,0.0483 0.88268,1.40988 1.60042,1.72807 1.02069,0.45249 1.37359,-5.38209 3.34671,-0.13624 0.40421,-0.12559 0.80187,-0.27459 1.21263,-0.37676 0.56374,-0.1402 1.1955,-0.0747 1.70732,-0.34948 0.74566,-0.40031 1.11257,-1.56014 1.95695,-1.61767 0.65926,-0.0449 0.96217,0.90709 1.41547,1.3879 0.0711,0.0754 0.0551,0.31441 0.15,0.27258 0.62537,-0.27567 1.15303,-0.73408 1.72954,-1.10112 2.4388,-0.1307 1.19249,-0.27991 3.25699,0.3357 0.0928,0.0277 0.24913,-0.0245 0.28297,0.0663 0.13537,0.36301 0.019,0.79314 0.17045,1.14972 0.0385,0.0905 0.16994,-0.099 0.25492,-0.14853 0.51939,-0.35227 1.03879,-0.70453 1.55818,-1.0568 12.17553,-4.11883 18.00044,13.09996 5.82491,17.21879 z"
               id="path18357"
               style="fill:#ff4343;fill-opacity:0.78431373;stroke:none;stroke-width:10;stroke-linejoin:miter;stroke-miterlimit:4;stroke-dasharray:none;stroke-dashoffset:0;stroke-opacity:1" />
            <path
               inkscape:connector-curvature="0"
               d="m 130.04191,974.11583 c -5.76795,1.33736 3.92755,-1.25022 -3.12378,2.27329 -4.77383,2.38545 -10.15383,0.0604 -13.16461,-4.84601 -1.74416,-2.84235 5.37934,4.2435 8.59848,5.11422 1.8662,0.50522 3.77486,-0.83795 5.66229,-1.25691 -1.99338,1.07391 -2.029,1.39917 -4.33227,1.4509 -0.87247,0.0196 -1.81326,-0.57894 -2.6088,-0.22014 -0.40011,0.18045 1.15579,0.72884 0.82962,1.02253 -0.38167,0.34364 -1.91021,-0.16511 -1.47648,-0.44014 1.82796,-1.159 4.0118,-1.62614 6.01769,-2.43921 -3.38747,3.28363 0.25229,0.23981 -8.62576,2.70186 -2.58891,0.71797 6.54014,-0.48758 0.58252,0.20475 -0.79307,0.0922 -2.97042,0.83374 -2.37632,0.30035 0.6348,-0.56991 1.68174,-0.2878 2.52261,-0.43169 -0.29323,-0.0583 -0.58092,-0.18547 -0.8797,-0.17484 -0.88986,0.0318 -1.76493,0.34482 -2.65427,0.30093 -0.87001,-0.0429 -3.38509,-0.81531 -2.55294,-0.55787 7.16978,2.21816 4.00781,0.77374 2.02297,0.54413 -0.66236,-0.0764 -1.33348,-0.006 -2.00021,-0.009 0.68616,-10e-4 1.37232,-0.003 2.05849,-0.004 -0.16283,0.0328 -0.65432,0.0883 -0.48851,0.0984 0.80984,0.0491 3.21844,-0.18703 2.43389,0.0197 -1.37344,0.36185 -2.81821,0.53042 -4.23653,0.45526 -1.05216,-0.0557 -3.88729,-0.2056 -3.04693,-0.84117 1.03198,-0.78052 2.58388,0.14284 3.87582,0.21428 1.9898,1.209 0.56426,0.21952 -3.52398,-0.2058 -0.83987,-0.0874 1.64881,0.46861 2.49301,0.44962 0.57331,-0.0129 2.16166,-0.76363 1.63264,-0.54232 -4.57877,1.91554 -1.0102,0.0994 0.61704,-0.82942 -0.78352,0.68473 -1.42767,1.57356 -2.35058,2.05418 -0.24682,0.12854 -0.41251,-0.44097 -0.68915,-0.47118 -1.14182,-0.12471 -4.49662,-0.44409 -3.44578,0.0196 1.35187,0.59653 2.98529,0.031 4.41409,0.40768 0.78527,0.20731 -2.66895,0.89183 -2.43384,0.11442 0.30706,-1.01536 1.8906,-0.96261 2.83592,-1.44391 -0.83521,0.3546 -1.67041,0.70922 -2.50562,1.06383 -12.837619,6.62604 -22.208261,-11.5291 -9.37064,-18.15515 l 0,0 c -0.46366,0.21239 -0.927315,0.42477 -1.390972,0.63715 1.240562,-0.84183 2.506162,-1.64789 3.721672,-2.52551 0.43938,-0.31723 -1.9295,0.89906 -1.39053,0.8424 1.61251,-0.16952 3.17453,-0.68883 4.71588,-1.19198 0.82449,-0.26914 -1.68865,0.48361 -2.55595,0.4869 -0.16818,6.5e-4 0.30268,-0.57004 0.16208,-0.47779 -0.70543,0.46266 -1.2866,1.09152 -1.92991,1.63727 1.21819,-0.55688 2.41977,-1.15165 3.65458,-1.67065 0.35177,-0.14786 -1.28538,0.80981 -1.00104,0.55534 0.76908,-0.68826 1.47171,-1.60186 2.46868,-1.86877 1.12243,-0.30049 4.36697,-0.46683 3.47481,0.27762 -0.92933,0.77549 -2.42699,-3e-5 -3.62809,-0.14972 -0.37625,-0.0469 0.75057,-0.10808 1.12585,-0.16212 1.53824,0.27029 3.05541,0.89924 4.61472,0.81087 0.65681,-0.0372 -1.0696,-1.09828 -1.71585,-0.97517 -0.97408,0.18558 -3.32675,1.40903 -2.39898,1.75908 1.00347,0.37861 1.83903,-1.10576 2.78349,-1.614 1.08059,-0.58152 3.09528,1.01682 3.67779,-0.1629 -0.21426,-0.003 -0.43345,-0.056 -0.64277,-0.0101 -0.17455,0.0382 -0.65013,0.26744 -0.47194,0.25426 1.68656,-0.12472 3.3479,-0.56422 5.03883,-0.59198 0.68879,-0.0113 -1.3083,0.60476 -1.99432,0.54199 -0.70836,-0.0648 -1.24808,-1.08899 -1.93423,-0.90143 -0.4446,0.12153 0.18222,0.90362 0.27334,1.35543 1.13899,-0.13188 2.34282,0.005 3.41698,-0.39564 0.41866,-0.15633 -0.8525,-0.26854 -1.27875,-0.40281 -0.13809,0.14909 -0.61745,0.44149 -0.41432,0.44725 1.01951,0.0289 3.92945,-0.86647 3.03696,-0.37282 -0.25515,0.14112 -5.63732,1.9619 -7.71608,2.66657 2.16214,-1.05995 4.19555,-2.43808 6.48644,-3.17983 0.29357,-0.0951 -1.837,4.37056 1.64215,0.73102 0.27889,-0.29176 -0.76598,-0.25714 -1.15721,-0.35632 -1.28732,-0.32636 -0.81681,-0.20331 -2.15296,0.74467 5.38631,-1.19102 11.76133,-4.07405 15.78799,3.60123 1.09168,2.08086 -8.91632,-6.41782 -11.89989,-4.13416 -0.75085,0.57472 3.52083,3.67558 2.83665,-0.0148 12.63494,-4.27425 18.67964,13.59426 6.0447,17.8685 z"
               id="path18359"
               style="fill:#ff4343;fill-opacity:0.78431373;stroke:none;stroke-width:10;stroke-linejoin:miter;stroke-miterlimit:4;stroke-dasharray:none;stroke-dashoffset:0;stroke-opacity:1" />
            <path
               inkscape:connector-curvature="0"
               d="m 128.37411,966.38628 c -0.15735,-0.18462 -0.24022,-0.48246 -0.47206,-0.55386 -1.81558,-0.55919 -2.12978,1.8561 -4.10654,1.19188 -0.021,-0.007 -7.93455,-4.45405 -2.97708,-1.66853 0.55134,0.2687 1.09756,0.54817 1.65402,0.8061 0.1073,0.0497 0.25177,0.19969 0.3353,0.11597 0.0767,-0.0769 -0.1474,-0.16809 -0.17986,-0.27175 -0.11138,-0.35554 0.12532,-1.11 -0.24672,-1.09016 -1.9329,0.10305 -0.14211,2.21585 -1.33944,0.51579 -0.53206,-0.86041 -0.32814,-1.0979 -1.43966,-0.62677 -0.34491,0.1462 -0.56928,0.58903 -0.94326,0.61101 -0.10837,0.006 -0.57879,-0.90271 -0.87587,-1.09481 -0.21871,-0.14144 -0.49902,-0.1495 -0.74853,-0.22426 -0.2743,0.12594 -0.54962,0.24966 -0.8229,0.37781 -2.43251,1.14069 1.11563,-0.13613 -1.14275,-1.90496 -0.44157,-0.34584 -0.53335,1.12335 -1.0647,1.30298 -0.29358,0.0993 -0.35338,-0.50922 -0.53008,-0.76383 -0.24441,0.15736 -0.48883,0.31472 -0.73325,0.47207 -0.5819,-0.55595 -0.70683,-0.85961 -1.51116,-0.99571 -0.27971,-0.0473 -0.57632,0.0875 -0.85088,0.0162 -0.28312,-0.0736 -0.47345,-0.38736 -0.76202,-0.4352 -0.3175,-0.0526 -0.68079,0.3214 -0.95368,0.15077 -0.36742,-0.22973 -0.4178,-0.75929 -0.62671,-1.13894 -0.64086,-0.44549 -1.3759,0.7509 -1.97719,0.44325 -0.37931,-0.19407 -0.21419,-0.9794 -0.61649,-1.11976 -0.37266,-0.13001 -0.69402,0.37813 -1.05558,0.5364 -1.01828,0.44571 -0.68515,0.38246 -1.19987,-0.62433 0.67873,0.206 1.41678,0.96358 2.03619,0.61799 0.59874,-0.33406 -1.2769,-0.51513 -1.94508,-0.66882 -0.56819,-0.13069 -1.15725,-0.19947 -1.7399,-0.17878 -0.64913,0.023 -1.27713,0.36806 -1.923958,0.30885 -3.45639,-0.31637 -0.588259,-1.16211 -2.949744,-0.25035 0.28326,0.16143 0.526125,0.44506 0.849792,0.48429 0.597217,0.0724 1.610632,-0.98026 0.897309,-1.63201 -0.273569,-0.24995 -0.393279,0.66568 -0.713099,0.85284 -0.181504,0.10621 -0.8365,-0.0487 -0.62714,-0.0685 2.585599,-0.2446 5.1785,-0.40467 7.76776,-0.60701 0.90303,1.61377 2.835,4.89203 -5.345642,0.90963 -1.436395,-0.69925 3.112912,-0.72048 4.673632,-1.0616 0.9987,-0.21828 -1.97462,0.55464 -2.98746,0.69307 -1.492284,0.20393 -5.956572,-0.0754 -4.506295,0.33105 1.649976,0.46239 3.425555,-0.10262 5.138335,-0.15393 -0.47234,0.31969 -0.85009,1.02159 -1.41701,0.95907 -0.39259,-0.0433 0.93025,-1.01613 0.5373,-1.05609 -0.979261,-0.0996 -3.609562,1.43117 -2.836121,0.82234 0.953442,-0.75054 2.278351,-0.83615 3.410001,-1.27407 0.78012,-0.30189 -3.001506,1.39722 -2.355376,0.86595 1.293146,-1.06327 2.901166,-1.67164 4.351746,-2.50746 -2.46847,3.62679 -7.13336,1.6274 -10.224796,3.47068 -1.336427,0.79685 3.124739,-0.0887 4.651775,-0.38725 0.499467,-0.0977 -1.000871,-0.23021 -1.509787,-0.22714 -0.427299,0.003 0.840934,0.15242 1.261395,0.22864 -0.560901,-0.0243 -1.121793,-0.0485 -1.682684,-0.0728 -0.491577,0.36796 -0.876833,0.96397 -1.474721,1.1039 -0.553949,0.12964 -1.100914,-0.30666 -1.666433,-0.36875 -1.024854,-0.11254 -2.081385,-0.37075 -3.089254,-0.15346 -1.640608,0.3537 1.086638,1.26164 -0.66195,1.48224 -0.816667,0.10303 -1.637875,-0.16613 -2.45681,-0.24921 -0.117763,-0.11407 -0.193143,-0.30705 -0.35328,-0.34223 -0.213656,-0.0469 -0.429724,0.082 -0.644587,0.12302 -0.911689,-0.15949 -1.845776,-0.222 -2.735079,-0.47844 -0.306582,-0.0884 -0.474533,-0.50089 -0.791376,-0.53845 -6.360319,-0.75421 1.851646,1.36403 -4.300808,-0.42488 -4.905838,-0.26156 -0.189559,0.70881 -0.05828,0.57006 0.392843,-0.4152 -1.092171,-0.3411 -1.623998,-0.55059 -0.600842,-0.26632 -1.201685,-0.53264 -1.802529,-0.79895 0.02192,0.14945 0.215732,0.43025 0.06576,0.44838 -0.698022,0.0843 -1.39969,-0.1351 -2.099534,-0.20266 -14.025697,-1.7825 -11.504848,-21.61784 2.520849,-19.83533 l 0,0 c 1.434392,0.24601 0.394173,0.1366 3.118109,-0.35159 0.293245,0.0228 0.259982,0.62795 0.546959,0.69244 0.312613,0.0702 0.570483,-0.41951 0.887072,-0.3702 3.588678,0.55893 2.964708,2.1747 3.424372,0.76556 -0.07072,0.0946 -0.188276,0.16806 -0.21215,0.28371 -0.01056,0.0514 0.104547,-0.0209 0.156715,-0.0152 0.553306,0.0605 1.125285,0.0461 1.65612,0.21348 0.09576,0.0302 -0.121538,0.26284 -0.02822,0.29992 1.805064,0.71732 1.699753,0.41013 3.372192,-0.25337 -0.586433,0.0222 -1.541863,0.0883 0.934285,-0.33495 0.424631,-0.0726 1.08131,0.27724 1.288455,-0.10048 0.19438,-0.35444 -0.808113,-0.0527 -1.212117,-0.0387 -0.372693,0.0129 1.134158,0.16355 1.116596,-0.0694 0.436256,1.0352 0.189889,0.81104 2.038553,-0.91512 0.194205,-0.18133 -1.015099,0.23019 -0.751709,0.26518 1.756582,0.23338 6.998017,-0.18399 5.305179,0.3398 -12.099988,3.7439 0.229638,-4.92021 -9.102075,2.64973 1.554596,-1.18643 3.109191,-2.37287 4.663787,-3.55931 -0.478565,0.5066 -2.120785,1.64752 -1.435695,1.51979 1.464245,-0.273 2.700935,-1.26368 3.997175,-1.99737 0.585702,-0.33152 -1.221938,0.57093 -1.859236,0.78726 -0.561104,0.19048 1.061584,-0.54189 1.629957,-0.70943 0.309341,-0.0912 -0.561131,0.31805 -0.841696,0.47708 1.915207,-0.61724 3.87003,-1.12291 5.745617,-1.85171 7.914112,-3.07519 -10.21719,2.98698 -5.984805,2.53402 1.733576,-0.18552 4.024657,-0.20538 4.952854,-1.68123 0.695005,-1.10507 -6.999795,0.98986 -3.723338,1.21436 2.591648,-0.38908 5.216369,-0.60006 7.774951,-1.16723 0.27029,-0.0599 0.27673,-0.83533 0.49593,-0.6662 0.32157,0.24813 -0.18649,1.07347 0.19871,1.2022 0.40585,0.13562 0.58741,-0.7011 1.00362,-0.80041 1.29525,-0.30904 1.77165,0.67535 2.49667,1.44199 -0.87936,-2.24566 -1.81233,0.3508 -2.11509,0.40765 -0.30201,0.0567 -0.0707,-0.87719 0.23666,-0.89096 0.30432,-0.0138 -0.0162,0.84826 0.28784,0.86736 1.25543,0.0789 2.48217,-0.41016 3.72324,-0.61524 1.20183,1.23853 -0.18933,0.11782 1.26099,0.39592 0.2978,0.0571 0.52154,0.31038 0.79191,0.44766 0.26667,0.1354 0.54932,0.23732 0.8176,0.36954 1.20552,0.59412 0.37917,0.36816 1.707,0.56623 2.59256,-1.05214 -0.30327,-0.17509 1.85645,-0.0432 0.76022,0.0464 1.06789,-0.78739 1.67861,0.16833 0.2701,0.42268 0.10606,1.08342 0.4687,1.42997 0.22919,0.21902 0.63198,-0.0508 0.94796,-0.0762 0.28524,-0.30555 0.4515,-0.81025 0.85572,-0.91666 0.9787,-0.25764 0.3206,1.4488 0.97695,1.77293 0.34497,0.17036 0.6386,-0.47244 1.01586,-0.54795 0.46643,-0.0934 0.90322,0.48786 1.38661,0.33719 0.25532,0.045 0.54353,0.002 0.76595,0.13491 0.22401,0.13417 0.22588,0.58807 0.48565,0.61468 0.29191,0.0299 0.44498,-0.55414 0.73132,-0.49001 0.32257,0.0722 0.28896,0.6806 0.60142,0.78851 0.16985,0.0587 1.38942,-0.3813 1.64969,-0.47049 0.0621,0.1192 0.16283,0.22523 0.18613,0.35756 0.0645,0.36645 -0.29726,1.15074 0.073,1.11387 0.48249,-0.048 0.35424,-1.06202 0.81833,-1.20263 0.31705,-0.0961 0.30875,0.73967 0.63935,0.76092 3.45507,0.22212 -0.46337,-2.98869 3.39243,1.49362 0.74413,0.21071 2.86132,1.08219 2.23239,0.63211 -1.33745,-0.95712 -2.84499,-1.71665 -4.41814,-2.1963 -0.44814,-0.13663 -1.07637,0.0512 -1.33407,0.44249 -0.16496,0.25051 0.33561,0.53137 0.60239,0.6685 0.51821,0.26636 1.09329,0.45935 1.6744,0.50177 1.02336,0.0747 2.04957,-0.10338 3.07434,-0.15507 13.65977,3.66012 8.48357,22.97795 -5.17619,19.31782 z"
               id="path18361"
               style="fill:#ff4343;fill-opacity:0.78431373;stroke:none;stroke-width:10;stroke-linejoin:miter;stroke-miterlimit:4;stroke-dasharray:none;stroke-dashoffset:0;stroke-opacity:1" />
            <path
               inkscape:connector-curvature="0"
               d="m 134.49,967.06084 c -0.46043,-0.30143 -1.02954,0.0213 -1.50825,-0.13916 -0.68864,-0.23082 -1.30103,-0.67571 -2.00591,-0.85079 -0.14851,-0.0369 -0.4082,0.10798 -0.37951,0.25829 0.0341,0.17902 0.31193,0.19091 0.47912,0.26351 0.25612,0.11123 0.52479,0.19093 0.78718,0.2864 -0.70327,-0.30436 -1.45673,-0.51222 -2.10983,-0.91309 -0.13266,-0.0814 0.30251,-0.13031 0.45562,-0.10226 0.1426,0.0261 0.21263,0.225 0.35527,0.25084 0.0752,0.0136 0.23932,-0.12788 0.1682,-0.15601 -0.26803,-0.106 -2.5614,-0.69088 -1.74634,-0.48278 -0.25779,-0.2179 -0.66416,-0.3343 -0.77336,-0.65369 -0.0796,-0.23295 0.12154,-0.80636 0.32271,-0.66435 0.2027,0.14312 -0.0493,0.66265 -0.2966,0.68278 -0.37104,0.0302 -0.59792,-0.47155 -0.95371,-0.58105 -0.14675,-0.0451 -0.29425,0.21722 -0.43411,0.1539 -0.10543,-0.0477 0.005,-0.2314 0.007,-0.34711 -0.25412,1.39423 0.005,0.46059 -0.13968,0.38606 -0.60253,-0.31082 -1.24606,-0.53753 -1.84829,-0.84897 -0.0777,-0.0402 -0.13482,-0.11824 -0.17353,-0.19662 -0.0345,-0.0698 0.0379,-0.25005 -0.0375,-0.23062 -0.11053,0.0285 -0.12349,0.19197 -0.1852,0.28797 -0.0445,-0.0344 -0.0819,-0.0807 -0.13352,-0.10308 -0.1107,-0.0479 -0.23383,-0.0614 -0.34639,-0.10478 -0.17211,-0.0663 -0.32172,-0.22819 -0.50612,-0.22373 -0.23643,0.006 -0.81306,0.069 -0.66324,0.25202 0.16584,0.20258 0.99843,0.0274 0.77729,-0.11272 -0.30577,-0.19374 -0.72194,-0.0539 -1.08291,-0.0809 -0.71899,-0.37065 -1.52953,-0.83003 -2.37407,-0.78935 -0.37619,0.0181 -0.70833,0.33693 -1.08446,0.31725 -3.7757,-0.19749 1.16163,-0.80382 -2.20974,-0.27074 -0.8771,-0.25991 -1.65624,-0.60457 -2.6099,-0.39994 -0.43479,0.0933 -0.75232,0.54904 -1.19479,0.59349 -0.54437,0.0547 -1.06462,-0.2966 -1.61153,-0.31151 -0.5142,-0.014 -1.0177,0.15063 -1.52654,0.22595 -0.55139,-0.0537 -1.10278,-0.10733 -1.65415,-0.16099 -0.55809,0.13267 -1.10217,0.35599 -1.67426,0.39802 -1.3977,0.10267 -1.89889,-0.2981 -3.22918,-0.40744 -0.58861,-0.0484 -1.18411,0.0515 -1.77176,-0.007 -3.721348,-0.37236 0.71806,-0.42068 -3.242401,-0.25304 -0.99791,0.18409 -1.937174,0.62826 -2.93538,0.8145 -2.264416,0.42249 -0.974818,-0.0962 -3.313306,0.49404 -2.810455,0.70936 0.08939,0.39316 -3.103029,0.57342 -0.485762,0.25612 -0.929472,0.61678 -1.457282,0.76836 -0.397139,0.11405 -0.828937,-0.0399 -1.239562,0.006 -1.126328,0.12616 -1.397541,0.34946 -2.442784,0.69747 -1.975286,0.65768 -0.617483,0.0491 -2.504502,1.02394 -0.529547,0.12759 -1.04725,0.32278 -1.588635,0.38275 -0.483261,0.0535 -0.976119,-0.11044 -1.457945,-0.0453 -0.411985,0.0557 -0.779593,0.29244 -1.180575,0.40223 -0.380126,0.10408 -0.790301,0.0965 -1.158129,0.23808 -0.583838,0.22465 -1.064949,0.70249 -1.672604,0.85111 -0.499322,0.12213 -1.027159,-0.0435 -1.54074,-0.0652 -1.358634,-0.38424 -1.708368,-0.6171 -3.12122,-0.50792 -0.418146,0.0323 -0.810522,0.23525 -1.228219,0.27294 -0.930233,0.0839 -2.457079,-0.15373 -3.3272,-0.19061 -0.349386,-0.0148 -0.698993,0.0242 -1.048491,0.0362 -3.755981,-1.48769 0.318217,-0.29358 -1.779748,-0.0391 -0.168868,0.0205 -0.219973,-0.28428 -0.380783,-0.33974 -0.536839,-0.18516 -1.098433,-0.3139 -1.663954,-0.36542 -2.592282,-0.23604 -0.519051,0.56286 -2.595192,-0.45434 -6.463624,-1.91858 -3.750342,-11.05952 2.713283,-9.14094 l 0,0 c 0.264114,0.34293 0.650684,0.97417 1.166301,0.99432 2.315131,0.0904 -0.888692,-1.38621 2.251533,-0.34843 0.412307,0.13626 0.66424,0.58275 1.064702,0.75066 0.221285,0.0928 0.479921,-0.002 0.719883,-0.002 0.340341,-0.0749 0.672905,-0.24067 1.02102,-0.22467 0.702205,0.0323 1.211249,0.94852 2.012792,0.62919 0.522771,0.01 1.022208,-0.2598 1.544942,-0.27131 0.769332,-0.0169 1.500424,0.48031 2.292505,0.27176 0.26049,0.0431 0.52098,0.0862 0.781445,0.12936 0.134906,-0.1865 0.177102,-0.52526 0.40472,-0.5595 0.50409,-0.0758 1.003643,0.36521 1.504852,0.27227 0.475074,-0.0881 0.750094,-0.67879 1.222937,-0.77816 3.074739,-0.64623 -0.109254,1.30058 2.33282,-0.4565 3.063177,-0.15681 -0.405608,0.20116 2.711153,-0.74611 0.541245,-0.1645 1.124202,-0.13643 1.67906,-0.2466 0.465606,-0.0925 0.920506,-0.23279 1.377734,-0.36038 1.805725,-0.50387 1.318888,-0.36402 3.06316,-1.0613 4.402327,-0.0298 -1.346345,0.14133 3.152306,-0.43833 1.519196,-0.19575 1.702294,0.39989 3.394427,0.15808 0.767714,-0.10971 1.475582,-0.47791 2.213368,-0.71687 0.671782,-0.0449 1.343564,-0.0899 2.015337,-0.13483 5.508641,0.29844 -2.15267,0.0664 3.679561,-0.40169 0.17183,-0.0138 3.00554,0.37546 3.30509,0.37844 0.43586,0.004 0.86367,-0.15605 1.29944,-0.14617 0.5238,0.0119 1.03839,0.1406 1.55759,0.2109 2.83437,0.55248 0.0823,0.32285 2.75775,-0.39265 0.32146,-0.086 2.58245,0.0284 2.79697,0.0116 0.5283,-0.0411 1.03723,-0.23625 1.56571,-0.27507 0.5354,-0.0393 1.07333,0.0279 1.61,0.0418 0.49825,-0.17406 0.97562,-0.42698 1.49475,-0.52218 0.50989,-0.0935 1.60547,0.20782 2.09168,0.20748 0.35023,-2.6e-4 0.69219,-0.10915 1.04039,-0.14676 1.30504,-0.14094 0.88249,-0.1291 2.13081,0.11733 0.62149,-0.21235 1.50489,-0.52426 2.01379,-0.5192 0.15394,0.002 0.0587,0.3141 0.15308,0.43574 0.0565,0.0728 0.1731,0.0632 0.25928,0.0958 0.72698,0.27484 0.28403,0.21029 1.29517,-0.012 0.27245,0.17474 1.45053,0.97117 1.78712,1.02163 0.35331,0.053 1.34727,0.0371 1.05785,-0.1723 -0.38105,-0.27574 -0.93879,-0.0607 -1.40868,-0.0816 -0.44656,-0.0198 2.43455,0.0392 1.15528,0.68087 0.29202,0.0655 0.58735,0.11758 0.87603,0.19641 0.24095,0.0658 0.4611,0.23683 0.71088,0.23693 0.0789,10e-6 -0.0857,-0.25135 -0.008,-0.23666 0.23159,0.0439 2.14167,0.87127 2.30097,1.00053 0.0849,0.0689 -0.0684,0.2077 -0.10262,0.31153 2.25138,0.80168 -0.13114,-0.0179 -0.28818,-0.2208 -0.1824,-0.23561 0.60263,0.0461 0.8807,0.15317 0.39958,0.15387 0.74042,0.43189 1.1254,0.61929 0.28965,0.14099 1.18049,0.51375 0.89515,0.36427 -0.52903,-0.27715 -1.08531,-0.49879 -1.62796,-0.74818 0.36393,0.22159 0.72787,0.44319 1.09181,0.66478 0.39333,0.0433 0.82258,-0.04 1.18001,0.1298 0.1747,0.083 0.41505,0.52736 0.22184,0.53611 -0.55333,0.0251 -1.03904,-0.45671 -1.59268,-0.47401 -0.49838,-0.0156 1.9511,1.30774 1.41748,0.47792 6.51917,1.7468 4.04881,10.96629 -2.47036,9.21948 z"
               id="path18381"
               style="fill:#ff9600;fill-opacity:0.78431373;stroke:none;stroke-width:10;stroke-linejoin:miter;stroke-miterlimit:4;stroke-dasharray:none;stroke-dashoffset:0;stroke-opacity:1" />
            <path
               inkscape:connector-curvature="0"
               d="m 135.08876,972.02395 c -1.14008,-0.0436 -1.35943,-0.22177 -2.34962,0.34045 -0.33657,0.19111 -0.54552,0.59635 -0.91326,0.71709 -0.37383,0.12275 -0.79158,-0.0925 -1.18002,-0.0298 -0.1664,0.0269 -0.27735,0.1916 -0.41603,0.28739 -0.34729,0.0279 -0.69459,0.0557 -1.04188,0.0836 -0.024,-0.01 -1.83825,-0.79099 -2.22783,-0.76939 -0.35066,0.0194 -0.65559,0.28895 -1.00595,0.31325 -0.44349,0.0308 -0.88063,-0.13937 -1.32503,-0.15154 -3.34144,-0.0918 1.26389,0.37323 -2.50431,-0.0783 -0.4382,-0.0964 -0.87422,-0.37543 -1.31457,-0.2893 -0.3014,0.0589 -0.32788,0.63033 -0.63241,0.66998 -0.33504,0.0436 -0.56776,-0.39777 -0.89765,-0.47076 -0.0309,-0.007 -1.82076,0.30255 -1.71447,-0.47834 0.0339,-0.24915 0.47019,0.17848 0.70527,0.26777 -0.26078,-0.10104 -0.52153,-0.20217 -0.7823,-0.30321 -0.33607,0.0814 -0.67639,0.34145 -1.0082,0.24416 -1.34156,-1.34436 -0.11709,-0.52354 -1.54289,-0.65438 -0.17046,-0.0156 -0.53716,-0.37704 -0.4627,-0.22285 0.10478,0.21683 0.37979,0.29619 0.56966,0.44429 -1.51558,-0.68061 -0.11503,-0.20175 -2.0098,-0.32399 -0.41666,-0.0269 -1.30852,-0.31687 -1.76948,-0.2966 -0.21435,0.009 0.84056,0.0575 0.63352,0.11375 -0.27726,0.0754 -0.5736,-0.0347 -0.8604,-0.0521 -1.02486,-0.6876 -0.81676,-0.73482 -1.94075,-0.87574 -0.032,-0.004 0.0854,0.0782 0.0532,0.0809 -0.28521,0.025 -0.57261,-0.0159 -0.85887,-0.0103 -0.36654,0.007 -0.75765,0.18359 -1.09876,0.0492 -0.33098,-0.1304 -0.49107,-0.51484 -0.73661,-0.77226 -0.0488,0.15525 0.008,0.41472 -0.14653,0.46574 -0.66049,0.21801 -1.40493,-0.42925 -1.91302,-0.62879 -0.0905,-0.0355 -0.19422,0.007 -0.29132,0.01 -0.42672,-0.0523 -0.88301,0.008 -1.28013,-0.15709 -0.26965,-0.1118 -0.40743,-0.41816 -0.61114,-0.62724 -0.95513,-0.59083 -1.60432,0.54087 -2.43452,0.52721 -0.167726,-0.003 0.06376,-0.33109 0.06656,-0.49879 0.0016,-0.0975 0.02846,0.25194 -0.06303,0.28583 -0.309805,0.11474 -0.661448,0.16555 -0.985775,0.10264 -0.550559,-0.10684 -1.048206,-0.39924 -1.572319,-0.59887 -0.963167,0.34823 -0.655048,0.32621 -1.902647,0.26871 -0.394618,-0.0182 -0.816572,0.0376 -1.179056,-0.11942 -0.179157,-0.0776 0.595437,0.0476 0.567333,-0.14556 -0.03481,-0.23906 -0.405177,-0.40592 -0.638416,-0.34301 -0.162054,0.0437 0.03614,0.33373 0.05419,0.5006 -0.504914,0.52267 0.02397,0.10757 -1.231207,-0.039 -0.2998,-0.035 -0.604381,0.0751 -0.904495,0.0428 -0.486347,-0.0523 -0.95062,-0.34013 -1.437632,-0.29432 -0.155894,0.0146 -0.301947,0.39371 -0.153628,0.44392 0.290545,0.0983 0.600085,-0.1275 0.900124,-0.19123 -0.216094,-0.0517 -0.850259,-0.24149 -1.061587,-0.11771 -0.225175,0.13196 -0.21973,0.56311 -0.473605,0.62348 -0.515386,0.12253 -1.056019,-0.18254 -1.583577,-0.13439 -0.269187,0.0246 0.576191,0.0345 0.784065,0.20698 0.101444,0.0844 -0.04376,0.2603 -0.0656,0.39047 3.281418,-1.47859 1.504164,-0.55572 0.337879,-0.42932 -0.125234,0.0136 -0.216504,-0.18269 -0.340925,-0.1631 -0.297243,0.0469 -0.548584,0.2496 -0.832871,0.34825 -1.376137,0.47749 -1.346441,-0.0653 -1.344427,0.50631 -0.03926,-0.14382 -0.208197,-0.31292 -0.117773,-0.43144 0.139398,-0.1827 1.403707,0.16993 -0.01712,0.52932 -0.329405,0.0833 -0.66718,-0.16242 -1.006938,-0.15855 -0.07061,8.6e-4 -0.05902,0.14479 -0.124396,0.17143 -0.183569,0.0748 -0.388717,0.0779 -0.583074,0.11686 -0.259644,-0.0221 -0.575374,-0.22871 -0.77896,-0.066 -0.149459,0.11941 0.274943,0.37956 0.17924,0.54521 -0.08539,0.1478 -0.341034,0.0167 -0.511257,0.0294 -0.439694,0.033 -0.888332,0.0106 -1.318392,0.10787 -0.09433,0.0213 0.165092,0.15738 0.258424,0.13198 0.349277,-0.0951 0.653002,-0.31258 0.979503,-0.46887 -0.372058,0.11493 -2.048305,0.62942 -2.109902,0.67052 -0.125741,0.0839 -0.08746,0.53666 0.03774,0.45194 0.27001,-0.18273 0.41449,-0.52013 0.519252,-0.82886 0.08011,-0.23607 -0.221914,0.48687 -0.442573,0.60288 -0.429644,0.22589 -0.938908,0.24684 -1.408364,0.37026 2.436537,0.22146 1.857102,0.29874 0.353509,-0.28937 -0.153381,-0.06 0.620687,0.0418 0.478312,0.12402 -0.503708,0.29207 -1.101376,0.3784 -1.655232,0.55802 -0.150337,0.0488 0.304622,-0.0915 0.444383,-0.16533 0.18694,-0.0987 0.35305,-0.23262 0.529574,-0.34892 0.112428,0.0302 0.44569,0.0482 0.337284,0.0906 -0.388713,0.15221 -0.826738,0.13423 -1.225663,0.25722 -0.15218,0.0469 -0.336982,0.10479 -0.409078,0.24678 -0.05557,0.10946 0.224968,0.32956 0.104499,0.35312 -1.463348,-0.19524 -0.765419,-0.24578 -2.097153,0.0935 -0.388284,0.2409 -0.87692,0.0336 -1.281341,0.18408 -0.153395,0.057 -0.233317,0.26704 -0.395159,0.29147 -0.155937,0.0235 -0.297944,-0.22581 -0.44343,-0.16489 -0.183088,0.0766 -0.224284,0.32751 -0.336426,0.49127 -0.341311,0.0598 -0.682621,0.11954 -1.023932,0.17931 -0.356217,-0.18469 -0.671554,-0.49642 -1.068637,-0.55413 -0.19768,-0.0287 -0.330377,0.22525 -0.503058,0.32568 -0.20554,0.11953 -0.398894,0.27985 -0.630516,0.33357 -0.589181,0.13668 -2.366206,0.16161 -2.876996,0.0268 -0.434955,-0.11448 -0.789836,-0.43049 -1.184757,-0.64572 -0.253773,-0.0942 -0.507548,-0.18839 -0.761322,-0.28258 -6.527117,-4.09729 -0.732663,-13.32804 5.794452,-9.23073 l 0,0 c -0.08828,-0.12543 -0.176587,-0.25077 -0.26488,-0.37616 -2.185229,0.99719 0.149605,0.22278 -1.411628,0.0623 -0.103062,-0.0106 -0.269393,0.28316 -0.168068,0.2615 0.230923,-0.0493 0.392936,-0.44402 0.612222,-0.35642 0.387406,0.15474 0.416585,0.91193 0.833177,0.93387 0.309167,0.0163 0.210732,-0.58223 0.316087,-0.87334 0.0633,0.0549 0.11032,0.19101 0.189926,0.16478 0.194548,-0.0641 0.297617,-0.28966 0.478843,-0.38513 0.146208,-0.077 1.009983,-0.29433 1.179172,-0.27111 0.204962,0.0281 0.363535,0.20913 0.564659,0.25758 0.09652,0.0227 0.195384,-0.034 0.29307,-0.051 -0.06646,-0.14137 -0.04544,-0.45068 -0.199378,-0.4241 -0.153854,0.0266 -0.194165,0.42129 -0.04465,0.46622 0.20548,0.0613 0.395814,-0.17667 0.563521,-0.3103 0.105776,-0.0843 0.302165,-0.20933 0.23816,-0.32848 -0.102877,-0.19148 -1.198204,2.10132 0.650856,0.0406 0.364475,-0.18198 0.751279,-0.3248 1.09342,-0.54591 0.322187,-0.20823 1.030509,-1.08934 0.886611,-0.73373 -0.18853,0.46591 -0.548295,0.96777 -1.033851,1.09758 -0.343959,0.092 0.619145,-0.62091 0.486024,-0.95112 -0.04489,-0.11142 -4.293985,1.62877 1.043172,-0.48463 -0.229974,0.23561 -0.506779,0.43325 -0.689924,0.70686 -0.03369,0.0503 0.105009,0.0972 0.163123,0.0802 0.424508,-0.12476 0.818171,-0.33776 1.233397,-0.4906 0.434571,-0.15996 1.403515,-0.30174 -0.3766,-0.24719 -0.03713,0.001 -0.0086,0.0738 -0.01293,0.1107 0.561383,-0.0487 1.139967,2.3e-4 1.684147,-0.14601 0.276379,-0.0743 0.574101,-0.75138 0.701429,-0.49508 0.139789,0.28137 -0.365438,0.51306 -0.577174,0.74519 -0.09766,0.10707 0.130559,-0.26436 0.232515,-0.36734 0.743605,-0.75109 0.543052,-0.80543 0.951559,-0.33915 0.644925,0.26143 -4.17e-4,0.0738 1.009874,-0.0427 0.04736,-0.005 0.103446,0.12597 0.118225,0.0805 0.05752,-0.17682 -0.122301,-0.46022 0.0367,-0.5566 0.459366,-0.27844 1.326182,-0.1816 1.868062,-0.15096 0.178777,-0.0684 0.573165,-0.39302 0.536333,-0.20519 -0.04157,0.21196 -0.353963,0.26122 -0.56002,0.32599 -0.0513,0.0161 -0.0055,-0.117 0.02824,-0.15884 0.129391,-0.16027 0.596406,-0.28777 0.445633,-0.42811 -0.125002,-0.11636 -4.881478,0.62113 1.320047,-0.25976 0.415696,0.26334 0.609101,0.42049 1.362089,-0.22511 0.177057,-0.15181 -0.6353,-0.44846 -0.66513,-0.21715 -0.01022,0.0792 1.028006,0.81864 1.202051,0.77614 0.204226,-0.0499 0.248283,-0.33932 0.372424,-0.50898 0.385603,0.0714 1.717042,0.43581 2.312272,0.24944 0.08386,-0.0263 0.06779,-0.16222 0.101643,-0.24334 0.26394,-0.0292 0.527888,-0.0585 0.791837,-0.0877 1.76871,0.19438 -0.611698,0.55474 1.708344,0.0135 4.074161,1.47429 -1.212162,-0.0139 1.610391,-0.46669 0.465425,-0.0747 0.853781,0.39982 1.281717,0.59747 0.04763,0.022 0.09346,0.0721 0.144757,0.0614 0.104835,-0.0219 0.176702,-0.15286 0.283811,-0.15077 0.314346,0.006 0.617971,0.11625 0.926959,0.17436 0.145036,0.0875 0.270088,0.22431 0.435122,0.26236 0.744825,0.17176 1.469875,-0.0833 2.213635,-0.0673 3.70262,0.08 -0.26826,-0.0671 1.53579,0.59049 0.24451,0.0891 0.52049,-3.7e-4 0.78073,-5.5e-4 0.4202,0.0277 0.84313,0.0279 1.26061,0.0832 0.23082,0.0306 0.44419,0.16033 0.67667,0.17335 0.41307,0.0231 0.83307,-0.14382 1.2394,-0.066 0.2048,0.0392 0.27596,0.3846 0.48416,0.39611 2.23709,0.12364 -1.20914,-1.55572 1.98756,0.42623 0.79049,-0.16396 -0.10797,-0.0563 0.75725,0.13722 0.19037,0.0426 0.39034,-3.4e-4 0.58517,0.01 0.70015,0.0355 1.41042,0.016 2.07495,0.24873 1.37156,0.76495 -0.72556,-0.27788 2.16127,0.1433 0.13262,0.0194 -0.002,0.28438 0.0731,0.39537 0.23943,0.35383 0.49271,-0.0253 0.71948,-0.0901 0.17523,-0.0501 0.36309,-0.0322 0.54465,-0.0483 0.56178,0.12605 1.1275,0.23573 1.68536,0.37818 0.16818,0.043 0.38252,0.0407 0.48967,0.17723 0.10064,0.12828 -0.1187,0.42753 0.0323,0.48807 0.13868,0.0556 0.13409,-0.2725 0.23809,-0.37974 0.0674,-0.0694 0.166,-0.16066 0.25832,-0.13193 0.15751,0.049 0.24722,0.21848 0.37083,0.32773 0.5593,-10e-4 1.14576,-0.17555 1.67791,-0.003 0.71805,0.2323 -0.38426,0.76157 0.42374,0.80916 0.17458,0.0103 0.31967,-0.1685 0.4944,-0.17548 1.04953,-0.0419 0.88267,0.0233 1.47292,0.68613 2.06089,-0.28479 -0.19407,-0.12412 1.70907,0.18964 0.26151,0.0431 0.53197,-0.009 0.79341,-0.0521 0.75987,-0.12646 1.7969,-0.55195 2.56889,-0.42601 0.30323,0.0495 0.5035,0.35223 0.75526,0.52834 0.19732,-0.20871 0.35353,-0.46599 0.59195,-0.62614 0.25028,-0.1681 0.56587,-0.20991 0.83989,-0.33563 0.0301,-0.0138 -0.11936,-0.0305 -0.0993,-0.004 0.221,0.29083 0.36606,0.74349 0.72235,0.82401 0.97166,0.21961 1.87747,-1.27397 2.83198,-0.95454 6.39408,-1.00844 7.82021,8.03415 1.42614,9.04258 z"
               id="path18395"
               style="fill:#ff9600;fill-opacity:0.78431373;stroke:none;stroke-width:10;stroke-linejoin:miter;stroke-miterlimit:4;stroke-dasharray:none;stroke-dashoffset:0;stroke-opacity:1" />
            <path
               inkscape:connector-curvature="0"
               d="m 137.25999,976.31082 c -1.96211,2.7866 0.63784,-0.34571 -1.17757,0.46053 -0.28643,0.12721 -0.24302,0.59634 -0.46592,0.81666 -1.4984,1.48108 -0.38183,0.33632 -0.89802,0.29761 -0.43658,-0.0327 -0.87553,-0.0101 -1.3133,-0.0152 -0.21026,0.0484 -1.03083,0.21818 -1.22169,0.33776 -0.32849,0.20582 -0.54803,0.56944 -0.89469,0.74293 -0.40776,0.20408 -0.89507,0.19532 -1.31842,0.36469 -4.08447,1.63409 1.57613,-0.2381 -2.34479,1.00359 -1.36524,0.17239 -1.10477,0.0575 -2.43554,0.57384 -0.5704,0.22131 -1.10117,0.55129 -1.69106,0.71364 -0.52233,0.14374 -1.09115,0.0518 -1.61343,0.1958 -2.61465,0.72074 -0.65056,0.92525 -2.81224,0.43464 -1.7444,1.19432 -0.34421,0.57269 -2.54982,0.5954 -2.07592,0.0214 -1.23608,0.43272 -3.36199,0.0486 -2.34404,-0.42353 0.0289,-0.63344 -2.61156,-0.13086 -0.0418,-0.012 -2.5406,-0.738 -2.61353,-0.72638 -0.44135,0.0706 -0.68567,0.64022 -1.12295,0.73278 -0.37027,0.0784 -0.72734,-0.28641 -1.10496,-0.26119 -2.65493,0.17734 -0.0827,0.97309 -2.57489,-0.10587 -3.08542,1.60154 0.96757,-0.21664 -2.07808,0.27968 -0.46652,0.076 -0.7984,0.59252 -1.26943,0.63196 -0.463287,0.0388 -0.869448,-0.46275 -1.331811,-0.41411 -3.187474,0.33511 0.91624,1.3521 -2.353904,0.27111 -0.962258,0.8339 -2.224285,0.92305 -3.43834,0.99324 -0.400562,0.0232 -0.805125,-0.0123 -1.203052,0.0391 -1.594762,0.2059 0.830458,0.47365 -1.841272,-0.0533 -0.252991,0.028 -0.505992,0.056 -0.758993,0.084 -0.322485,-0.0486 -0.64213,-0.16792 -0.967468,-0.14585 -0.422982,0.0289 -0.837886,0.15307 -1.236878,0.29643 -0.153362,0.0551 -0.237759,0.24306 -0.393948,0.28957 -0.365102,0.10873 -0.754032,0.10918 -1.130925,0.16455 -0.295041,0.0434 -0.589921,0.0878 -0.884887,0.13162 -0.989738,-0.0608 -1.380873,-0.21688 -2.25464,0.11385 -0.330343,0.12503 -0.612952,0.35708 -0.942349,0.48458 -0.341785,0.13231 -0.723995,0.14516 -1.060376,0.29065 -0.289072,0.12503 -0.529593,0.34104 -0.794388,0.51156 -0.393783,0.13288 -0.787568,0.26576 -1.181351,0.39864 -1.41484,0.94253 -0.595507,0.64433 -2.512806,0.72652 -5.999164,2.01092 -8.843038,-6.47318 -2.843875,-8.4841 l 0,0 c 1.542521,-0.23316 0.726092,0.0107 2.392833,-0.8992 2.418483,-1.23205 -0.415129,0.063 2.460222,-0.73282 0.38556,-0.1067 0.709943,-0.37874 1.091457,-0.49909 0.371585,-0.11723 0.769775,-0.12409 1.150237,-0.20814 1.465163,-0.32371 1.265095,-0.29074 2.482809,-0.74655 0.43803,-0.15882 1.396545,-0.58115 1.97082,-0.58168 0.559944,-5.1e-4 1.116088,0.0922 1.674133,0.13823 0.274478,-0.0532 0.544047,-0.14911 0.823432,-0.15964 2.23021,-0.0839 0.366713,0.42992 2.52343,-0.39057 1.61651,-0.37663 -0.0825,-0.0634 2.148293,-0.0959 0.293567,-0.004 0.57854,-0.11745 0.87208,-0.1237 0.342243,-0.007 0.685998,0.14013 1.023597,0.0833 0.204677,-0.0344 0.32616,-0.26805 0.519762,-0.34287 0.393989,-0.15225 0.815486,-0.22046 1.22323,-0.33069 2.363847,0.99277 0.168808,0.38708 2.469652,0.16358 0.438198,-0.0426 0.87631,0.15706 1.31516,0.12176 0.435735,-0.035 0.835573,-0.27541 1.269356,-0.32958 3.9772,-0.49666 -1.037215,0.5932 2.97375,-0.37289 0.48428,-0.008 1.54558,-0.0613 2.09412,0.039 0.42282,0.0773 0.81973,0.28787 1.24807,0.32407 0.42463,0.0361 0.84984,-0.066 1.27376,-0.10967 2.41696,-0.24924 1.06171,-0.30837 3.41481,0.057 1.8118,-0.68821 1.00469,-0.66079 2.93551,-0.2592 0.29672,0.0617 0.59186,0.13333 0.88177,0.22167 0.30181,0.092 0.58006,0.37069 0.89126,0.31873 0.73979,-0.12352 1.13973,-1.17662 2.0452,-0.9381 0.40154,0.0864 0.80698,0.15628 1.2046,0.2592 0.26256,0.0683 0.50249,0.26162 0.77363,0.25274 0.82072,-0.0269 1.38968,-0.36358 2.05961,-0.74066 1.48571,-0.83628 1.12233,-0.62954 2.47181,-1.55847 3.77985,-0.55829 -1.51746,0.43338 1.7456,-0.85727 0.31738,-0.12554 0.69078,0.0937 1.02374,0.0186 0.35042,-0.079 0.66144,-0.2853 0.97067,-0.46809 0.42797,-0.25298 0.82347,-0.55724 1.23521,-0.83586 0.39798,-0.22895 0.79598,-0.4579 1.19397,-0.68685 0.40964,-0.40274 0.90232,-0.7723 1.52927,-0.71126 0.52103,0.0507 0.37019,0.41124 1.26026,-0.007 0.36472,-0.17144 0.58688,-0.55246 0.88033,-0.82869 6.45419,-2.18338 9.54195,6.94423 3.08776,9.1276 z"
               id="path18407"
               style="fill:#ff4242;fill-opacity:0.78431373;stroke:none;stroke-width:10;stroke-linejoin:miter;stroke-miterlimit:4;stroke-dasharray:none;stroke-dashoffset:0;stroke-opacity:1" />
            <path
               inkscape:connector-curvature="0"
               d="m 119.36932,981.6492 c -0.44465,0.22921 -0.88928,0.45842 -1.33392,0.68762 -0.76746,0.13278 -1.59809,0.0657 -2.30237,0.39832 -0.43394,0.20492 -0.4712,0.91798 -0.90764,1.11752 -0.34663,0.15849 -0.79247,-0.36745 -1.12806,-0.18677 -0.21085,0.11352 0.12416,0.46257 0.18623,0.69386 -0.59074,0.0704 -1.18147,0.14074 -1.7722,0.21111 -5.56278,3.06703 1.54521,-0.23405 -3.32269,0.30372 -0.40194,0.0444 -0.51462,0.62391 -0.77193,0.93588 -0.62673,0.14696 -1.23648,0.43371 -1.88015,0.44088 -2.29569,-0.50676 -1.19688,-0.46929 -3.29014,-0.23257 -1.12637,0.68783 -1.46821,1.10187 -2.932656,1.04647 -0.537246,-0.0203 -1.019063,-0.43054 -1.556628,-0.42228 -0.44353,0.007 -0.820329,0.34309 -1.246714,0.4654 -1.212391,0.34777 -2.704048,0.6265 -3.958686,0.8789 -2.049032,-0.58599 -1.317552,-0.47057 -3.145572,-0.69574 -0.367634,-0.0453 -0.742327,-0.044 -1.104634,-0.12099 -0.468077,-0.0995 -0.898967,-0.43198 -1.376847,-0.40661 -0.630485,0.0334 -1.19569,0.4085 -1.804614,0.57535 -0.134109,0.0367 -0.27722,0.022 -0.415845,0.0331 -0.123088,-0.0976 -0.245073,-0.38891 -0.369257,-0.29273 -0.289532,0.22423 -0.148786,0.91035 -0.509528,0.97333 -0.777184,0.13566 -1.53428,-0.38647 -2.317669,-0.47982 -0.141174,-0.0168 -0.267102,0.21491 -0.396741,0.15655 -0.385688,-0.17364 -0.582924,-0.70057 -0.997534,-0.78427 -0.283609,-0.0573 0.351624,0.45957 0.527437,0.68936 0.222637,0.0215 0.891416,0.0735 0.667911,0.0647 -0.394936,-0.0156 -0.789843,-0.0413 -1.182666,-0.085 -0.316339,-0.0352 -0.62484,-0.16536 -0.942837,-0.15118 -0.157247,0.007 -0.264838,0.20464 -0.422089,0.21179 -0.504579,0.023 -1.005491,-0.1048 -1.510234,-0.12385 -0.298553,-0.0113 -0.597113,0.022 -0.895673,0.033 -0.517158,2.90269 -2.028766,0.0704 -2.849325,0.58716 -0.304554,0.1918 0.08142,0.92626 -0.257027,1.04872 -0.763146,0.27612 -1.622045,-0.0636 -2.433521,-0.0752 -1.800113,-0.0258 -1.16591,-0.14762 -2.525652,0.39892 -9.487587,1.14362 -11.104911,-12.27385 -1.617324,-13.41747 l 0,0 c 0.724327,-0.0175 1.935888,0.0542 2.589776,-0.38421 0.188486,-0.12637 -0.02964,-0.59916 0.190672,-0.65353 0.628166,-0.15501 1.290714,0.16371 1.936767,0.12854 2.160632,-0.1176 0.811465,-0.59543 1.942534,-0.10003 4.60711,-0.31158 -1.064329,0.46497 1.898442,-1.04768 0.484,-0.24711 1.096513,-0.009 1.624508,-0.13719 0.292787,-0.0713 0.549134,-0.26114 0.78436,-0.4495 1.252215,-1.0027 -1.24549,-0.36727 2.211182,-0.6245 3.781961,-0.53053 0.325613,-0.59995 1.668733,1.02299 1.640022,1.98169 1.104095,-0.70314 1.203291,-0.73989 0.869533,-0.32215 1.907834,1.59111 2.781878,-10e-4 0.434541,0.0987 0.887464,0.13686 1.303624,0.2962 1.531261,0.58633 -0.342756,0.71102 2.183833,0.8388 0.521096,0.0264 1.028452,-0.20848 1.550148,-0.21717 1.340737,-0.0223 1.199147,0.0865 2.12481,0.79771 1.002201,-0.47157 1.856853,-0.80011 3.020235,-0.80135 0.545188,-5.8e-4 1.100111,0.38133 1.620763,0.21955 3.341069,-1.03791 -1.18466,-1.65929 2.793979,-0.69335 0.47798,-0.0995 0.94766,-0.25519 1.43397,-0.2986 0.43731,-0.039 0.91324,0.22783 1.31607,0.0532 0.36821,-0.15963 0.39529,-0.74818 0.74427,-0.94638 3.67725,-2.0883 -0.52446,1.14993 2.99383,-0.33672 0.29541,-0.12483 0.32186,-0.55482 0.48279,-0.83222 0.83332,0.24161 0.44319,0.19443 1.90386,-0.21741 0.27446,-0.0774 0.51204,-0.26957 0.79214,-0.32305 0.35399,-0.0676 0.72231,0.004 1.08058,-0.0345 1.04101,-0.11304 1.26307,-0.46332 2.32978,-1.09024 8.55227,-3.95271 14.14224,8.14202 5.58998,12.09473 z"
               id="path18425"
               style="fill:#c8c8c8;fill-opacity:0.78431373;stroke:none;stroke-width:10;stroke-linejoin:miter;stroke-miterlimit:4;stroke-dasharray:none;stroke-dashoffset:0;stroke-opacity:1" />
            <path
               inkscape:connector-curvature="0"
               d="m 53.055315,949.80312 c 4.562199,-0.73926 -2.035858,0.4606 2.868989,-0.91348 0.588613,-0.1649 1.21891,-0.11691 1.818772,-0.23448 0.678673,-0.13302 1.318335,-0.53673 2.009605,-0.51586 0.617384,0.0186 2.796114,1.2166 3.282048,1.4666 0.338388,-0.0882 0.677677,-0.356 1.015164,-0.26446 0.334535,0.0908 0.405182,0.62345 0.732184,0.73844 0.581782,0.2046 2.753,0.16547 3.42956,0.21922 0.961141,0.0764 1.247282,0.22802 2.196071,0.52252 0.311704,-0.18209 0.623408,-0.36417 0.935112,-0.54626 6.805984,0.82911 5.633447,10.45423 -1.172538,9.62512 l 0,0 c -0.31911,-0.11129 -0.638195,-0.22267 -0.957306,-0.33395 -0.88835,-0.0747 -2.106638,-0.0736 -2.946379,-0.51063 -0.393786,-0.2049 -0.591022,-0.76064 -1.026062,-0.84893 -0.503659,-0.10224 -0.992132,0.36999 -1.504893,0.33532 -0.553882,-0.0375 -1.049495,-0.36238 -1.574257,-0.54352 -0.482189,-0.0198 -0.964375,-0.0396 -1.446562,-0.0593 -0.329399,-0.16269 -0.6588,-0.32539 -0.988199,-0.48809 -0.22324,-0.0101 -0.457451,0.0394 -0.669686,-0.0305 -0.0871,-0.0285 -0.04958,-0.22399 -0.14039,-0.23642 -0.15645,-0.0214 -0.30481,0.088 -0.447301,0.15607 -1.736899,0.82973 -0.217418,0.33673 -2.269861,0.85499 -5.934302,2.22319 -9.078374,-6.16918 -3.14407,-8.39237 z"
               id="path18483"
               style="fill:#c8c8c8;fill-opacity:0.78431373;stroke:none;stroke-width:10;stroke-linejoin:miter;stroke-miterlimit:4;stroke-dasharray:none;stroke-dashoffset:0;stroke-opacity:1" />
            <path
               inkscape:connector-curvature="0"
               d="m 51.693799,959.46929 c 1.390001,-0.24978 0.910766,-0.0434 2.230227,-0.82968 0.364122,-0.21698 0.655321,-0.60156 1.070694,-0.68602 0.509706,-0.10364 1.034263,0.19151 1.552937,0.15254 0.36635,-0.0275 0.691197,-0.25187 1.045829,-0.34783 0.164148,-0.0444 0.336704,-0.0479 0.50506,-0.0718 0.371134,-0.34771 0.924669,-0.0277 1.331511,-0.21961 0.440432,-0.20775 0.747222,-0.62468 1.120832,-0.93701 7.226654,-0.54212 7.993317,9.67791 0.766663,10.22002 l 0,0 c 0.109349,-0.11066 0.386143,-0.47631 0.328049,-0.33199 -0.362179,0.89976 -0.88586,0.49629 -1.804083,0.45722 -0.38041,0.22563 -0.698944,0.67503 -1.14123,0.67689 -0.314358,10e-4 -0.402395,-0.49566 -0.664465,-0.66929 -0.07984,-0.0529 0.165419,0.25096 0.07347,0.27773 -0.153737,0.0447 -0.289881,-0.16661 -0.449998,-0.1681 -1.153096,-0.0108 -1.117231,0.24026 -2.037826,0.97508 -6.009073,2.77729 -9.936755,-5.72083 -3.927681,-8.49812 z"
               id="path18497"
               style="fill:#c8c8c8;fill-opacity:0.78431373;stroke:none;stroke-width:10;stroke-linejoin:miter;stroke-miterlimit:4;stroke-dasharray:none;stroke-dashoffset:0;stroke-opacity:1" />
            <path
               inkscape:connector-curvature="0"
               d="m 84.880916,935.94482 c 0.432748,0.0579 0.863265,0.21142 1.298248,0.17378 1.779497,-0.15397 1.537986,-0.78 3.371731,-0.6352 0.644568,0.0509 1.235795,0.40783 1.877425,0.48765 0.312155,0.0388 0.622356,-0.092 0.933534,-0.138 0.338221,0.0651 0.67644,0.13026 1.014657,0.1954 1.060775,1.16239 1.308623,1.01827 2.847827,1.31422 0.702625,0.13509 1.392208,0.37501 2.106805,0.41087 4.721407,0.23674 -0.494952,-0.69756 3.171727,0.0595 2.01188,-0.39437 0.37448,-0.41259 1.43689,0.40028 0.16727,0.12798 0.41142,0.0927 0.61216,0.15647 0.25481,0.0809 0.5018,0.18469 0.7527,0.27703 6.42179,1.62286 4.12672,10.70463 -2.29506,9.08178 l 0,0 c -0.3505,-0.008 -0.70767,0.0456 -1.0515,-0.0229 -0.30748,-0.0613 -1.569904,-0.61643 -1.853537,-0.82524 -0.163049,-0.12003 -0.255498,-0.31415 -0.383247,-0.47122 -0.16988,-0.27536 -0.226498,-0.66954 -0.509649,-0.82609 -0.356207,-0.19693 -0.808295,-0.10021 -1.214415,-0.12709 -3.150958,-0.20861 0.161539,0.0377 -3.169685,0.12914 -1.014982,0.0279 -1.935502,-0.15654 -2.928887,-0.30925 -0.445116,0.0969 -0.977136,0.36941 -1.361345,-0.11989 -0.07985,-0.10171 0.176331,-0.27179 0.09866,-0.37516 -0.07034,-0.0936 -0.232847,0.0254 -0.348704,0.0424 -0.443818,0.0649 -0.882051,0.16566 -1.326667,0.22515 -6.437259,2.17765 -9.516917,-6.92601 -3.079659,-9.10366 z"
               id="path18503"
               style="fill:#c8c8c8;fill-opacity:0.78431373;stroke:none;stroke-width:10;stroke-linejoin:miter;stroke-miterlimit:4;stroke-dasharray:none;stroke-dashoffset:0;stroke-opacity:1" />
          </g>
        </g>
      </g>
    </g>
  </g>
</svg>
